{"glyphs":{"0":{"ha":1014,"x_min":72,"x_max":944,"o":"m 72 394 q 103 630 72 525 q 192 808 135 735 q 329 921 249 882 q 508 960 410 960 q 685 921 604 960 q 823 808 765 882 q 913 630 881 735 q 944 394 944 525 q 914 158 944 263 q 827 -21 883 53 q 690 -134 771 -94 q 508 -174 608 -174 q 329 -134 410 -174 q 192 -21 249 -94 q 103 158 135 53 q 72 394 72 263 m 211 394 q 239 194 211 279 q 310 52 267 108 q 406 -32 353 -4 q 508 -60 458 -60 q 614 -32 561 -60 q 710 52 667 -4 q 779 194 753 108 q 806 394 806 279 q 779 593 806 508 q 710 734 753 678 q 614 818 667 790 q 508 846 561 846 q 406 818 458 846 q 310 734 353 790 q 239 593 267 678 q 211 394 211 508 z "},"1":{"ha":472,"x_min":42,"x_max":375,"o":"m 42 933 l 375 933 l 375 -146 l 236 -146 l 236 819 l 42 819 l 42 933 z "},"2":{"ha":918,"x_min":75,"x_max":876,"o":"m 97 -146 l 97 -50 l 460 282 q 542 358 500 318 q 617 442 583 399 q 673 532 651 486 q 694 626 694 578 q 633 791 694 738 q 461 844 572 844 q 369 826 411 844 q 294 775 328 807 q 234 701 260 743 q 193 613 208 658 l 75 674 q 223 884 121 808 q 481 960 325 960 q 740 873 644 960 q 833 622 835 786 q 810 513 833 568 q 749 406 786 458 q 667 304 713 353 q 575 214 621 256 l 308 -31 l 876 -31 l 876 -146 l 97 -146 z "},"3":{"ha":967,"x_min":74,"x_max":883,"o":"m 101 718 q 158 819 122 774 q 242 895 194 864 q 347 943 290 926 q 467 960 404 960 q 631 937 558 960 q 752 874 703 914 q 827 778 801 833 q 853 661 853 724 q 841 577 853 618 q 808 502 829 536 q 754 443 786 468 q 683 406 722 418 q 758 374 722 396 q 822 318 794 351 q 867 241 850 285 q 883 146 883 197 q 849 -1 883 60 q 756 -101 814 -62 q 623 -156 699 -139 q 465 -174 547 -174 q 344 -160 403 -174 q 235 -117 286 -146 q 142 -43 183 -87 q 74 61 101 1 l 199 119 q 301 -12 228 35 q 464 -60 374 -60 q 567 -49 517 -60 q 656 -13 617 -37 q 720 49 696 11 q 744 140 744 86 q 721 235 744 196 q 658 297 697 274 q 569 332 619 321 q 467 343 519 343 l 367 343 l 367 457 l 467 457 q 563 469 518 457 q 642 505 608 481 q 694 565 675 529 q 714 649 714 600 q 693 738 714 700 q 638 799 672 775 q 556 834 603 822 q 460 846 510 846 q 386 832 422 846 q 319 793 350 818 q 263 735 288 768 q 224 663 239 701 l 101 718 z "},"4":{"ha":926,"x_min":56,"x_max":885,"o":"m 56 89 l 56 203 l 572 933 l 729 933 l 729 203 l 885 203 l 885 89 l 729 89 l 729 -146 l 590 -146 l 590 89 l 56 89 m 590 746 l 207 203 l 590 203 l 590 746 z "},"5":{"ha":950,"x_min":72,"x_max":881,"o":"m 203 143 q 305 -7 239 47 q 474 -61 371 -61 q 583 -40 533 -61 q 667 17 632 -18 q 722 99 703 53 q 742 196 742 146 q 722 301 742 254 q 667 383 703 349 q 579 437 631 418 q 463 456 528 456 q 346 419 396 456 q 256 325 296 383 l 113 325 l 113 933 l 822 933 l 822 818 l 251 818 l 251 478 q 503 571 356 571 q 653 544 583 571 q 773 468 722 517 q 852 351 824 419 q 881 199 881 282 q 854 57 881 125 q 776 -63 828 -11 q 649 -146 725 -115 q 472 -176 572 -176 q 215 -104 314 -176 q 72 92 115 -32 l 203 143 z "},"6":{"ha":957,"x_min":85,"x_max":888,"o":"m 589 933 l 368 543 q 436 560 400 556 q 511 565 472 565 q 658 535 589 565 q 777 456 726 506 q 858 340 828 406 q 888 204 888 275 q 855 45 888 115 q 766 -74 822 -25 q 634 -148 710 -122 q 472 -174 558 -174 q 324 -148 394 -174 q 201 -75 254 -122 q 117 40 149 -28 q 85 194 85 108 q 115 338 85 258 q 199 515 146 417 l 429 933 l 589 933 m 481 -58 q 590 -37 540 -58 q 674 20 639 -15 q 729 102 710 56 q 749 199 749 149 q 730 297 749 251 q 676 377 711 343 q 592 431 642 411 q 481 450 543 450 q 371 428 418 450 q 292 372 324 407 q 243 291 260 336 q 226 199 226 246 q 244 102 226 149 q 294 20 261 56 q 374 -37 326 -15 q 481 -58 421 -58 z "},"7":{"ha":836,"x_min":42,"x_max":794,"o":"m 286 -146 l 140 -146 l 618 819 l 42 819 l 42 933 l 794 933 l 794 881 l 286 -146 z "},"8":{"ha":961,"x_min":83,"x_max":878,"o":"m 481 -174 q 326 -151 399 -174 q 200 -89 254 -129 q 115 8 146 -49 q 83 132 83 64 q 103 242 83 194 q 155 323 124 289 q 224 378 186 357 q 299 411 263 400 q 232 440 265 419 q 173 493 199 461 q 131 569 147 525 q 115 668 115 613 q 142 781 115 728 q 219 874 169 835 q 335 938 268 914 q 481 961 401 961 q 626 938 560 961 q 742 874 693 914 q 819 781 792 835 q 846 668 846 728 q 830 569 846 613 q 788 493 814 525 q 729 440 763 461 q 663 411 696 419 q 737 378 699 400 q 806 323 775 357 q 858 242 838 289 q 878 132 878 194 q 847 8 878 64 q 761 -89 815 -49 q 635 -151 707 -129 q 481 -174 563 -174 m 481 -60 q 578 -47 532 -60 q 660 -8 625 -33 q 717 56 696 18 q 739 142 739 93 q 719 228 739 190 q 663 292 699 267 q 581 331 628 318 q 481 344 535 344 q 380 331 426 344 q 298 292 333 318 q 242 228 263 267 q 222 142 222 190 q 244 56 222 93 q 301 -8 265 18 q 383 -47 336 -33 q 481 -60 429 -60 m 481 467 q 569 481 528 467 q 642 519 611 494 q 690 578 672 544 q 707 653 707 613 q 690 727 707 692 q 644 790 674 763 q 572 832 614 817 q 481 847 531 847 q 389 832 431 847 q 317 790 347 817 q 271 727 288 763 q 254 653 254 692 q 272 578 254 613 q 319 519 289 544 q 391 481 350 494 q 481 467 432 467 z "},"9":{"ha":957,"x_min":69,"x_max":872,"o":"m 368 -146 l 589 244 q 521 227 557 232 q 446 222 485 222 q 299 252 368 222 q 180 332 231 282 q 99 447 129 382 q 69 583 69 513 q 102 742 69 672 q 191 861 135 813 q 323 935 247 910 q 485 961 399 961 q 632 935 561 961 q 756 863 703 910 q 840 747 808 815 q 872 593 872 678 q 842 450 872 529 q 758 272 811 371 l 528 -146 l 368 -146 m 476 846 q 367 824 417 846 q 283 767 318 803 q 228 685 247 732 q 208 589 208 639 q 227 490 208 536 q 281 410 246 444 q 365 357 315 376 q 476 338 414 338 q 586 359 539 338 q 665 416 633 381 q 714 497 697 451 q 731 589 731 542 q 713 685 731 639 q 663 767 696 732 q 583 824 631 803 q 476 846 536 846 z "}," ":{"ha":333,"x_min":0,"x_max":0,"o":""},"!":{"ha":333,"x_min":97,"x_max":236,"o":"m 97 118 l 97 989 l 236 989 l 236 118 l 97 118 m 97 -28 l 236 -28 l 236 -175 l 97 -175 l 97 -28 z "},"\"":{"ha":586,"x_min":97,"x_max":489,"o":"m 250 617 l 97 617 l 97 958 l 250 958 l 250 617 m 489 686 l 336 686 l 336 1028 l 489 1028 l 489 686 z "},"#":{"ha":1106,"x_min":54,"x_max":1064,"o":"m 110 669 l 365 669 l 431 933 l 560 933 l 494 669 l 775 669 l 839 933 l 969 933 l 904 669 l 1064 669 l 1064 556 l 876 556 l 799 239 l 1008 239 l 1008 125 l 771 125 l 704 -146 l 576 -146 l 642 125 l 361 125 l 294 -146 l 165 -146 l 232 125 l 54 125 l 54 239 l 260 239 l 338 556 l 110 556 l 110 669 m 389 239 l 669 239 l 747 556 l 467 556 l 389 239 z "},"$":{"ha":944,"x_min":103,"x_max":875,"o":"m 558 1003 l 558 915 q 699 870 629 903 q 835 793 769 838 l 775 696 q 672 760 728 733 q 558 799 617 786 l 558 454 q 719 390 657 422 q 815 324 781 358 q 863 249 850 289 q 875 163 875 210 q 851 56 875 103 q 784 -25 826 8 q 684 -78 742 -58 q 558 -104 626 -99 l 558 -201 l 433 -201 l 433 -103 q 251 -54 332 -92 q 103 35 171 -17 l 165 138 q 280 56 214 90 q 433 11 346 22 l 433 369 q 197 484 274 418 q 119 658 119 550 q 144 769 119 722 q 212 849 169 817 q 311 899 254 881 q 433 921 368 917 l 433 1003 l 558 1003 m 736 160 q 729 215 736 190 q 702 260 722 239 q 647 298 682 281 q 558 333 613 315 l 558 8 q 694 60 653 17 q 736 160 736 103 m 258 663 q 266 610 258 633 q 293 567 274 588 q 347 529 313 547 q 433 493 381 511 l 433 807 q 298 760 338 800 q 258 663 258 721 z "},"%":{"ha":1188,"x_min":56,"x_max":1146,"o":"m 106 -146 l 928 933 l 1083 933 l 261 -146 l 106 -146 m 56 722 q 77 824 56 779 q 135 899 99 868 q 218 945 171 929 q 317 961 265 961 q 415 945 368 961 q 499 899 463 929 q 556 824 535 868 q 576 722 576 779 q 556 622 576 667 q 499 547 535 578 q 415 501 463 517 q 317 485 368 485 q 218 501 265 485 q 135 547 171 517 q 77 622 99 578 q 56 722 56 665 m 317 582 q 374 593 349 582 q 419 624 400 604 q 447 669 438 643 q 457 722 457 694 q 419 824 457 785 q 317 863 381 863 q 256 851 282 863 q 211 821 229 840 q 184 776 193 801 q 175 722 175 750 q 211 624 175 665 q 317 582 247 582 m 625 65 q 647 167 625 122 q 704 242 668 211 q 788 288 740 272 q 886 304 835 304 q 985 288 938 304 q 1068 242 1032 272 q 1125 167 1104 211 q 1146 65 1146 122 q 1125 -35 1146 10 q 1068 -110 1104 -79 q 985 -156 1032 -140 q 886 -172 938 -172 q 788 -156 835 -172 q 704 -110 740 -140 q 647 -35 668 -79 q 625 65 625 8 m 886 -75 q 944 -64 918 -75 q 988 -33 969 -53 q 1017 12 1007 -14 q 1026 65 1026 38 q 988 167 1026 128 q 886 206 950 206 q 825 194 851 206 q 781 164 799 183 q 753 119 763 144 q 744 65 744 93 q 781 -33 744 8 q 886 -75 817 -75 z "},"&":{"ha":1099,"x_min":82,"x_max":1071,"o":"m 822 -56 q 669 -142 757 -110 q 464 -174 582 -174 q 306 -151 376 -174 q 185 -91 235 -129 q 109 -3 136 -53 q 82 103 82 47 q 92 192 82 150 q 132 274 103 235 q 213 351 161 314 q 344 422 264 388 q 297 480 321 449 q 255 546 274 511 q 224 617 236 581 q 213 692 213 654 q 236 798 213 749 q 301 883 260 847 q 401 940 343 919 q 529 961 460 961 q 658 940 601 961 q 753 884 714 919 q 814 801 793 849 q 835 701 835 754 q 821 608 835 650 q 774 527 807 565 q 685 453 740 489 q 546 381 629 418 l 810 115 q 867 239 846 172 q 897 376 888 306 l 1028 376 q 983 190 1014 281 q 899 25 953 100 l 1071 -147 l 914 -147 l 822 -56 m 481 -60 q 625 -35 563 -60 q 736 29 688 -11 l 432 333 q 331 281 371 306 q 266 229 290 256 q 231 175 242 203 q 221 115 221 147 q 290 -18 221 24 q 481 -60 360 -60 m 351 692 q 376 589 351 642 q 461 468 400 536 q 567 518 522 493 q 640 570 611 543 q 682 628 668 597 q 696 699 696 660 q 685 755 696 728 q 653 802 674 782 q 601 835 632 822 q 529 847 569 847 q 402 805 453 847 q 351 692 351 763 z "},"'":{"ha":347,"x_min":97,"x_max":250,"o":"m 250 686 l 97 686 l 97 1028 l 250 1028 l 250 686 z "},"(":{"ha":538,"x_min":83,"x_max":510,"o":"m 83 401 q 153 732 83 586 q 351 1003 224 878 l 510 1003 q 394 873 447 940 q 303 731 342 806 q 244 575 265 657 q 222 401 222 493 q 244 228 222 310 q 303 71 265 146 q 394 -72 342 -4 q 510 -201 447 -139 l 351 -201 q 154 72 225 -75 q 83 401 83 218 z "},")":{"ha":538,"x_min":28,"x_max":454,"o":"m 454 401 q 383 72 454 218 q 186 -201 313 -75 l 28 -201 q 143 -72 90 -139 q 234 71 196 -4 q 294 228 272 146 q 315 401 315 310 q 294 575 315 493 q 234 731 272 657 q 143 873 196 806 q 28 1003 90 940 l 186 1003 q 384 732 314 878 q 454 401 454 586 z "},"*":{"ha":653,"x_min":60,"x_max":593,"o":"m 593 725 l 414 664 l 539 506 l 453 442 l 329 611 l 207 443 l 122 504 l 242 664 l 60 719 l 99 833 l 274 754 l 274 968 l 382 968 l 382 754 l 556 829 l 593 725 z "},"+":{"ha":901,"x_min":110,"x_max":804,"o":"m 110 476 l 388 476 l 388 739 l 526 739 l 526 476 l 804 476 l 804 363 l 526 363 l 526 76 l 388 76 l 388 363 l 110 363 l 110 476 z "},",":{"ha":396,"x_min":122,"x_max":278,"o":"m 278 -153 q 244 -292 278 -247 q 122 -349 211 -337 l 122 -269 q 182 -242 165 -264 q 199 -156 199 -219 l 125 -156 l 125 -7 l 278 -7 l 278 -153 z "},"-":{"ha":901,"x_min":110,"x_max":804,"o":"m 110 476 l 804 476 l 804 363 l 110 363 l 110 476 z "},".":{"ha":396,"x_min":125,"x_max":278,"o":"m 278 -156 l 125 -156 l 125 -7 l 278 -7 l 278 -156 z "},"/":{"ha":767,"x_min":46,"x_max":739,"o":"m 46 -146 l 588 933 l 739 933 l 199 -146 l 46 -146 z "},":":{"ha":438,"x_min":143,"x_max":296,"o":"m 296 -7 l 143 -7 l 143 142 l 296 142 l 296 -7 m 296 681 l 143 681 l 143 829 l 296 829 l 296 681 z "},";":{"ha":438,"x_min":140,"x_max":296,"o":"m 296 681 l 143 681 l 143 829 l 296 829 l 296 681 m 296 -18 q 258 -140 296 -92 q 140 -200 219 -189 l 140 -121 q 201 -85 185 -115 q 217 -7 217 -56 l 143 -7 l 143 142 l 296 142 l 296 -18 z "},"<":{"ha":729,"x_min":110,"x_max":710,"o":"m 231 396 l 710 -128 l 621 -217 l 110 339 l 110 453 l 621 1008 l 710 919 l 231 396 z "},"=":{"ha":888,"x_min":110,"x_max":790,"o":"m 110 643 l 790 643 l 790 529 l 110 529 l 110 643 m 110 310 l 790 310 l 790 196 l 110 196 l 110 310 z "},">":{"ha":729,"x_min":18,"x_max":618,"o":"m 18 919 l 107 1008 l 618 453 l 618 339 l 107 -217 l 18 -128 l 497 396 l 18 919 z "},"?":{"ha":853,"x_min":43,"x_max":783,"o":"m 336 118 l 336 453 q 450 472 394 456 q 549 519 506 489 q 618 593 592 549 q 644 697 644 638 q 624 791 644 751 q 570 856 604 831 q 492 892 536 881 q 401 903 449 903 q 314 885 353 903 q 245 840 275 868 q 194 775 215 813 q 161 696 174 738 l 43 746 q 102 870 65 818 q 188 955 139 922 q 294 1003 236 988 q 418 1018 353 1018 q 580 994 511 1018 q 694 930 649 971 q 761 833 739 889 q 783 714 783 778 q 703 486 783 571 q 475 365 622 401 l 475 118 l 336 118 m 336 -28 l 475 -28 l 475 -175 l 336 -175 l 336 -28 z "},"@":{"ha":1410,"x_min":83,"x_max":1271,"o":"m 1029 -126 q 857 -175 942 -162 q 674 -187 772 -187 q 440 -143 549 -187 q 253 -21 332 -99 q 128 164 174 57 q 83 396 83 271 q 128 623 83 517 q 253 808 174 729 q 442 931 333 886 q 678 976 551 976 q 916 935 807 976 q 1104 822 1025 893 q 1227 652 1183 750 q 1271 440 1271 554 q 1251 303 1271 365 q 1195 196 1232 240 q 1106 127 1158 151 q 986 103 1053 103 q 897 131 938 103 q 843 204 857 160 q 758 136 813 163 q 633 110 704 110 q 522 131 574 110 q 433 188 471 151 q 374 276 396 225 q 353 389 353 328 q 376 503 353 451 q 438 594 399 556 q 527 653 476 632 q 633 674 578 674 q 741 653 686 674 q 833 593 796 633 l 833 665 l 947 665 l 947 274 q 1011 217 947 217 q 1058 230 1035 217 q 1099 270 1081 243 q 1128 340 1117 297 q 1139 443 1139 383 q 1106 610 1139 535 q 1011 741 1072 686 q 865 826 950 796 q 676 856 779 856 q 492 820 576 856 q 345 723 407 785 q 249 577 283 661 q 215 396 215 493 q 249 213 215 297 q 344 66 283 128 q 490 -31 406 4 q 674 -67 574 -67 q 836 -56 756 -67 q 996 -15 917 -44 l 1029 -126 m 825 389 q 776 511 825 465 q 649 557 728 557 q 525 511 574 557 q 476 389 476 465 q 526 269 476 314 q 649 225 575 225 q 775 269 725 225 q 825 389 825 314 z "},"A":{"ha":1064,"x_min":51,"x_max":1038,"o":"m 474 933 l 615 933 l 1038 -146 l 893 -146 l 739 249 l 301 126 l 196 -146 l 51 -146 l 474 933 m 349 249 l 701 347 l 544 753 l 349 249 z "},"B":{"ha":1092,"x_min":113,"x_max":1022,"o":"m 963 693 q 923 549 963 607 q 792 456 883 492 q 885 419 843 444 q 958 358 928 394 q 1006 273 989 321 q 1022 168 1022 225 q 998 44 1022 101 q 931 -56 974 -14 q 828 -122 888 -97 q 700 -146 769 -146 l 113 -146 l 113 933 l 668 933 q 774 922 721 933 q 868 884 826 911 q 936 810 910 857 q 963 693 963 764 m 883 181 q 813 326 883 265 q 606 399 742 388 l 250 293 l 250 -40 l 626 -40 q 725 -28 678 -40 q 807 10 772 -17 q 863 78 842 36 q 883 181 883 121 m 650 522 q 722 547 689 533 q 776 578 754 560 q 811 621 799 596 q 824 682 824 646 q 783 793 824 760 q 660 826 743 826 l 250 826 l 250 411 l 650 522 z "},"C":{"ha":1149,"x_min":83,"x_max":1107,"o":"m 83 394 q 126 622 83 518 q 242 802 168 726 q 417 920 315 878 q 635 963 518 963 q 899 895 778 963 q 1101 707 1021 828 l 1001 635 q 848 790 943 729 q 631 850 753 850 q 468 814 543 850 q 339 716 393 778 q 253 572 285 654 q 222 394 222 489 q 255 215 222 299 q 346 71 288 132 q 485 -25 404 10 q 664 -60 567 -60 q 863 0 776 -60 q 1010 158 950 60 l 1107 82 q 908 -105 1029 -36 q 635 -174 788 -174 q 425 -134 525 -174 q 249 -20 325 -94 q 128 159 174 54 q 83 394 83 264 z "},"D":{"ha":1104,"x_min":111,"x_max":1035,"o":"m 111 933 l 551 933 q 765 892 674 933 q 916 780 856 851 q 1006 610 976 708 q 1035 396 1035 511 q 997 177 1035 276 q 890 6 960 78 q 719 -106 819 -65 q 492 -146 618 -146 l 111 -146 l 111 933 m 250 -32 l 489 -32 q 660 2 585 -32 q 788 95 735 36 q 868 233 840 154 q 896 400 896 311 q 874 565 896 488 q 806 698 851 642 q 690 787 760 754 q 522 819 619 819 l 250 819 l 250 -32 z "},"E":{"ha":961,"x_min":111,"x_max":892,"o":"m 851 463 l 851 349 l 250 349 l 250 -33 l 892 -33 l 892 -146 l 111 -146 l 111 933 l 878 933 l 878 819 l 250 819 l 250 463 l 851 463 z "},"F":{"ha":906,"x_min":111,"x_max":878,"o":"m 851 463 l 851 349 l 250 349 l 250 -146 l 111 -146 l 111 933 l 878 933 l 878 819 l 250 819 l 250 463 l 851 463 z "},"G":{"ha":1213,"x_min":83,"x_max":1143,"o":"m 635 -174 q 425 -134 525 -174 q 249 -20 325 -94 q 128 159 174 54 q 83 394 83 264 q 126 622 83 518 q 242 802 168 726 q 417 920 315 878 q 635 963 518 963 q 899 895 778 963 q 1101 707 1021 828 l 1001 635 q 848 790 943 729 q 631 850 753 850 q 468 814 543 850 q 339 716 393 778 q 253 572 285 654 q 222 394 222 489 q 256 215 222 299 q 346 71 289 132 q 477 -25 403 10 q 633 -60 551 -60 q 790 -33 721 -60 q 906 43 858 -6 q 980 160 954 92 q 1006 311 1006 228 l 613 311 l 613 425 l 1143 425 l 1143 361 q 1109 148 1143 246 q 1010 -22 1075 50 q 851 -133 946 -93 q 635 -174 756 -174 z "},"H":{"ha":1107,"x_min":111,"x_max":1010,"o":"m 871 -146 l 871 450 l 250 281 l 250 -146 l 111 -146 l 111 933 l 250 933 l 250 390 l 871 560 l 871 933 l 1010 933 l 1010 -146 l 871 -146 z "},"I":{"ha":335,"x_min":99,"x_max":238,"o":"m 238 933 l 238 -146 l 99 -146 l 99 933 l 238 933 z "},"J":{"ha":821,"x_min":47,"x_max":724,"o":"m 122 54 q 213 -22 157 13 q 329 -56 269 -56 q 524 15 463 -56 q 585 222 585 85 l 585 933 l 724 933 l 724 231 q 701 60 724 136 q 629 -69 678 -17 q 506 -149 581 -122 q 328 -174 432 -176 q 178 -136 250 -171 q 47 -50 107 -101 l 122 54 z "},"K":{"ha":939,"x_min":111,"x_max":911,"o":"m 729 -146 l 250 354 l 250 -146 l 111 -146 l 111 933 l 250 933 l 250 488 l 722 933 l 903 933 l 365 425 l 911 -146 l 729 -146 z "},"L":{"ha":890,"x_min":111,"x_max":863,"o":"m 111 933 l 250 933 l 250 -32 l 863 -32 l 863 -146 l 111 -146 l 111 933 z "},"M":{"ha":1351,"x_min":111,"x_max":1254,"o":"m 250 933 l 682 17 l 1115 933 l 1254 933 l 1254 -146 l 1115 -146 l 1115 656 l 739 -146 l 626 -146 l 250 656 l 250 -146 l 111 -146 l 111 933 l 250 933 z "},"N":{"ha":1107,"x_min":111,"x_max":1010,"o":"m 111 933 l 250 933 l 871 58 l 871 933 l 1010 933 l 1010 -146 l 871 -146 l 250 736 l 250 -146 l 111 -146 l 111 933 z "},"O":{"ha":1246,"x_min":83,"x_max":1176,"o":"m 83 396 q 127 632 83 526 q 246 810 171 738 q 419 923 321 883 q 629 963 518 963 q 841 923 742 963 q 1015 810 940 883 q 1133 632 1089 738 q 1176 396 1176 526 q 1133 158 1176 264 q 1015 -21 1089 53 q 841 -134 940 -94 q 629 -174 742 -174 q 419 -134 518 -174 q 246 -21 321 -94 q 127 158 171 53 q 83 396 83 264 m 222 396 q 256 200 222 285 q 347 57 290 115 q 477 -31 404 -1 q 629 -61 550 -61 q 782 -31 708 -61 q 913 57 856 -1 q 1005 200 971 115 q 1039 396 1039 285 q 1003 589 1039 504 q 908 731 967 674 q 776 819 850 789 q 629 849 703 849 q 483 819 556 849 q 352 731 410 789 q 258 589 294 674 q 222 396 222 504 z "},"P":{"ha":1050,"x_min":111,"x_max":981,"o":"m 111 933 l 650 933 q 774 915 714 933 q 879 861 833 897 q 953 770 925 825 q 981 640 981 715 q 956 517 981 567 q 890 433 932 467 q 788 380 847 400 q 661 344 729 360 l 250 246 l 250 -146 l 111 -146 l 111 933 m 843 640 q 826 717 843 683 q 781 773 810 750 q 712 808 751 796 q 625 819 672 819 l 250 819 l 250 372 l 607 447 q 785 517 728 474 q 843 640 843 561 z "},"Q":{"ha":1246,"x_min":83,"x_max":1176,"o":"m 83 396 q 127 632 83 526 q 246 810 171 738 q 419 923 321 883 q 629 963 518 963 q 841 923 742 963 q 1015 810 940 883 q 1133 632 1089 738 q 1176 396 1176 526 q 1140 176 1176 274 q 1038 4 1103 78 l 1146 -114 l 1064 -193 l 953 -72 q 803 -147 885 -121 q 629 -174 721 -174 q 419 -134 518 -174 q 246 -21 321 -94 q 127 158 171 53 q 83 396 83 264 m 775 292 l 950 100 q 1015 230 990 156 q 1039 396 1039 304 q 1003 589 1039 504 q 908 731 967 674 q 776 819 850 789 q 629 849 703 849 q 483 819 556 849 q 352 731 410 789 q 258 589 294 674 q 222 396 222 504 q 256 200 222 285 q 347 57 290 115 q 477 -31 404 -1 q 629 -61 550 -61 q 756 -41 694 -61 q 869 18 817 -21 l 693 213 l 775 292 z "},"R":{"ha":1056,"x_min":111,"x_max":1028,"o":"m 111 933 l 650 933 q 774 915 714 933 q 879 861 833 897 q 953 770 925 825 q 981 640 981 715 q 964 535 981 579 q 917 458 947 490 q 845 405 888 426 q 753 368 803 383 l 1028 -146 l 882 -146 l 621 335 l 250 246 l 250 -146 l 111 -146 l 111 933 m 843 640 q 826 717 843 683 q 781 773 810 750 q 712 808 751 796 q 625 819 672 819 l 250 819 l 250 372 l 607 447 q 785 517 728 474 q 843 640 843 561 z "},"S":{"ha":978,"x_min":85,"x_max":908,"o":"m 144 85 q 226 25 181 51 q 323 -21 272 -1 q 426 -50 374 -40 q 525 -60 478 -60 q 702 -13 635 -58 q 769 128 769 32 q 752 199 769 168 q 702 255 735 231 q 622 298 669 279 q 515 333 575 317 q 333 395 410 363 q 205 468 256 428 q 130 558 154 508 q 106 675 106 608 q 135 800 106 746 q 217 890 165 854 q 340 943 269 925 q 489 961 410 961 q 685 927 588 961 q 867 828 782 893 l 811 728 q 743 772 781 751 q 665 810 706 793 q 581 836 624 826 q 499 847 539 846 q 406 840 451 849 q 325 812 361 832 q 267 759 289 792 q 244 679 244 726 q 258 603 244 635 q 303 548 272 572 q 385 503 335 524 q 508 463 435 483 q 674 405 600 435 q 801 337 749 375 q 881 250 853 299 q 908 138 908 201 q 878 -5 908 54 q 796 -101 849 -64 q 669 -156 743 -139 q 508 -174 596 -174 q 285 -135 397 -174 q 85 -26 174 -97 l 144 85 z "},"T":{"ha":994,"x_min":56,"x_max":953,"o":"m 574 819 l 574 -146 l 435 -146 l 435 819 l 56 819 l 56 933 l 953 933 l 953 819 l 574 819 z "},"U":{"ha":1107,"x_min":111,"x_max":1010,"o":"m 561 -174 q 380 -141 463 -174 q 238 -51 297 -108 q 144 85 178 7 q 111 254 111 164 l 111 933 l 250 933 l 250 268 q 270 148 250 206 q 330 46 290 90 q 427 -25 369 1 q 561 -51 485 -51 q 695 -25 638 -51 q 792 46 753 1 q 851 148 831 90 q 871 268 871 206 l 871 933 l 1010 933 l 1010 254 q 976 85 1010 164 q 884 -51 943 7 q 742 -141 825 -108 q 561 -174 660 -174 z "},"V":{"ha":1065,"x_min":51,"x_max":1038,"o":"m 51 933 l 196 933 l 544 33 l 893 933 l 1038 933 l 615 -146 l 474 -146 l 51 933 z "},"W":{"ha":1378,"x_min":54,"x_max":1358,"o":"m 706 717 l 489 -146 l 353 -146 l 54 933 l 189 933 l 421 72 l 636 933 l 776 933 l 990 72 l 1224 933 l 1358 933 l 1060 -146 l 924 -146 l 706 717 z "},"X":{"ha":994,"x_min":57,"x_max":968,"o":"m 63 -146 l 435 389 l 57 933 l 210 933 l 513 499 l 815 933 l 968 933 l 589 389 l 963 -146 l 807 -146 l 513 278 l 218 -146 l 63 -146 z "},"Y":{"ha":1028,"x_min":57,"x_max":999,"o":"m 210 933 l 528 421 l 846 933 l 999 933 l 597 285 l 597 -146 l 458 -146 l 458 285 l 57 933 l 210 933 z "},"Z":{"ha":925,"x_min":83,"x_max":856,"o":"m 83 -146 l 83 -47 l 664 819 l 110 819 l 110 933 l 833 933 l 833 851 l 242 -32 l 856 -32 l 856 -146 l 83 -146 z "},"[":{"ha":528,"x_min":110,"x_max":500,"o":"m 500 1003 l 500 889 l 249 889 l 249 -87 l 500 -87 l 500 -201 l 110 -201 l 110 1003 l 500 1003 z "},"\\":{"ha":1431,"x_min":40,"x_max":1400,"o":"m 1400 342 l 1178 342 l 1046 -132 l 908 -132 l 808 342 l 633 342 l 533 -132 l 396 -132 l 263 342 l 40 342 l 40 446 l 233 446 l 101 919 l 236 919 l 360 446 l 549 446 l 650 919 l 792 919 l 893 446 l 1082 446 l 1206 919 l 1340 919 l 1207 446 l 1400 446 l 1400 342 m 978 46 l 1056 342 l 915 342 l 978 46 m 463 49 l 526 342 l 386 342 l 463 49 m 656 446 l 786 446 l 721 751 l 656 446 z "},"]":{"ha":515,"x_min":28,"x_max":418,"o":"m 418 1003 l 418 -201 l 28 -201 l 28 -87 l 279 -87 l 279 889 l 28 889 l 28 1003 l 418 1003 z "},"^":{"ha":690,"x_min":50,"x_max":661,"o":"m 446 981 l 661 626 l 519 626 l 357 896 l 194 626 l 50 626 l 264 981 l 446 981 z "},"_":{"ha":610,"x_min":40,"x_max":582,"o":"m 40 -60 l 582 -60 l 582 -174 l 40 -174 l 40 -60 z "},"`":{"ha":483,"x_min":65,"x_max":456,"o":"m 310 640 l 65 981 l 235 981 l 456 640 l 310 640 z "},"a":{"ha":1063,"x_min":83,"x_max":965,"o":"m 481 678 q 683 638 594 678 q 828 522 772 597 l 840 650 l 965 650 l 965 -146 l 840 -146 l 828 -18 q 680 -135 772 -93 q 482 -174 588 -176 q 326 -140 399 -172 q 200 -51 254 -107 q 115 82 146 6 q 83 250 83 158 q 116 422 83 343 q 203 558 149 501 q 329 646 257 614 q 481 678 401 678 m 514 -60 q 636 -37 582 -60 q 728 26 690 -15 q 785 124 765 67 q 806 250 806 181 q 785 379 806 321 q 728 478 765 438 q 636 542 690 519 q 514 564 582 564 q 398 542 451 564 q 306 478 344 519 q 244 379 267 438 q 222 250 222 321 q 244 124 222 181 q 306 26 267 67 q 398 -37 344 -14 q 514 -60 451 -60 z "},"b":{"ha":1063,"x_min":111,"x_max":993,"o":"m 596 678 q 747 646 675 678 q 874 558 819 614 q 960 422 928 501 q 993 250 993 343 q 962 82 993 158 q 876 -51 931 6 q 750 -140 822 -107 q 594 -174 678 -172 q 397 -135 489 -176 q 249 -18 304 -93 l 236 -146 l 111 -146 l 111 933 l 250 933 l 250 524 q 393 638 304 599 q 596 678 482 678 m 563 -60 q 678 -37 625 -60 q 771 26 732 -14 q 832 124 810 67 q 854 250 854 181 q 832 379 854 321 q 771 478 810 438 q 678 542 732 519 q 563 564 625 564 q 440 542 494 564 q 349 478 386 519 q 291 379 311 438 q 271 250 271 321 q 291 124 271 181 q 349 26 311 67 q 440 -37 386 -15 q 563 -60 494 -60 z "},"c":{"ha":942,"x_min":83,"x_max":901,"o":"m 553 578 q 428 554 488 578 q 322 488 368 531 q 249 384 276 444 q 221 251 221 324 q 247 123 221 182 q 319 20 274 64 q 424 -49 364 -24 q 553 -74 485 -74 q 695 -32 632 -74 q 804 79 758 10 l 900 -3 q 741 -138 836 -89 q 533 -187 646 -187 q 357 -153 439 -187 q 214 -60 275 -119 q 118 78 153 -1 q 83 251 83 158 q 119 424 83 344 q 217 564 156 504 q 360 658 278 624 q 533 692 442 692 q 736 646 636 692 q 901 508 836 600 l 804 425 q 757 481 785 454 q 697 530 729 508 q 627 565 664 551 q 553 578 590 578 z "},"d":{"ha":1063,"x_min":83,"x_max":965,"o":"m 481 678 q 683 638 594 678 q 826 524 771 599 l 826 933 l 965 933 l 965 -146 l 840 -146 l 828 -18 q 680 -135 772 -93 q 482 -174 588 -176 q 326 -140 399 -172 q 200 -51 254 -107 q 115 82 146 6 q 83 250 83 158 q 116 422 83 343 q 203 558 149 501 q 329 646 257 614 q 481 678 401 678 m 514 -60 q 636 -37 582 -60 q 728 26 690 -15 q 785 124 765 67 q 806 250 806 181 q 785 379 806 321 q 728 478 765 438 q 636 542 690 519 q 514 564 582 564 q 398 542 451 564 q 306 478 344 519 q 244 379 267 438 q 222 250 222 321 q 244 124 222 181 q 306 26 267 67 q 398 -37 344 -14 q 514 -60 451 -60 z "},"e":{"ha":1036,"x_min":83,"x_max":965,"o":"m 235 135 q 285 49 253 88 q 356 -17 317 10 q 440 -60 396 -44 q 531 -75 485 -75 q 690 -35 615 -75 q 828 64 765 4 l 928 -11 q 761 -139 857 -90 q 553 -187 665 -187 q 372 -157 457 -187 q 222 -69 286 -126 q 121 69 158 -12 q 83 251 83 150 q 119 431 83 350 q 215 571 154 513 q 358 661 276 629 q 532 693 439 693 q 694 664 619 693 q 827 583 769 635 q 921 457 885 531 q 965 296 957 383 l 235 135 m 214 242 l 811 376 q 696 531 767 483 q 542 579 625 579 q 413 555 472 579 q 308 488 353 531 q 239 384 264 444 q 214 251 214 324 l 214 242 z "},"f":{"ha":604,"x_min":42,"x_max":575,"o":"m 358 -146 l 219 -146 l 219 522 l 42 522 l 42 636 l 219 636 l 219 736 q 235 814 219 778 q 276 876 250 850 q 335 918 301 903 q 407 933 369 933 l 575 933 l 575 819 l 472 819 q 387 792 415 819 q 358 718 358 764 l 358 636 l 561 636 l 561 522 l 358 522 l 358 -146 z "},"g":{"ha":1063,"x_min":83,"x_max":965,"o":"m 481 678 q 683 637 596 678 q 828 521 769 596 l 840 650 l 965 650 l 965 -119 q 933 -295 964 -218 q 849 -426 903 -372 q 720 -507 794 -479 q 558 -535 646 -535 q 403 -517 476 -535 q 271 -460 329 -499 q 174 -362 213 -422 q 126 -218 136 -303 l 267 -218 q 290 -301 269 -264 q 345 -366 311 -339 q 426 -408 379 -393 q 528 -422 472 -422 q 646 -404 592 -422 q 740 -349 700 -386 q 803 -254 781 -311 q 826 -119 826 -197 l 826 18 q 684 -103 775 -58 q 482 -146 593 -149 q 326 -112 399 -144 q 200 -24 254 -79 q 115 104 146 31 q 83 264 83 178 q 116 428 83 353 q 203 560 149 504 q 329 647 257 615 q 481 678 401 678 m 514 -32 q 636 -10 582 -32 q 728 52 690 13 q 785 146 765 92 q 806 264 806 200 q 785 385 806 331 q 728 480 765 440 q 636 542 690 519 q 514 564 582 564 q 398 542 451 564 q 306 480 344 519 q 244 385 267 440 q 222 264 222 331 q 244 146 222 200 q 306 52 267 92 q 398 -10 344 13 q 514 -32 451 -32 z "},"h":{"ha":993,"x_min":111,"x_max":896,"o":"m 250 549 q 380 647 304 617 q 542 678 456 678 q 688 653 622 678 q 799 583 753 628 q 871 474 846 538 q 896 335 896 411 l 896 -146 l 757 -146 l 757 297 q 506 564 757 564 q 419 549 463 564 q 338 503 375 533 q 278 426 301 472 q 250 319 254 381 l 250 -146 l 111 -146 l 111 933 l 250 933 l 250 549 z "},"i":{"ha":335,"x_min":99,"x_max":238,"o":"m 238 678 l 238 -146 l 99 -146 l 99 678 l 238 678 m 238 972 l 238 817 l 99 817 l 99 972 l 238 972 z "},"j":{"ha":454,"x_min":29,"x_max":358,"o":"m 218 678 l 357 678 l 357 -8 q 340 -106 357 -64 q 294 -176 322 -149 q 231 -219 267 -204 q 156 -233 194 -233 l 29 -233 l 29 -119 l 92 -119 q 184 -90 150 -119 q 218 18 218 -60 l 218 678 m 358 972 l 358 817 l 219 817 l 219 972 l 358 972 z "},"k":{"ha":885,"x_min":111,"x_max":857,"o":"m 672 -146 l 250 228 l 250 -146 l 111 -146 l 111 933 l 250 933 l 250 314 l 651 650 l 836 650 l 385 272 l 857 -146 l 672 -146 z "},"l":{"ha":335,"x_min":99,"x_max":238,"o":"m 238 933 l 238 -146 l 99 -146 l 99 933 l 238 933 z "},"m":{"ha":1347,"x_min":111,"x_max":1250,"o":"m 750 -146 l 611 -146 l 611 360 q 601 435 611 399 q 572 501 592 472 q 522 546 553 529 q 449 563 490 563 q 373 543 407 563 q 313 494 339 524 q 271 431 288 465 q 250 369 254 397 l 250 -146 l 111 -146 l 111 650 l 238 650 l 243 568 q 353 650 292 625 q 500 678 414 675 q 621 644 565 678 q 710 549 676 611 q 979 678 803 679 q 1083 655 1033 678 q 1169 592 1132 632 q 1228 494 1206 551 q 1250 365 1250 436 l 1250 -146 l 1111 -146 l 1111 360 q 1100 431 1111 394 q 1066 496 1089 467 q 1009 544 1043 525 q 929 563 975 563 q 865 547 896 563 q 809 507 833 532 q 769 449 785 482 q 750 378 754 415 l 750 -146 z "},"n":{"ha":993,"x_min":111,"x_max":896,"o":"m 246 544 q 377 647 300 615 q 542 678 454 678 q 688 653 622 678 q 799 583 753 628 q 871 474 846 538 q 896 335 896 411 l 896 -146 l 757 -146 l 757 297 q 506 564 757 564 q 419 549 463 564 q 338 503 375 533 q 278 426 301 472 q 250 319 254 381 l 250 -146 l 111 -146 l 111 650 l 236 650 l 246 544 z "},"o":{"ha":1047,"x_min":83,"x_max":978,"o":"m 531 -75 q 648 -51 592 -75 q 747 15 704 -28 q 815 118 789 58 q 840 250 840 178 q 813 385 840 325 q 741 488 785 446 q 642 554 697 531 q 531 578 586 578 q 419 554 474 578 q 319 487 364 531 q 248 383 275 443 q 221 250 221 322 q 246 118 221 178 q 314 15 271 58 q 413 -51 357 -28 q 531 -75 469 -75 m 83 250 q 120 433 83 351 q 219 573 157 515 q 363 661 282 631 q 531 692 443 692 q 699 661 618 692 q 841 573 779 631 q 940 433 903 515 q 978 250 978 351 q 940 68 978 149 q 841 -69 903 -12 q 699 -157 779 -126 q 531 -187 618 -187 q 363 -157 443 -187 q 219 -69 282 -126 q 120 68 157 -12 q 83 250 83 149 z "},"p":{"ha":1063,"x_min":111,"x_max":993,"o":"m 596 678 q 747 646 675 678 q 874 558 819 614 q 960 422 928 501 q 993 250 993 343 q 962 82 993 158 q 876 -51 931 6 q 750 -140 822 -107 q 594 -174 678 -172 q 397 -135 489 -176 q 250 -19 306 -94 l 250 -507 l 111 -507 l 111 650 l 236 650 l 249 522 q 392 638 303 597 q 596 678 481 678 m 563 -60 q 678 -37 625 -60 q 771 26 732 -14 q 832 124 810 67 q 854 250 854 181 q 832 379 854 321 q 771 478 810 438 q 678 542 732 519 q 563 564 625 564 q 440 542 494 564 q 349 478 386 519 q 291 379 311 438 q 271 250 271 321 q 291 124 271 181 q 349 26 311 67 q 440 -37 386 -15 q 563 -60 494 -60 z "},"q":{"ha":1063,"x_min":83,"x_max":965,"o":"m 481 678 q 683 638 594 678 q 828 522 772 597 l 840 650 l 965 650 l 965 -507 l 826 -507 l 826 -19 q 678 -135 769 -94 q 482 -174 586 -176 q 326 -140 399 -172 q 200 -51 254 -107 q 115 82 146 6 q 83 250 83 158 q 116 422 83 343 q 203 558 149 501 q 329 646 257 614 q 481 678 401 678 m 514 -60 q 636 -37 582 -60 q 728 26 690 -15 q 785 124 765 67 q 806 250 806 181 q 785 379 806 321 q 728 478 765 438 q 636 542 690 519 q 514 564 582 564 q 398 542 451 564 q 306 478 344 519 q 244 379 267 438 q 222 250 222 321 q 244 124 222 181 q 306 26 267 67 q 398 -37 344 -14 q 514 -60 451 -60 z "},"r":{"ha":664,"x_min":111,"x_max":636,"o":"m 244 543 q 339 623 276 596 q 476 650 401 650 l 636 650 l 613 536 l 440 536 q 367 519 401 536 q 306 474 332 503 q 265 406 281 444 q 250 322 250 367 l 250 -146 l 111 -146 l 111 650 l 236 650 l 244 543 z "},"s":{"ha":797,"x_min":71,"x_max":728,"o":"m 647 499 q 537 555 599 532 q 419 578 475 578 q 345 571 379 578 q 285 550 311 564 q 245 514 260 536 q 231 463 231 492 q 271 388 231 417 q 403 336 311 360 q 648 229 568 293 q 728 56 728 165 q 642 -122 728 -57 q 403 -187 557 -187 q 228 -159 311 -187 q 71 -79 146 -131 l 126 29 q 179 -8 150 10 q 242 -41 208 -26 q 310 -64 275 -56 q 382 -72 346 -72 q 460 -67 422 -72 q 526 -47 497 -61 q 572 -9 554 -33 q 589 51 589 15 q 574 111 589 86 q 534 154 560 136 q 473 185 508 172 q 396 211 438 199 q 270 253 326 231 q 174 304 214 275 q 113 373 135 333 q 92 468 92 413 q 114 565 92 524 q 176 635 136 607 q 273 677 217 663 q 396 692 329 692 q 567 665 496 692 q 692 603 639 639 l 647 499 z "},"t":{"ha":603,"x_min":42,"x_max":575,"o":"m 358 650 l 561 650 l 561 536 l 358 536 l 358 69 q 387 -4 358 24 q 472 -32 415 -32 l 575 -32 l 575 -146 l 407 -146 q 335 -131 369 -146 q 276 -89 301 -115 q 235 -26 250 -62 q 219 51 219 10 l 219 536 l 42 536 l 42 650 l 219 650 l 219 933 l 358 933 l 358 650 z "},"u":{"ha":993,"x_min":111,"x_max":896,"o":"m 761 -40 q 629 -142 706 -111 q 465 -174 553 -174 q 319 -149 385 -174 q 208 -78 254 -124 q 136 30 161 -33 q 111 169 111 93 l 111 650 l 250 650 l 250 207 q 501 -60 250 -60 q 588 -44 544 -60 q 669 1 632 -29 q 729 78 706 32 q 757 185 753 124 l 757 650 l 896 650 l 896 -146 l 771 -146 l 761 -40 z "},"v":{"ha":929,"x_min":54,"x_max":901,"o":"m 544 -146 l 411 -146 l 54 650 l 200 650 l 478 17 l 756 650 l 901 650 l 544 -146 z "},"w":{"ha":1239,"x_min":54,"x_max":1208,"o":"m 689 650 l 890 54 l 1076 650 l 1208 650 l 953 -146 l 835 -146 l 631 453 l 428 -146 l 310 -146 l 54 650 l 186 650 l 372 54 l 574 650 l 689 650 z "},"x":{"ha":910,"x_min":63,"x_max":879,"o":"m 240 650 l 471 363 l 701 650 l 865 650 l 553 260 l 879 -146 l 715 -146 l 471 158 l 226 -146 l 63 -146 l 389 260 l 76 650 l 240 650 z "},"y":{"ha":993,"x_min":111,"x_max":896,"o":"m 500 -422 q 612 -400 564 -422 q 692 -338 660 -378 q 740 -242 724 -299 q 757 -119 757 -186 l 757 -8 q 633 -110 708 -75 q 465 -146 557 -146 q 319 -122 385 -146 q 208 -53 254 -97 q 136 54 161 -8 q 111 193 111 117 l 111 650 l 250 650 l 250 249 q 312 35 250 103 q 501 -32 374 -32 q 594 -10 550 -32 q 674 47 639 11 q 731 126 708 82 q 757 218 753 171 l 757 650 l 896 650 l 896 -119 q 867 -292 894 -215 q 790 -423 839 -369 q 676 -506 742 -476 q 531 -535 610 -535 q 385 -517 454 -535 q 261 -460 315 -499 q 172 -362 207 -422 q 126 -218 136 -303 l 267 -218 q 286 -299 268 -261 q 335 -363 304 -336 q 408 -406 365 -390 q 500 -422 450 -422 z "},"z":{"ha":882,"x_min":83,"x_max":813,"o":"m 83 -146 l 83 -58 l 596 536 l 114 536 l 114 651 l 783 651 l 783 565 l 260 -32 l 813 -32 l 813 -146 l 83 -146 z "},"{":{"ha":583,"x_min":40,"x_max":556,"o":"m 200 394 q 313 319 281 375 q 346 178 346 263 l 346 61 q 361 -9 346 19 q 403 -56 376 -37 q 469 -84 431 -75 q 556 -96 508 -93 l 556 -214 q 297 -144 386 -212 q 207 31 207 -76 l 207 158 q 167 288 207 250 q 40 332 126 326 l 40 457 q 167 501 126 463 q 207 631 207 539 l 207 758 q 297 933 207 865 q 556 1003 386 1001 l 556 885 q 469 873 508 882 q 403 845 431 864 q 361 798 376 826 q 346 728 346 769 l 346 611 q 313 470 346 526 q 200 394 281 414 z "},"|":{"ha":333,"x_min":97,"x_max":236,"o":"m 236 975 l 236 -187 l 97 -187 l 97 975 l 236 975 z "},"}":{"ha":583,"x_min":40,"x_max":556,"o":"m 396 394 q 283 470 315 414 q 250 611 250 526 l 250 728 q 235 798 250 769 q 192 845 219 826 q 126 873 165 864 q 40 885 88 882 l 40 1003 q 299 933 210 1001 q 389 758 389 865 l 389 631 q 429 501 389 539 q 556 457 469 463 l 556 332 q 429 288 469 326 q 389 158 389 250 l 389 31 q 299 -144 389 -76 q 40 -214 210 -212 l 40 -96 q 126 -84 88 -93 q 192 -56 165 -75 q 235 -9 219 -37 q 250 61 250 19 l 250 178 q 283 319 250 263 q 396 394 315 375 z "},"~":{"ha":829,"x_min":111,"x_max":732,"o":"m 283 547 q 360 531 317 547 q 439 497 403 515 q 503 469 471 482 q 568 456 536 456 q 655 467 615 456 q 732 508 694 478 l 732 381 q 653 341 693 353 q 560 329 614 329 q 494 341 532 329 q 425 368 457 353 q 349 404 388 388 q 275 421 311 421 q 190 413 229 421 q 111 379 151 404 l 111 507 q 190 539 150 531 q 283 547 231 547 z "},"、":{"ha":1306,"x_min":89,"x_max":413,"o":"m 89 47 l 89 161 l 413 26 l 413 -162 l 89 47 z "},"。":{"ha":1306,"x_min":107,"x_max":429,"o":"m 429 0 q 417 -62 429 -33 q 385 -113 406 -92 q 334 -147 364 -135 q 268 -160 304 -160 q 205 -147 235 -160 q 153 -113 175 -135 q 119 -62 132 -92 q 107 0 107 -33 q 119 65 107 35 q 153 116 132 94 q 205 149 175 138 q 268 161 235 161 q 331 149 301 161 q 383 115 361 136 q 417 64 404 93 q 429 0 429 35 m 371 0 q 342 76 371 46 q 268 106 313 106 q 194 76 224 106 q 165 0 165 46 q 194 -75 165 -46 q 268 -104 224 -104 q 342 -74 313 -104 q 371 0 371 -44 z "},"·":{"ha":417,"x_min":119,"x_max":296,"o":"m 296 331 l 119 331 l 119 507 l 296 507 l 296 331 z "},"‥":{"ha":1111,"x_min":232,"x_max":879,"o":"m 403 333 l 232 333 l 232 504 l 403 504 l 403 333 m 879 333 l 708 333 l 708 504 l 879 504 l 879 333 z "},"…":{"ha":1111,"x_min":96,"x_max":1014,"o":"m 267 333 l 96 333 l 96 504 l 267 504 l 267 333 m 640 333 l 469 333 l 469 504 l 640 504 l 640 333 m 1014 333 l 843 333 l 843 504 l 1014 504 l 1014 333 z "},"¨":{"ha":722,"x_min":129,"x_max":594,"o":"m 292 761 l 129 761 l 129 924 l 292 924 l 292 761 m 594 761 l 432 761 l 432 924 l 594 924 l 594 761 z "},"〃":{"ha":1306,"x_min":393,"x_max":915,"o":"m 718 172 l 635 172 l 761 631 l 915 631 l 718 172 m 476 172 l 393 172 l 519 631 l 674 631 l 476 172 z "},"­":{"ha":694,"x_min":128,"x_max":567,"o":"m 128 481 l 567 481 l 567 363 l 128 363 l 128 481 z "},"＼":{"ha":1306,"x_min":174,"x_max":1126,"o":"m 1126 -147 l 1057 -199 l 174 976 l 242 1024 l 1126 -147 z "},"∼":{"ha":1306,"x_min":181,"x_max":1129,"o":"m 1129 443 q 982 354 1058 385 q 825 324 906 324 q 726 341 778 324 q 624 389 675 358 q 472 433 546 433 q 341 417 401 433 q 222 357 281 400 l 181 401 q 330 499 260 468 q 472 529 400 529 q 565 517 518 529 q 661 478 613 506 q 825 422 760 422 q 1085 493 969 422 l 1129 443 z "},"‘":{"ha":347,"x_min":94,"x_max":250,"o":"m 94 828 q 128 967 94 922 q 250 1024 161 1013 l 250 944 q 213 935 228 942 q 190 917 199 929 q 177 883 181 904 q 174 831 174 863 l 247 831 l 247 682 l 94 682 l 94 828 z "},"’":{"ha":347,"x_min":94,"x_max":250,"o":"m 250 878 q 217 738 250 783 q 94 682 183 693 l 94 761 q 154 789 138 767 q 171 875 171 811 l 97 875 l 97 1024 l 250 1024 l 250 878 z "},"“":{"ha":586,"x_min":96,"x_max":490,"o":"m 335 847 q 368 987 335 942 q 490 1043 401 1032 l 490 964 q 453 955 468 961 q 430 936 439 949 q 417 903 421 924 q 414 850 414 882 l 488 850 l 488 701 l 335 701 l 335 847 m 96 778 q 129 917 96 872 q 251 974 163 963 l 251 894 q 215 885 229 892 q 191 867 200 879 q 178 833 182 854 q 175 781 175 813 l 249 781 l 249 632 l 96 632 l 96 778 z "},"”":{"ha":586,"x_min":94,"x_max":489,"o":"m 250 813 q 217 673 250 718 q 94 617 183 628 l 94 696 q 154 724 138 701 q 171 810 171 746 l 97 810 l 97 958 l 250 958 l 250 813 m 489 882 q 456 742 489 788 q 333 686 422 697 l 333 765 q 393 793 376 771 q 410 879 410 815 l 336 879 l 336 1028 l 489 1028 l 489 882 z "},"〔":{"ha":694,"x_min":185,"x_max":546,"o":"m 544 -135 l 507 -226 l 185 -83 l 185 919 l 507 1061 l 546 969 l 301 857 l 301 -21 l 544 -135 z "},"〕":{"ha":694,"x_min":164,"x_max":525,"o":"m 408 -21 l 408 857 l 164 969 l 203 1061 l 525 919 l 525 -83 l 203 -226 l 165 -135 l 408 -21 z "},"〈":{"ha":764,"x_min":121,"x_max":679,"o":"m 254 417 l 679 -103 l 599 -165 l 121 417 l 599 999 l 676 933 l 254 417 z "},"〉":{"ha":764,"x_min":82,"x_max":640,"o":"m 85 933 l 163 999 l 640 417 l 163 -165 l 82 -103 l 507 417 l 85 933 z "},"《":{"ha":833,"x_min":121,"x_max":781,"o":"m 233 418 l 583 -119 l 501 -165 l 121 417 l 501 997 l 582 951 l 233 418 m 431 418 l 781 -119 l 699 -165 l 318 417 l 699 997 l 779 951 l 431 418 z "},"》":{"ha":833,"x_min":65,"x_max":725,"o":"m 264 951 l 344 997 l 725 417 l 344 -165 l 263 -119 l 611 418 l 264 951 m 67 951 l 147 997 l 528 417 l 147 -165 l 65 -119 l 414 418 l 67 951 z "},"「":{"ha":625,"x_min":135,"x_max":560,"o":"m 560 921 l 267 921 l 267 433 l 135 433 l 135 1032 l 560 1032 l 560 921 z "},"」":{"ha":625,"x_min":64,"x_max":489,"o":"m 64 -85 l 357 -85 l 357 415 l 489 415 l 489 -196 l 64 -196 l 64 -85 z "},"『":{"ha":625,"x_min":135,"x_max":560,"o":"m 560 840 l 340 840 l 340 433 l 135 433 l 135 1031 l 560 1031 l 560 840 m 472 918 l 472 951 l 222 951 l 222 511 l 251 511 l 251 918 l 472 918 z "},"』":{"ha":625,"x_min":65,"x_max":490,"o":"m 65 -7 l 285 -7 l 285 415 l 490 415 l 490 -197 l 65 -197 l 65 -7 m 153 -85 l 153 -118 l 403 -118 l 403 338 l 374 338 l 374 -85 l 153 -85 z "},"【":{"ha":639,"x_min":150,"x_max":596,"o":"m 150 -175 l 150 1010 l 594 1010 q 489 895 536 961 q 409 752 442 829 q 359 590 376 675 q 342 419 342 504 q 358 249 342 333 q 408 86 375 164 q 488 -58 440 8 q 596 -175 535 -125 l 150 -175 z "},"】":{"ha":639,"x_min":44,"x_max":490,"o":"m 44 -175 q 153 -58 106 -125 q 233 86 200 8 q 282 249 265 164 q 299 419 299 333 q 281 590 299 504 q 231 752 264 675 q 151 895 199 829 q 46 1010 104 961 l 490 1010 l 490 -175 l 44 -175 z "},"±":{"ha":917,"x_min":131,"x_max":786,"o":"m 522 600 l 786 600 l 786 482 l 522 482 l 522 213 l 394 213 l 394 482 l 131 482 l 131 600 l 394 600 l 394 868 l 522 868 l 522 600 m 132 -10 l 132 104 l 785 104 l 785 -10 l 132 -10 z "},"×":{"ha":792,"x_min":110,"x_max":681,"o":"m 110 190 l 317 408 l 110 628 l 190 708 l 394 492 l 600 708 l 681 628 l 474 408 l 681 190 l 600 110 l 394 326 l 190 110 l 110 190 z "},"÷":{"ha":928,"x_min":83,"x_max":803,"o":"m 443 169 q 502 144 476 169 q 528 85 528 118 q 502 26 528 51 q 443 0 476 0 q 384 26 410 0 q 358 85 358 51 q 384 144 358 118 q 443 169 410 169 m 83 476 l 803 476 l 803 363 l 83 363 l 83 476 m 443 860 q 502 834 476 860 q 528 775 528 808 q 502 716 528 742 q 443 690 476 690 q 384 716 410 690 q 358 775 358 742 q 384 834 358 808 q 443 860 410 860 z "},"≠":{"ha":1028,"x_min":111,"x_max":917,"o":"m 597 606 l 917 606 l 917 497 l 569 497 l 528 336 l 917 336 l 917 229 l 500 229 l 450 35 l 332 35 l 382 229 l 111 229 l 111 336 l 408 336 l 450 497 l 111 497 l 111 606 l 478 606 l 524 782 l 643 782 l 597 606 z "},"≤":{"ha":972,"x_min":118,"x_max":856,"o":"m 118 19 l 118 133 l 854 133 l 854 19 l 118 19 m 118 506 l 118 586 l 856 892 l 856 774 l 307 546 l 854 321 l 854 206 l 118 506 z "},"≥":{"ha":972,"x_min":118,"x_max":856,"o":"m 119 206 l 119 321 l 667 546 l 118 774 l 118 892 l 856 586 l 856 506 l 119 206 m 854 19 l 854 133 l 118 133 l 118 19 l 854 19 z "},"∞":{"ha":1111,"x_min":90,"x_max":1019,"o":"m 1019 454 q 1001 361 1019 404 q 952 286 983 318 q 878 236 921 254 q 786 218 836 218 q 657 253 717 218 q 556 360 597 289 q 460 255 515 288 q 322 222 404 222 q 230 240 272 222 q 156 290 188 258 q 108 365 125 322 q 90 458 90 408 q 108 551 90 508 q 159 626 126 594 q 235 675 192 657 q 331 693 279 693 q 453 660 397 693 q 554 551 510 626 q 655 660 596 626 q 785 693 714 693 q 879 675 836 693 q 953 625 922 657 q 1002 549 985 593 q 1019 454 1019 506 m 910 456 q 901 507 910 482 q 875 551 892 532 q 835 582 858 571 q 786 593 813 593 q 686 556 724 593 q 615 456 649 518 q 685 356 647 394 q 785 318 724 318 q 876 358 843 318 q 910 456 910 397 m 325 322 q 423 358 386 322 q 494 453 460 393 q 463 506 479 481 q 426 551 446 532 q 381 582 406 571 q 328 593 357 593 q 238 556 272 593 q 203 460 203 518 q 235 362 203 401 q 325 322 268 322 z "},"∴":{"ha":1306,"x_min":225,"x_max":1078,"o":"m 429 163 q 399 90 429 121 q 328 60 368 60 q 254 90 283 60 q 225 163 225 121 q 256 233 225 203 q 328 263 286 263 q 399 233 368 263 q 429 163 429 203 m 753 717 q 722 644 753 675 q 651 614 692 614 q 578 644 607 614 q 549 717 549 675 q 579 787 549 757 q 651 817 610 817 q 722 787 692 817 q 753 717 753 757 m 1078 163 q 1047 90 1078 121 q 976 60 1017 60 q 903 90 932 60 q 874 163 874 121 q 904 233 874 203 q 976 263 935 263 q 1047 233 1017 263 q 1078 163 1078 203 z "},"°":{"ha":583,"x_min":119,"x_max":463,"o":"m 463 863 q 449 797 463 828 q 412 742 435 765 q 358 706 389 719 q 292 692 326 692 q 226 706 257 692 q 171 742 194 719 q 133 797 147 765 q 119 863 119 828 q 133 928 119 897 q 171 983 147 960 q 226 1019 194 1006 q 292 1033 257 1033 q 358 1019 326 1033 q 412 983 389 1006 q 449 928 435 960 q 463 863 463 897 m 360 863 q 340 916 360 896 q 292 936 321 936 q 242 916 261 936 q 222 863 222 896 q 242 808 222 829 q 292 788 261 788 q 340 808 321 788 q 360 863 360 829 z "},"′":{"ha":472,"x_min":90,"x_max":403,"o":"m 200 642 l 90 642 l 231 989 l 403 989 l 200 642 z "},"″":{"ha":750,"x_min":90,"x_max":650,"o":"m 197 640 l 90 640 l 231 989 l 403 989 l 197 640 m 444 640 l 338 640 l 478 989 l 650 989 l 444 640 z "},"℃":{"ha":1381,"x_min":83,"x_max":1343,"o":"m 83 908 q 98 979 83 946 q 138 1038 113 1013 q 199 1077 164 1063 q 278 1092 235 1092 q 355 1077 319 1092 q 416 1038 390 1063 q 456 979 442 1013 q 471 908 471 946 q 456 837 471 871 q 416 778 442 803 q 355 738 390 753 q 278 722 319 722 q 199 737 235 722 q 137 776 163 751 q 97 835 111 801 q 83 908 83 869 m 278 822 q 339 847 314 822 q 364 908 364 872 q 339 969 364 944 q 278 994 314 994 q 217 969 242 994 q 192 908 192 944 q 217 847 192 872 q 278 822 242 822 m 319 367 q 362 578 319 479 q 478 749 404 676 q 653 865 551 822 q 871 907 754 907 q 1135 840 1014 907 q 1338 651 1257 772 l 1238 579 q 1084 734 1179 674 q 867 794 989 794 q 704 759 779 794 q 575 665 629 724 q 490 528 521 606 q 458 367 458 450 q 491 203 458 281 q 582 68 524 126 q 722 -25 640 10 q 900 -60 803 -60 q 1099 0 1013 -60 q 1246 158 1186 60 l 1343 82 q 1144 -105 1265 -36 q 871 -174 1024 -174 q 661 -134 761 -174 q 485 -23 561 -94 q 365 148 410 49 q 319 367 319 247 z "},"Å":{"ha":833,"x_min":17,"x_max":815,"o":"m 586 158 l 244 158 l 160 -60 l 17 -60 l 343 765 l 489 765 l 815 -60 l 672 -60 l 586 158 m 544 953 q 534 903 544 926 q 506 862 524 879 q 465 834 488 844 q 415 824 442 824 q 365 834 389 824 q 324 862 342 844 q 295 903 306 879 q 285 953 285 926 q 296 1003 285 979 q 325 1044 307 1026 q 367 1072 343 1061 q 415 1082 390 1082 q 465 1072 442 1082 q 506 1044 488 1061 q 534 1003 524 1026 q 544 953 544 979 m 288 271 l 542 271 l 415 596 l 288 271 m 456 953 q 444 985 456 974 q 415 996 432 996 q 386 985 399 996 q 374 953 374 974 q 386 921 374 932 q 415 910 399 910 q 444 921 432 910 q 456 953 456 932 z "},"￠":{"ha":667,"x_min":56,"x_max":611,"o":"m 324 -60 l 324 60 q 212 106 261 74 q 128 187 163 139 q 74 295 93 235 q 56 425 56 356 q 76 560 56 499 q 132 667 96 621 q 217 744 168 714 q 324 789 265 775 l 324 911 l 440 911 l 440 800 q 608 760 521 796 l 576 646 q 510 671 544 663 q 440 681 475 679 l 440 174 q 513 183 476 175 q 586 210 550 192 l 611 96 q 440 53 522 60 l 440 -60 l 324 -60 m 199 432 q 233 283 199 340 q 324 199 267 226 l 324 654 q 234 572 269 626 q 199 432 199 517 z "},"￡":{"ha":750,"x_min":61,"x_max":689,"o":"m 343 351 q 326 199 343 275 q 268 65 310 124 l 689 65 l 689 -60 l 61 -60 l 61 47 q 132 101 106 68 q 172 175 158 135 q 190 260 185 215 q 194 351 194 306 l 68 351 l 68 476 l 194 476 l 194 615 q 216 750 194 692 q 277 849 238 808 q 372 910 317 889 q 497 931 428 931 q 602 917 560 931 q 672 885 644 903 l 636 765 q 578 794 611 782 q 497 806 544 806 q 376 759 408 806 q 343 625 343 713 l 343 476 l 592 476 l 592 351 l 343 351 z "},"￥":{"ha":833,"x_min":11,"x_max":822,"o":"m 489 142 l 489 -61 l 340 -61 l 340 142 l 99 142 l 99 256 l 340 256 l 340 353 l 99 353 l 99 467 l 282 467 l 11 932 l 172 932 l 415 493 l 664 932 l 822 932 l 547 467 l 735 467 l 735 353 l 489 353 l 489 256 l 735 256 l 735 142 l 489 142 z "},"♂":{"ha":875,"x_min":119,"x_max":754,"o":"m 754 142 q 729 16 754 74 q 660 -84 704 -42 q 559 -150 617 -126 q 436 -174 501 -174 q 315 -149 372 -174 q 214 -83 257 -125 q 146 17 171 -40 q 121 142 121 75 q 140 252 121 200 q 193 345 160 304 q 273 413 226 386 q 374 450 319 440 l 374 782 l 203 589 l 119 661 l 436 1017 l 731 657 l 647 575 l 494 771 l 494 451 q 596 415 549 442 q 678 347 643 388 q 734 254 714 307 q 754 142 754 201 m 632 143 q 617 222 632 185 q 575 285 601 258 q 513 326 549 311 q 438 342 478 342 q 363 326 397 342 q 301 285 328 311 q 258 222 274 258 q 243 143 243 186 q 258 62 243 99 q 301 -1 274 25 q 363 -42 328 -28 q 438 -57 397 -57 q 513 -42 478 -57 q 575 1 549 -26 q 617 64 601 28 q 632 143 632 100 z "},"♀":{"ha":875,"x_min":121,"x_max":753,"o":"m 753 689 q 733 579 753 631 q 678 487 713 528 q 597 418 643 446 q 497 379 550 390 l 497 219 l 746 219 l 746 103 l 497 103 l 497 -169 l 378 -169 l 378 103 l 131 103 l 131 219 l 378 219 l 378 379 q 277 415 324 388 q 196 484 231 443 q 141 578 161 525 q 121 689 121 631 q 146 813 121 756 q 213 913 171 871 q 313 980 256 956 q 436 1004 371 1004 q 559 980 501 1004 q 660 913 617 956 q 728 813 703 869 q 753 689 753 756 m 632 689 q 617 768 632 732 q 575 831 601 804 q 513 874 549 858 q 436 889 478 889 q 360 874 396 889 q 299 833 325 860 q 257 770 272 807 q 242 689 242 733 q 257 606 242 643 q 299 543 272 569 q 360 503 325 517 q 436 489 396 489 q 514 503 478 489 q 576 544 550 518 q 617 608 601 571 q 632 689 632 644 z "},"∠":{"ha":1111,"x_min":129,"x_max":988,"o":"m 129 -32 l 129 40 l 783 821 l 875 753 l 308 81 l 988 81 l 988 -32 l 129 -32 z "},"⊥":{"ha":1111,"x_min":99,"x_max":1011,"o":"m 488 82 l 488 783 l 622 783 l 622 82 l 1011 82 l 1011 -32 l 99 -32 l 99 82 l 488 82 z "},"⌒":{"ha":750,"x_min":86,"x_max":663,"o":"m 375 940 q 275 913 317 940 q 214 826 233 886 l 86 826 q 191 990 115 933 q 375 1046 267 1046 q 558 990 483 1046 q 663 828 633 935 l 536 828 q 475 914 517 888 q 375 940 433 940 z "},"∂":{"ha":833,"x_min":82,"x_max":750,"o":"m 154 849 q 263 883 214 872 q 361 894 311 894 q 526 857 454 894 q 649 753 599 819 q 724 599 699 688 q 750 408 750 510 q 722 199 750 293 q 642 39 693 106 q 519 -64 590 -28 q 364 -100 449 -100 q 240 -76 293 -100 q 152 -10 188 -51 q 99 87 117 32 q 82 204 82 142 q 107 356 82 288 q 176 472 132 424 q 278 547 219 521 q 407 574 338 574 q 520 552 463 574 q 622 471 578 531 q 590 595 611 539 q 534 690 568 651 q 453 751 500 729 q 344 772 406 772 q 276 766 311 772 q 189 739 240 760 l 154 849 m 372 18 q 459 39 419 18 q 527 96 499 60 q 574 183 556 132 q 599 292 592 233 q 599 320 601 307 q 592 344 596 333 q 530 428 572 397 q 435 458 488 458 q 292 401 343 458 q 229 242 240 344 q 228 165 225 204 q 247 92 232 125 q 292 39 263 60 q 372 18 322 18 z "},"∇":{"ha":1306,"x_min":151,"x_max":1154,"o":"m 151 824 l 1154 824 l 657 -60 l 151 824 m 1014 751 l 372 751 l 703 176 l 1014 751 z "},"≡":{"ha":1167,"x_min":179,"x_max":986,"o":"m 179 585 l 179 696 l 986 696 l 986 585 l 179 585 m 179 364 l 179 475 l 986 475 l 986 364 l 179 364 m 179 143 l 179 254 l 986 254 l 986 143 l 179 143 z "},"≒":{"ha":1028,"x_min":111,"x_max":917,"o":"m 917 483 l 111 483 l 111 592 l 917 592 l 917 483 m 917 243 l 111 243 l 111 350 l 917 350 l 917 243 m 378 767 q 351 701 378 728 q 285 675 324 675 q 219 701 246 675 q 193 767 193 728 q 219 833 193 806 q 285 860 246 860 q 351 833 324 860 q 378 767 378 806 m 833 67 q 806 1 833 28 q 740 -25 779 -25 q 675 1 701 -25 q 649 67 649 28 q 675 133 649 106 q 740 160 701 160 q 806 133 779 160 q 833 67 833 106 z "},"§":{"ha":625,"x_min":74,"x_max":551,"o":"m 111 85 q 144 65 125 75 q 187 47 164 56 q 234 34 210 39 q 282 29 258 29 q 380 52 344 29 q 415 117 415 75 q 383 191 415 161 q 283 246 350 221 q 138 340 185 283 q 92 461 92 397 q 115 558 92 517 q 190 626 139 600 q 116 703 140 660 q 92 792 92 746 q 159 940 92 888 q 342 992 226 992 q 518 944 454 992 l 483 835 q 423 865 460 851 q 339 879 386 879 q 256 860 286 879 q 225 800 225 840 q 258 732 225 757 q 360 681 290 707 q 501 590 451 644 q 550 453 550 536 q 461 289 550 344 q 527 216 503 257 q 551 122 551 175 q 531 33 551 72 q 475 -31 511 -6 q 389 -71 439 -57 q 279 -85 339 -85 q 165 -69 217 -85 q 74 -25 114 -53 l 111 85 m 421 447 q 390 519 421 492 q 293 571 358 546 q 242 528 261 556 q 222 469 222 501 q 256 399 222 426 q 360 349 289 372 l 364 347 q 406 392 392 364 q 421 447 421 421 z "},"※":{"ha":1229,"x_min":56,"x_max":1154,"o":"m 129 -25 l 536 414 l 129 853 l 210 933 l 614 497 l 1018 933 l 1099 853 l 692 414 l 1099 -25 l 1018 -106 l 614 329 l 210 -106 l 129 -25 m 614 6 q 673 -20 647 6 q 699 -79 699 -46 q 673 -138 699 -112 q 614 -164 647 -164 q 555 -138 581 -164 q 529 -79 529 -112 q 555 -20 529 -46 q 614 6 581 6 m 1069 493 q 1128 467 1103 493 q 1154 408 1154 442 q 1128 349 1154 375 q 1069 324 1103 324 q 1010 349 1036 324 q 985 408 985 375 q 1010 467 985 442 q 1069 493 1036 493 m 140 493 q 199 467 174 493 q 225 408 225 442 q 199 349 225 375 q 140 324 174 324 q 81 349 107 324 q 56 408 56 375 q 81 467 56 442 q 140 493 107 493 m 614 994 q 673 969 647 994 q 699 910 699 943 q 673 851 699 876 q 614 825 647 825 q 555 851 581 825 q 529 910 529 876 q 555 969 529 943 q 614 994 581 994 z "},"☆":{"ha":1306,"x_min":68,"x_max":1236,"o":"m 878 349 l 1031 -89 l 649 189 l 275 -81 l 418 354 l 68 618 l 507 618 l 650 1029 l 794 618 l 1236 618 l 878 349 m 731 554 l 651 801 l 569 554 l 276 554 l 511 372 l 410 101 l 647 279 l 888 101 l 785 371 l 1026 554 l 731 554 z "},"★":{"ha":1306,"x_min":68,"x_max":1236,"o":"m 878 349 l 1031 -89 l 649 189 l 275 -81 l 418 354 l 68 618 l 507 618 l 650 1029 l 794 618 l 1236 618 l 878 349 z "},"○":{"ha":1306,"x_min":97,"x_max":1211,"o":"m 1211 417 q 1167 199 1211 300 q 1049 22 1124 97 q 872 -97 974 -54 q 653 -140 769 -140 q 442 -99 542 -140 q 265 16 342 -58 q 142 192 188 90 q 97 417 97 294 q 140 635 97 533 q 258 811 183 736 q 435 929 333 886 q 653 972 536 972 q 865 931 764 972 q 1044 817 967 890 q 1166 642 1121 744 q 1211 417 1211 539 m 1115 417 q 1080 599 1115 514 q 982 748 1044 685 q 835 848 919 811 q 653 885 750 885 q 476 850 560 885 q 330 753 393 815 q 230 606 267 692 q 193 417 193 519 q 228 234 193 319 q 325 85 264 149 q 470 -15 386 22 q 653 -51 554 -51 q 830 -17 746 -51 q 977 80 914 18 q 1078 228 1040 142 q 1115 417 1115 314 z "},"●":{"ha":1306,"x_min":97,"x_max":1211,"o":"m 1211 417 q 1167 199 1211 300 q 1049 22 1124 97 q 872 -97 974 -54 q 653 -140 769 -140 q 442 -99 542 -140 q 265 16 342 -58 q 142 192 188 90 q 97 417 97 294 q 140 635 97 533 q 258 811 183 736 q 435 929 333 886 q 653 972 536 972 q 865 931 764 972 q 1044 817 967 890 q 1166 642 1121 744 q 1211 417 1211 539 z "},"◎":{"ha":1306,"x_min":97,"x_max":1211,"o":"m 1007 417 q 979 278 1007 342 q 903 166 951 214 q 791 91 856 118 q 653 64 726 64 q 519 90 583 64 q 407 163 456 115 q 330 274 358 210 q 301 417 301 339 q 328 554 301 490 q 403 666 356 618 q 515 741 451 714 q 653 768 579 768 q 786 742 722 768 q 899 670 850 717 q 978 559 949 624 q 1007 417 1007 494 m 915 417 q 896 522 915 472 q 841 607 876 571 q 758 664 806 643 q 653 685 710 685 q 551 665 599 685 q 469 610 504 646 q 413 526 433 575 q 393 417 393 476 q 413 311 393 360 q 467 226 432 263 q 549 169 501 190 q 653 149 596 149 q 755 168 707 149 q 838 223 803 188 q 894 308 874 258 q 915 417 915 357 m 1211 417 q 1167 199 1211 300 q 1049 22 1124 97 q 872 -97 974 -54 q 653 -140 769 -140 q 442 -99 542 -140 q 265 16 342 -58 q 142 192 188 90 q 97 417 97 294 q 140 635 97 533 q 258 811 183 736 q 435 929 333 886 q 653 972 536 972 q 865 931 764 972 q 1044 817 967 890 q 1166 642 1121 744 q 1211 417 1211 539 m 1115 417 q 1080 599 1115 514 q 982 748 1044 685 q 835 848 919 811 q 653 885 750 885 q 476 850 560 885 q 330 753 393 815 q 230 606 267 692 q 193 417 193 519 q 228 234 193 319 q 325 85 264 149 q 470 -15 386 22 q 653 -51 554 -51 q 830 -17 746 -51 q 977 80 914 18 q 1078 228 1040 142 q 1115 417 1115 314 z "},"◇":{"ha":1306,"x_min":32,"x_max":1272,"o":"m 651 -194 l 32 422 l 651 1039 l 1272 422 l 651 -194 m 1154 422 l 651 925 l 150 422 l 651 -79 l 1154 422 z "},"◆":{"ha":1306,"x_min":32,"x_max":1272,"o":"m 651 -194 l 32 422 l 651 1039 l 1272 422 l 651 -194 z "},"□":{"ha":1306,"x_min":128,"x_max":1178,"o":"m 128 -106 l 128 944 l 1178 944 l 1178 -106 l 128 -106 m 1090 863 l 214 863 l 214 -24 l 1090 -24 l 1090 863 z "},"■":{"ha":1306,"x_min":128,"x_max":1178,"o":"m 128 -106 l 128 944 l 1178 944 l 1178 -106 l 128 -106 z "},"△":{"ha":1306,"x_min":93,"x_max":1211,"o":"m 657 881 l 1211 -4 l 93 -4 l 657 881 m 657 728 l 236 69 l 1067 69 l 657 728 z "},"▲":{"ha":1306,"x_min":93,"x_max":1211,"o":"m 657 881 l 1211 -4 l 93 -4 l 657 881 z "},"▽":{"ha":1306,"x_min":93,"x_max":1211,"o":"m 93 825 l 1211 825 l 657 -60 l 93 825 m 1067 751 l 236 751 l 657 93 l 1067 751 z "},"▼":{"ha":1306,"x_min":93,"x_max":1211,"o":"m 93 825 l 1211 825 l 657 -60 l 93 825 z "},"→":{"ha":1306,"x_min":11,"x_max":1294,"o":"m 892 167 l 892 361 l 11 361 l 11 472 l 892 472 l 892 667 l 1294 417 l 892 167 z "},"←":{"ha":1306,"x_min":11,"x_max":1294,"o":"m 11 417 l 414 667 l 414 472 l 1294 472 l 1294 361 l 414 361 l 414 167 l 11 417 z "},"↑":{"ha":1111,"x_min":304,"x_max":807,"o":"m 618 646 l 618 -208 l 492 -208 l 492 646 l 304 646 l 556 1047 l 807 646 l 618 646 z "},"↓":{"ha":1111,"x_min":304,"x_max":807,"o":"m 807 192 l 556 -210 l 304 192 l 492 192 l 492 1046 l 618 1046 l 618 192 l 807 192 z "},"↔":{"ha":1306,"x_min":31,"x_max":1299,"o":"m 433 361 l 433 167 l 31 417 l 433 667 l 433 472 l 896 472 l 896 667 l 1299 417 l 896 167 l 896 361 l 433 361 z "},"〓":{"ha":1306,"x_min":68,"x_max":1238,"o":"m 68 519 l 68 628 l 1238 628 l 1238 519 l 68 519 m 68 188 l 68 296 l 1238 296 l 1238 188 l 68 188 z "},"≪":{"ha":1306,"x_min":135,"x_max":1178,"o":"m 885 24 l 828 -61 l 135 417 l 817 910 l 876 826 l 313 417 l 885 24 m 1178 24 l 1121 -61 l 428 417 l 1110 910 l 1169 826 l 606 417 l 1178 24 z "},"≫":{"ha":1306,"x_min":126,"x_max":1171,"o":"m 993 417 l 429 826 l 489 910 l 1171 417 l 478 -61 l 421 24 l 993 417 m 699 417 l 135 826 l 194 910 l 876 417 l 183 -61 l 126 24 l 699 417 z "},"√":{"ha":722,"x_min":13,"x_max":756,"o":"m 517 -256 l 475 -256 l 179 389 l 61 313 l 13 393 l 238 531 l 460 39 l 639 1067 l 756 1067 l 517 -256 z "},"∽":{"ha":1306,"x_min":94,"x_max":1208,"o":"m 1208 415 q 1187 303 1208 356 q 1127 213 1165 251 q 1038 153 1089 175 q 926 131 986 131 q 849 143 890 131 q 760 189 808 156 l 818 278 q 876 250 847 258 q 926 242 906 242 q 990 256 961 242 q 1039 293 1018 269 q 1071 348 1060 317 q 1082 415 1082 379 q 1071 478 1082 449 q 1039 530 1060 508 q 990 565 1018 551 q 926 578 961 578 q 858 565 888 578 q 803 527 828 551 q 756 469 778 503 q 711 393 733 435 q 648 284 678 332 q 581 203 618 236 q 495 151 543 169 q 379 131 447 132 q 261 149 314 129 q 172 205 208 168 q 115 295 135 242 q 94 415 94 349 q 117 529 94 478 q 178 616 140 581 q 269 671 217 651 q 379 690 321 690 q 463 680 419 690 q 547 646 506 669 l 494 546 q 426 574 454 569 q 378 579 397 579 q 264 534 308 579 q 219 417 219 489 q 231 347 219 379 q 264 292 243 315 q 314 258 285 269 q 378 247 343 246 q 453 263 421 249 q 509 301 485 276 q 554 361 533 326 q 597 440 575 396 q 661 549 629 501 q 731 627 693 596 q 816 674 768 658 q 926 690 864 690 q 1042 669 990 690 q 1131 611 1094 649 q 1188 524 1168 574 q 1208 415 1208 474 z "},"∝":{"ha":1306,"x_min":160,"x_max":1154,"o":"m 1151 193 q 1064 147 1107 161 q 968 133 1021 133 q 888 147 925 133 q 818 185 850 161 q 760 240 786 208 q 713 307 733 271 q 588 175 657 217 q 435 133 518 133 q 326 156 376 133 q 239 218 276 179 q 181 308 201 257 q 160 417 160 360 q 179 529 160 476 q 235 621 199 582 q 322 682 271 660 q 435 704 372 704 q 590 666 522 704 q 713 536 657 628 q 826 660 765 618 q 969 703 886 703 q 1154 646 1072 703 l 1097 543 q 1031 576 1061 567 q 967 586 1000 586 q 907 573 933 586 q 859 537 881 560 q 819 484 838 514 q 783 422 801 454 q 815 364 797 394 q 857 308 833 333 q 909 267 881 283 q 972 250 938 250 q 1027 258 1001 250 q 1094 296 1053 265 l 1151 193 m 435 249 q 499 261 471 249 q 552 296 528 274 q 597 350 576 318 q 639 421 618 382 q 599 486 621 456 q 553 540 578 517 q 499 576 528 563 q 435 590 469 590 q 372 576 400 590 q 326 539 344 563 q 297 483 307 515 q 288 417 288 451 q 299 355 288 385 q 329 301 310 325 q 376 263 349 278 q 435 249 403 249 z "},"∵":{"ha":1306,"x_min":222,"x_max":1082,"o":"m 754 161 q 746 122 754 140 q 724 90 738 104 q 690 68 710 76 q 650 60 671 60 q 610 68 629 60 q 576 90 590 76 q 554 122 563 104 q 546 161 546 140 q 576 233 546 203 q 650 264 607 264 q 724 233 693 264 q 754 161 754 203 m 1082 715 q 1051 645 1082 675 q 978 615 1021 615 q 938 624 957 615 q 903 645 918 632 q 881 676 889 658 q 872 715 872 694 q 904 788 872 757 q 978 818 936 818 q 1051 789 1021 818 q 1082 715 1082 760 m 432 715 q 401 645 432 675 q 328 615 369 615 q 288 624 307 615 q 253 645 268 632 q 231 676 239 658 q 222 715 222 694 q 252 788 222 757 q 328 818 282 818 q 401 788 369 818 q 432 715 432 757 z "},"∫":{"ha":611,"x_min":90,"x_max":519,"o":"m 389 18 q 349 -131 393 -75 q 204 -187 306 -187 q 153 -185 179 -187 q 90 -171 126 -182 l 90 -56 q 144 -69 124 -67 q 179 -72 164 -72 q 243 -45 224 -72 q 260 18 263 -18 l 222 815 q 260 965 218 908 q 404 1021 303 1021 q 455 1017 428 1021 q 519 1004 482 1014 l 519 889 q 465 902 486 899 q 429 906 444 906 q 365 878 381 906 q 351 815 349 851 l 389 18 z "},"∬":{"ha":944,"x_min":85,"x_max":857,"o":"m 732 18 q 692 -131 736 -75 q 547 -187 649 -187 q 496 -185 522 -187 q 433 -171 469 -182 l 433 -56 q 487 -69 467 -67 q 522 -72 507 -72 q 586 -45 567 -72 q 603 18 606 -18 l 565 815 q 603 965 561 908 q 747 1021 646 1021 q 795 1017 771 1021 q 857 1004 819 1014 l 857 889 q 806 902 824 899 q 772 906 788 906 q 708 878 724 906 q 694 815 692 851 l 732 18 m 383 18 q 344 -131 388 -75 q 199 -187 300 -187 q 147 -185 174 -187 q 85 -171 121 -182 l 85 -56 q 138 -69 118 -67 q 174 -72 158 -72 q 238 -45 218 -72 q 254 18 257 -18 l 217 815 q 255 965 213 908 q 399 1021 297 1021 q 447 1017 422 1021 q 508 1004 471 1014 l 508 889 q 457 902 475 899 q 424 906 439 906 q 359 878 375 906 q 346 815 343 851 l 383 18 z "},"∈":{"ha":1306,"x_min":171,"x_max":1135,"o":"m 518 15 q 370 47 435 15 q 261 134 306 79 q 194 262 217 189 q 171 417 171 335 q 197 569 171 499 q 269 690 222 639 q 382 771 317 742 q 525 800 447 800 l 1135 800 l 1135 685 l 522 685 q 440 667 478 685 q 372 620 401 650 q 325 551 343 590 q 303 467 307 511 l 1135 467 l 1135 350 l 303 350 q 325 264 307 304 q 372 194 343 224 q 438 147 400 164 q 517 131 475 131 l 1135 131 l 1135 15 l 518 15 z "},"∋":{"ha":1306,"x_min":171,"x_max":1135,"o":"m 171 15 l 171 131 l 789 131 q 868 147 831 131 q 934 194 906 164 q 981 264 963 224 q 1003 350 999 304 l 171 350 l 171 467 l 1003 467 q 981 551 999 511 q 933 620 963 590 q 865 667 904 650 q 783 685 826 685 l 171 685 l 171 800 l 781 800 q 924 771 858 800 q 1035 690 989 742 q 1108 569 1082 639 q 1135 417 1135 499 q 1112 262 1135 335 q 1044 134 1089 189 q 935 47 1000 79 q 788 15 871 15 l 171 15 z "},"⊆":{"ha":1306,"x_min":164,"x_max":1128,"o":"m 472 200 q 344 222 401 200 q 247 285 286 244 q 185 381 207 325 q 164 507 164 438 q 188 630 164 575 q 255 723 213 685 q 356 782 297 761 q 482 803 414 803 l 1126 803 l 1126 686 l 479 686 q 341 637 393 686 q 289 501 289 588 q 340 367 289 419 q 472 315 390 315 l 1126 315 l 1126 200 l 472 200 m 179 -31 l 179 85 l 1128 85 l 1128 -31 l 179 -31 z "},"⊇":{"ha":1306,"x_min":164,"x_max":1128,"o":"m 165 200 l 165 315 l 819 315 q 952 367 901 315 q 1003 501 1003 419 q 951 637 1003 588 q 813 686 899 686 l 165 686 l 165 803 l 810 803 q 936 782 878 803 q 1037 723 994 761 q 1103 630 1079 685 q 1128 507 1128 575 q 1106 381 1128 438 q 1045 285 1085 325 q 948 222 1006 244 q 819 200 890 200 l 165 200 m 1113 -31 l 1113 85 l 164 85 l 164 -31 l 1113 -31 z "},"⊂":{"ha":1306,"x_min":171,"x_max":1135,"o":"m 525 15 q 373 47 439 15 q 263 134 307 79 q 194 262 218 189 q 171 417 171 335 q 197 569 171 499 q 272 690 224 639 q 385 771 319 742 q 532 800 451 800 l 1135 800 l 1135 685 l 529 685 q 441 667 482 685 q 369 614 400 649 q 319 529 338 579 q 301 417 301 479 q 319 292 301 346 q 368 202 338 238 q 439 149 399 167 q 524 131 479 131 l 1135 131 l 1135 15 l 525 15 z "},"⊃":{"ha":1306,"x_min":172,"x_max":1136,"o":"m 172 15 l 172 131 l 783 131 q 868 149 828 131 q 939 202 908 167 q 988 292 969 238 q 1006 417 1006 346 q 988 529 1006 479 q 938 614 969 579 q 866 667 907 649 q 778 685 825 685 l 172 685 l 172 800 l 775 800 q 922 771 856 800 q 1035 690 988 742 q 1110 569 1083 639 q 1136 417 1136 499 q 1113 262 1136 335 q 1044 134 1089 189 q 933 47 1000 79 q 782 15 867 15 l 172 15 z "},"∪":{"ha":1111,"x_min":174,"x_max":936,"o":"m 936 311 q 906 160 936 228 q 825 42 876 92 q 704 -34 774 -7 q 556 -61 635 -61 q 399 -34 469 -61 q 279 43 329 -7 q 201 162 229 93 q 174 314 174 231 l 174 907 l 303 907 l 303 326 q 367 127 303 200 q 556 54 431 54 q 743 130 679 54 q 807 329 807 206 l 807 907 l 936 907 l 936 311 l 936 311 z "},"∩":{"ha":1111,"x_min":174,"x_max":936,"o":"m 936 535 l 936 -61 l 807 -61 l 807 517 q 743 716 807 640 q 556 792 679 792 q 367 719 431 792 q 303 519 303 646 l 303 -61 l 174 -61 l 174 532 q 201 684 174 615 q 279 803 229 753 q 399 880 329 853 q 556 907 469 907 q 704 880 635 907 q 825 803 774 853 q 906 686 876 754 q 936 535 936 618 z "},"∧":{"ha":1306,"x_min":182,"x_max":1122,"o":"m 1122 -32 l 986 -32 l 653 649 l 318 -32 l 182 -32 l 654 900 l 1122 -32 z "},"∨":{"ha":1306,"x_min":182,"x_max":1122,"o":"m 654 -60 l 182 872 l 318 872 l 653 192 l 986 872 l 1122 872 l 654 -60 z "},"￢":{"ha":1306,"x_min":40,"x_max":1264,"o":"m 1264 -232 l 1128 -232 l 1128 113 l 40 113 l 40 228 l 1264 228 l 1264 -232 z "},"⇒":{"ha":1306,"x_min":47,"x_max":1274,"o":"m 938 224 l 47 224 l 47 329 l 1042 329 l 1128 417 l 1039 506 l 47 506 l 47 610 l 936 610 l 806 742 l 876 818 l 1274 417 l 876 13 l 806 90 l 938 224 z "},"⇔":{"ha":1306,"x_min":33,"x_max":1274,"o":"m 938 224 l 369 224 l 501 90 l 431 13 l 33 417 l 431 818 l 501 742 l 371 610 l 936 610 l 806 742 l 876 818 l 1274 417 l 876 13 l 806 90 l 938 224 m 263 332 l 1042 329 l 1128 417 l 1039 506 l 267 506 l 179 417 l 263 332 z "},"∀":{"ha":833,"x_min":18,"x_max":815,"o":"m 158 932 l 238 681 l 586 681 l 664 932 l 815 932 l 486 -60 l 346 -60 l 18 932 l 158 932 m 414 124 l 551 568 l 274 568 l 414 124 z "},"∃":{"ha":778,"x_min":60,"x_max":672,"o":"m 104 390 l 104 513 l 526 513 l 526 808 l 82 808 l 82 932 l 672 932 l 672 -60 l 60 -60 l 60 64 l 526 64 l 526 390 l 104 390 z "},"´":{"ha":556,"x_min":139,"x_max":438,"o":"m 269 1044 l 438 1044 l 264 829 l 139 829 l 269 1044 z "},"ˇ":{"ha":500,"x_min":53,"x_max":444,"o":"m 308 829 l 189 829 l 53 1044 l 178 1044 l 249 924 l 321 1044 l 444 1044 l 308 829 z "},"˘":{"ha":521,"x_min":85,"x_max":440,"o":"m 440 1044 q 388 917 433 961 q 263 872 342 872 q 138 915 185 872 q 85 1044 92 957 l 203 1044 q 263 964 210 964 q 322 1044 319 964 l 440 1044 z "},"˝":{"ha":611,"x_min":44,"x_max":549,"o":"m 174 1044 l 344 1044 l 172 829 l 44 829 l 174 1044 m 379 1044 l 549 1044 l 375 829 l 250 829 l 379 1044 z "},"˚":{"ha":417,"x_min":75,"x_max":340,"o":"m 340 939 q 304 844 340 882 q 208 806 268 806 q 113 844 150 806 q 75 939 75 882 q 113 1034 75 997 q 208 1071 150 1071 q 302 1033 264 1071 q 340 939 340 994 m 247 938 q 236 967 247 957 q 208 978 225 978 q 169 938 169 978 q 208 899 169 899 q 236 908 225 899 q 247 938 247 918 z "},"˙":{"ha":417,"x_min":133,"x_max":283,"o":"m 133 899 l 133 1050 l 283 1050 l 283 899 l 133 899 z "},"¸":{"ha":417,"x_min":78,"x_max":338,"o":"m 275 -15 l 254 -65 q 313 -103 289 -75 q 338 -171 338 -131 q 326 -223 338 -203 q 294 -255 314 -243 q 248 -272 275 -267 q 190 -276 221 -276 q 127 -271 154 -276 q 78 -251 100 -265 l 107 -169 q 151 -187 131 -185 q 186 -190 171 -190 q 213 -186 206 -190 q 219 -167 219 -182 q 194 -132 219 -143 q 118 -117 168 -121 l 172 8 l 275 -15 z "},"˛":{"ha":417,"x_min":81,"x_max":335,"o":"m 283 -75 q 215 -108 239 -82 q 193 -164 190 -133 q 208 -188 194 -183 q 239 -193 221 -193 q 310 -175 281 -193 l 335 -236 q 208 -275 279 -275 q 118 -249 156 -275 q 81 -165 81 -224 q 92 -112 81 -140 q 126 -61 104 -85 q 181 -20 149 -37 q 256 3 214 -3 l 283 -75 z "},"¡":{"ha":333,"x_min":86,"x_max":246,"o":"m 235 394 l 246 -301 l 86 -301 l 96 394 l 235 394 m 239 682 l 239 529 l 88 529 l 88 682 l 239 682 z "},"¿":{"ha":611,"x_min":54,"x_max":569,"o":"m 394 371 q 391 300 394 333 q 378 237 388 267 q 351 177 368 207 q 307 115 333 147 q 228 13 257 57 q 200 -76 200 -31 q 231 -157 200 -128 q 318 -186 261 -186 q 496 -90 418 -186 l 569 -187 q 447 -280 511 -251 q 306 -308 382 -308 q 194 -290 242 -308 q 116 -242 147 -272 q 69 -173 85 -211 q 54 -93 54 -135 q 91 43 54 -15 q 186 164 128 101 q 226 215 211 190 q 249 263 240 239 q 259 314 257 288 q 261 372 261 340 l 261 425 l 394 425 l 394 371 m 403 682 l 403 529 l 251 529 l 251 682 l 403 682 z "},"ː":{"ha":417,"x_min":75,"x_max":342,"o":"m 211 319 l 75 92 l 342 92 l 211 319 m 211 513 l 75 740 l 342 740 l 211 513 z "},"∮":{"ha":833,"x_min":115,"x_max":715,"o":"m 506 657 q 642 576 589 636 q 694 419 694 515 q 676 320 694 364 q 626 245 658 276 q 551 196 594 214 q 457 172 507 178 l 442 17 q 423 -65 438 -28 q 382 -129 408 -101 q 317 -172 356 -157 q 228 -187 279 -187 q 176 -183 203 -187 q 115 -168 150 -179 l 132 -53 q 178 -68 156 -64 q 217 -72 201 -72 q 282 -47 258 -72 q 310 19 306 -21 l 326 182 q 194 264 246 204 q 143 419 143 324 q 160 517 143 474 q 209 591 178 560 q 283 641 240 622 q 375 665 325 660 l 390 817 q 409 897 394 860 q 450 963 424 935 q 514 1006 476 990 q 604 1021 551 1021 q 653 1017 628 1021 q 715 1003 679 1013 l 699 888 q 649 901 667 897 q 615 906 631 906 q 549 880 572 906 q 522 814 526 854 l 506 657 m 569 419 q 550 496 569 464 q 494 543 531 528 l 468 286 q 543 333 517 299 q 569 419 569 367 m 268 421 q 287 345 268 376 q 338 297 306 314 l 364 551 q 294 504 319 538 q 268 421 268 471 z "},"∑":{"ha":972,"x_min":96,"x_max":875,"o":"m 96 -60 l 96 0 l 508 436 l 96 842 l 96 932 l 874 932 l 874 807 l 306 807 l 688 444 l 321 67 l 875 67 l 875 -60 l 96 -60 z "},"∏":{"ha":956,"x_min":24,"x_max":921,"o":"m 188 -74 l 188 807 l 24 807 l 24 931 l 921 931 l 921 807 l 754 807 l 754 -74 l 604 -74 l 604 807 l 338 807 l 338 -74 l 188 -74 z "},"¤":{"ha":778,"x_min":51,"x_max":722,"o":"m 386 753 q 475 739 435 753 q 546 703 515 725 l 647 810 l 722 732 l 611 629 q 643 559 631 600 q 656 467 656 518 q 645 369 656 411 q 615 300 635 328 l 721 190 l 643 114 l 544 224 q 468 183 511 197 q 383 169 425 169 q 297 183 339 169 q 226 219 256 196 l 129 114 l 51 189 l 158 293 q 125 364 138 322 q 113 458 113 406 q 126 554 113 511 q 161 628 140 597 l 51 731 l 128 810 l 229 701 q 300 739 260 725 q 386 753 340 753 m 385 636 q 281 586 318 636 q 243 460 243 536 q 256 380 243 413 q 290 326 269 347 q 336 296 311 306 q 383 286 361 286 q 432 295 407 286 q 478 326 457 304 q 512 381 499 347 q 525 465 525 415 q 516 529 525 499 q 489 583 507 560 q 445 622 471 607 q 385 636 419 636 z "},"℉":{"ha":1250,"x_min":83,"x_max":1222,"o":"m 83 908 q 98 979 83 946 q 138 1038 113 1013 q 199 1077 164 1063 q 278 1092 235 1092 q 355 1077 319 1092 q 416 1038 390 1063 q 456 979 442 1013 q 471 908 471 946 q 456 837 471 871 q 416 778 442 803 q 355 738 390 753 q 278 722 319 722 q 199 737 235 722 q 137 776 163 751 q 97 835 111 801 q 83 908 83 869 m 278 822 q 339 847 314 822 q 364 908 364 872 q 339 969 364 944 q 278 994 314 994 q 217 969 242 994 q 192 908 192 944 q 217 847 192 872 q 278 822 242 822 m 1196 435 l 1196 321 l 694 321 l 694 -146 l 556 -146 l 556 878 l 1222 878 l 1222 764 l 694 764 l 694 435 l 1196 435 z "},"‰":{"ha":1306,"x_min":44,"x_max":1260,"o":"m 219 390 q 86 454 128 390 q 44 644 44 518 q 85 840 44 771 q 219 910 126 910 q 353 840 313 910 q 394 644 394 771 q 353 454 394 518 q 219 390 311 390 m 219 808 q 192 796 203 808 q 175 761 181 783 q 167 709 169 739 q 165 644 165 679 q 175 533 165 574 q 221 492 185 492 q 264 533 254 492 q 274 644 274 574 q 272 709 274 679 q 264 761 269 739 q 247 796 258 783 q 219 808 236 808 m 585 932 l 701 932 l 335 -60 l 218 -60 l 585 932 m 696 -31 q 563 33 604 -31 q 521 224 521 97 q 562 419 521 350 q 696 489 603 489 q 830 419 789 489 q 871 224 871 350 q 829 33 871 97 q 696 -31 788 -31 m 696 388 q 668 375 679 388 q 651 340 657 363 q 644 288 646 318 q 642 224 642 258 q 651 112 642 153 q 697 71 661 71 q 740 112 731 71 q 750 224 750 153 q 748 288 750 258 q 740 340 746 318 q 724 375 735 363 q 696 388 713 388 m 1085 -31 q 951 33 993 -31 q 910 224 910 97 q 951 419 910 350 q 1085 489 992 489 q 1219 419 1178 489 q 1260 224 1260 350 q 1218 33 1260 97 q 1085 -31 1176 -31 m 1085 388 q 1057 375 1068 388 q 1040 340 1046 363 q 1033 288 1035 318 q 1031 224 1031 258 q 1040 112 1031 153 q 1086 71 1050 71 q 1129 112 1119 71 q 1139 224 1139 153 q 1137 288 1139 258 q 1129 340 1135 318 q 1113 375 1124 363 q 1085 388 1101 388 z "},"◁":{"ha":1306,"x_min":219,"x_max":1083,"o":"m 219 419 l 1083 960 l 1083 -115 l 219 419 m 363 418 l 1001 25 l 1001 815 l 363 418 z "},"◀":{"ha":1306,"x_min":219,"x_max":1083,"o":"m 219 419 l 1083 960 l 1083 -115 l 219 419 z "},"▷":{"ha":1306,"x_min":219,"x_max":1083,"o":"m 219 -115 l 219 960 l 1083 419 l 219 -115 m 301 815 l 301 25 l 940 418 l 301 815 z "},"▶":{"ha":1306,"x_min":219,"x_max":1083,"o":"m 219 -115 l 219 960 l 1083 419 l 219 -115 z "},"♤":{"ha":1306,"x_min":185,"x_max":1121,"o":"m 833 -172 l 472 -172 l 472 -112 q 495 -65 483 -92 q 517 -10 507 -39 q 533 47 526 18 q 544 101 540 76 q 453 60 496 74 q 381 47 410 47 q 237 106 289 47 q 185 263 185 165 q 303 569 185 381 q 653 1007 421 758 q 1003 569 885 758 q 1121 263 1121 381 q 1069 106 1121 165 q 925 47 1017 47 q 853 60 896 47 q 761 101 810 74 q 772 47 765 76 q 789 -10 779 18 q 810 -65 799 -39 q 833 -112 822 -92 l 833 -172 m 711 -87 l 711 -72 q 680 37 690 -22 q 669 142 669 96 q 685 194 669 179 q 724 210 700 210 q 753 204 736 210 q 783 190 769 199 q 871 147 839 156 q 925 138 903 138 q 999 174 978 138 q 1019 264 1019 210 q 1003 354 1019 304 q 958 459 986 404 q 893 572 931 514 q 815 683 856 629 q 733 785 775 736 q 653 869 690 833 q 573 784 615 832 q 490 683 531 736 q 413 572 450 629 q 347 459 375 514 q 303 354 319 404 q 286 264 286 304 q 307 174 286 210 q 381 138 328 138 q 435 147 403 138 q 522 190 467 156 q 553 204 536 199 q 582 210 569 210 q 621 194 606 210 q 636 142 636 179 q 626 37 636 96 q 594 -72 615 -22 l 594 -87 l 711 -87 z "},"♠":{"ha":1306,"x_min":185,"x_max":1121,"o":"m 833 -172 l 472 -172 l 472 -112 q 495 -65 483 -92 q 517 -10 507 -39 q 533 47 526 18 q 544 101 540 76 q 453 60 496 74 q 381 47 410 47 q 237 106 289 47 q 185 263 185 165 q 303 569 185 381 q 653 1007 421 758 q 1003 569 885 758 q 1121 263 1121 381 q 1069 106 1121 165 q 925 47 1017 47 q 853 60 896 47 q 761 101 810 74 q 772 47 765 76 q 789 -10 779 18 q 810 -65 799 -39 q 833 -112 822 -92 l 833 -172 z "},"♡":{"ha":1379,"x_min":75,"x_max":1311,"o":"m 693 -147 q 454 26 567 -71 q 258 224 342 122 q 124 428 174 326 q 75 618 75 531 q 99 747 75 685 q 164 857 122 810 q 264 933 206 904 q 392 961 322 961 q 482 950 436 961 q 568 917 528 939 q 641 863 608 894 q 693 792 674 832 q 745 863 713 832 q 818 917 778 894 q 904 950 858 939 q 994 961 950 961 q 1122 933 1064 961 q 1222 857 1181 904 q 1288 747 1264 810 q 1311 618 1311 685 q 1262 428 1311 531 q 1128 224 1213 326 q 932 26 1044 122 q 693 -147 819 -71 m 693 14 q 869 153 785 79 q 1017 305 953 228 q 1120 458 1082 382 q 1158 603 1158 533 q 1142 703 1158 661 q 1100 772 1126 744 q 1039 812 1074 799 q 967 825 1004 825 q 899 814 929 825 q 844 785 868 803 q 802 743 821 767 q 769 696 783 719 q 734 644 754 669 q 693 618 714 618 q 652 643 672 618 q 617 694 632 668 q 583 742 601 718 q 541 784 565 765 q 487 814 517 803 q 419 825 457 825 q 347 812 382 825 q 286 772 313 799 q 244 703 260 744 q 228 603 228 661 q 266 458 228 533 q 369 305 304 382 q 517 153 433 228 q 693 14 601 79 z "},"♥":{"ha":1379,"x_min":75,"x_max":1311,"o":"m 693 -147 q 454 26 567 -71 q 258 224 342 122 q 124 428 174 326 q 75 618 75 531 q 99 747 75 685 q 164 857 122 810 q 264 933 206 904 q 392 961 322 961 q 482 950 436 961 q 568 917 528 939 q 641 863 608 894 q 693 792 674 832 q 745 863 713 832 q 818 917 778 894 q 904 950 858 939 q 994 961 950 961 q 1122 933 1064 961 q 1222 857 1181 904 q 1288 747 1264 810 q 1311 618 1311 685 q 1262 428 1311 531 q 1128 224 1213 326 q 932 26 1044 122 q 693 -147 819 -71 z "},"♧":{"ha":1306,"x_min":78,"x_max":1228,"o":"m 653 1003 q 753 985 704 1003 q 839 937 801 968 q 899 860 876 906 q 921 760 921 815 q 912 686 921 718 q 885 626 903 654 q 844 572 868 599 q 792 514 821 544 q 784 504 788 508 q 783 493 781 500 q 791 487 786 489 q 803 489 796 485 q 897 528 849 515 q 983 540 944 540 q 1082 521 1038 540 q 1159 467 1126 501 q 1210 384 1192 432 q 1228 281 1228 336 q 1210 176 1228 225 q 1160 91 1193 128 q 1081 33 1128 54 q 976 11 1035 11 q 881 24 919 11 q 803 69 843 38 q 768 94 788 85 q 763 89 767 93 q 763 74 760 85 q 791 -16 769 28 q 833 -99 813 -60 l 833 -158 l 472 -158 l 472 -99 q 515 -16 493 -60 q 543 74 536 28 q 542 89 546 85 q 538 94 539 93 q 503 69 518 85 q 424 24 463 38 q 329 11 386 11 q 224 33 271 11 q 145 91 178 54 q 95 176 113 128 q 78 281 78 225 q 96 384 78 336 q 147 467 114 432 q 224 521 179 501 q 322 540 268 540 q 409 528 361 540 q 503 489 457 515 q 515 487 510 485 q 522 493 519 489 q 522 504 525 500 q 514 514 518 508 q 461 572 485 544 q 420 626 438 599 q 394 686 403 654 q 385 760 385 718 q 407 860 385 815 q 467 937 429 906 q 552 985 504 968 q 653 1003 600 1003 m 653 913 q 531 871 578 913 q 483 760 483 829 q 489 703 483 726 q 507 658 494 679 q 540 615 519 638 q 589 564 560 593 q 619 522 608 544 q 631 476 631 500 q 615 428 631 449 q 582 400 601 408 q 540 393 563 392 q 488 403 513 394 q 444 422 464 413 q 384 446 417 438 q 324 454 351 454 q 262 440 289 454 q 216 402 235 426 q 187 347 197 378 q 176 282 176 315 q 216 157 176 207 q 331 107 256 107 q 435 133 392 107 q 518 197 478 158 q 576 224 547 224 q 619 206 600 224 q 639 156 639 189 q 627 51 639 110 q 594 -58 615 -8 l 594 -74 l 711 -74 l 711 -58 q 678 51 690 -8 q 667 156 667 110 q 686 206 667 189 q 729 224 706 224 q 788 197 758 224 q 871 133 828 158 q 975 107 914 107 q 1090 157 1050 107 q 1129 282 1129 207 q 1119 347 1129 315 q 1090 402 1108 378 q 1044 440 1071 426 q 982 454 1017 454 q 922 446 954 454 q 861 422 889 438 q 817 403 842 413 q 765 393 793 394 q 724 400 743 392 q 690 428 704 408 q 675 476 675 449 q 686 522 675 500 q 717 564 697 544 q 766 615 746 593 q 799 658 786 638 q 817 703 811 679 q 822 760 822 726 q 775 871 822 829 q 653 913 728 913 z "},"♣":{"ha":1306,"x_min":78,"x_max":1228,"o":"m 653 1003 q 753 985 704 1003 q 839 937 801 968 q 899 860 876 906 q 921 760 921 815 q 912 686 921 718 q 885 626 903 654 q 844 572 868 599 q 792 514 821 544 q 784 504 788 508 q 783 493 781 500 q 791 487 786 489 q 803 489 796 485 q 897 528 849 515 q 983 540 944 540 q 1082 521 1038 540 q 1159 467 1126 501 q 1210 384 1192 432 q 1228 281 1228 336 q 1210 176 1228 225 q 1160 91 1193 128 q 1081 33 1128 54 q 976 11 1035 11 q 881 24 919 11 q 803 69 843 38 q 768 94 788 85 q 763 89 767 93 q 763 74 760 85 q 791 -16 769 28 q 833 -99 813 -60 l 833 -158 l 472 -158 l 472 -99 q 515 -16 493 -60 q 543 74 536 28 q 542 89 546 85 q 538 94 539 93 q 503 69 518 85 q 424 24 463 38 q 329 11 386 11 q 224 33 271 11 q 145 91 178 54 q 95 176 113 128 q 78 281 78 225 q 96 384 78 336 q 147 467 114 432 q 224 521 179 501 q 322 540 268 540 q 409 528 361 540 q 503 489 457 515 q 515 487 510 485 q 522 493 519 489 q 522 504 525 500 q 514 514 518 508 q 461 572 485 544 q 420 626 438 599 q 394 686 403 654 q 385 760 385 718 q 407 860 385 815 q 467 937 429 906 q 552 985 504 968 q 653 1003 600 1003 z "},"⊙":{"ha":1306,"x_min":97,"x_max":1211,"o":"m 1211 417 q 1167 199 1211 300 q 1049 22 1124 97 q 872 -97 974 -54 q 653 -140 769 -140 q 442 -99 542 -140 q 265 16 342 -58 q 142 192 188 90 q 97 417 97 294 q 140 635 97 533 q 258 811 183 736 q 435 929 333 886 q 653 972 536 972 q 865 931 764 972 q 1042 817 965 890 q 1165 642 1119 744 q 1211 417 1211 539 m 1115 417 q 1080 599 1115 514 q 982 747 1044 683 q 835 846 919 810 q 653 882 750 882 q 476 848 560 882 q 331 752 393 814 q 231 605 268 690 q 194 417 194 519 q 229 235 194 319 q 326 87 264 150 q 471 -12 388 24 q 653 -49 554 -49 q 830 -15 746 -49 q 977 81 914 19 q 1078 228 1040 143 q 1115 417 1115 314 m 828 417 q 814 349 828 381 q 776 292 800 317 q 719 254 751 268 q 651 240 688 240 q 583 254 615 240 q 527 292 551 268 q 489 349 503 317 q 475 417 475 381 q 489 487 475 454 q 527 543 503 519 q 583 580 551 567 q 651 593 615 593 q 719 580 686 593 q 775 543 751 567 q 813 487 799 519 q 828 417 828 454 z "},"◈":{"ha":1306,"x_min":32,"x_max":1272,"o":"m 651 -194 l 32 422 l 651 1039 l 1272 422 l 651 -194 m 1154 422 l 651 925 l 150 422 l 651 -79 l 1154 422 m 651 85 l 314 422 l 651 760 l 989 422 l 651 85 z "},"▣":{"ha":1306,"x_min":128,"x_max":1178,"o":"m 128 -106 l 128 944 l 1178 944 l 1178 -106 l 128 -106 m 1090 863 l 214 863 l 214 -24 l 1090 -24 l 1090 863 m 917 156 l 388 156 l 388 683 l 917 683 l 917 156 z "},"◐":{"ha":1306,"x_min":96,"x_max":1208,"o":"m 1208 419 q 1165 199 1208 301 q 1044 22 1121 97 q 865 -96 968 -53 q 646 -139 763 -139 q 432 -95 532 -139 q 257 24 332 -51 q 139 201 182 100 q 96 419 96 303 q 139 637 96 536 q 257 812 182 738 q 432 929 332 886 q 646 972 532 972 q 865 930 763 972 q 1044 813 968 888 q 1165 638 1121 739 q 1208 419 1208 538 m 1133 418 q 1097 601 1133 515 q 997 753 1061 688 q 848 857 933 818 q 665 899 763 896 l 665 -65 q 847 -23 761 -62 q 996 82 932 17 q 1097 233 1060 147 q 1133 418 1133 319 z "},"◑":{"ha":1306,"x_min":96,"x_max":1208,"o":"m 96 419 q 140 638 96 538 q 260 813 183 739 q 439 930 336 888 q 658 972 542 972 q 872 929 772 972 q 1047 812 972 886 q 1165 637 1122 738 q 1208 419 1208 536 q 1165 201 1208 303 q 1047 24 1122 100 q 872 -95 972 -51 q 658 -139 772 -139 q 439 -96 542 -139 q 260 22 336 -53 q 140 199 183 97 q 96 419 96 301 m 171 418 q 208 233 171 319 q 308 82 244 147 q 458 -23 372 17 q 639 -65 543 -62 l 639 899 q 456 857 540 896 q 307 753 371 818 q 207 601 243 688 q 171 418 171 515 z "},"▒":{"ha":1306,"x_min":72,"x_max":1232,"o":"m 1231 944 q 1217 911 1231 924 q 1185 899 1203 899 q 1149 911 1164 899 q 1135 944 1135 924 q 1149 978 1135 965 q 1185 992 1164 992 q 1217 978 1203 992 q 1231 944 1231 965 m 1054 944 q 1040 911 1054 924 q 1006 899 1026 899 q 971 911 985 899 q 957 944 957 924 q 971 979 957 965 q 1006 993 985 993 q 1040 979 1026 993 q 1054 944 1054 965 m 1231 768 q 1217 733 1231 747 q 1185 719 1203 719 q 1149 733 1164 719 q 1135 768 1135 746 q 1149 802 1135 789 q 1185 815 1164 815 q 1217 802 1203 815 q 1231 768 1231 789 m 878 944 q 865 911 878 924 q 831 899 851 899 q 796 911 810 899 q 782 944 782 924 q 796 979 782 965 q 831 993 810 993 q 865 979 851 993 q 878 944 878 965 m 1054 769 q 1040 733 1054 747 q 1006 719 1026 719 q 971 733 985 719 q 957 769 957 747 q 971 803 957 790 q 1006 817 985 817 q 1040 803 1026 817 q 1054 769 1054 790 m 1231 590 q 1217 556 1231 569 q 1185 543 1203 543 q 1149 556 1164 543 q 1135 590 1135 569 q 1149 625 1135 611 q 1185 639 1164 639 q 1217 625 1203 639 q 1231 590 1231 611 m 878 769 q 865 733 878 747 q 831 719 851 719 q 796 733 810 719 q 782 769 782 747 q 796 803 782 790 q 831 817 810 817 q 865 803 851 817 q 878 769 878 790 m 700 944 q 687 911 700 924 q 651 899 674 899 q 619 911 632 899 q 606 944 606 924 q 619 978 606 965 q 651 992 632 992 q 687 978 674 992 q 700 944 700 965 m 1054 592 q 1040 556 1054 569 q 1006 543 1026 543 q 971 557 985 543 q 957 592 957 571 q 971 626 957 613 q 1006 639 985 639 q 1040 626 1026 639 q 1054 592 1054 613 m 1231 413 q 1217 381 1231 394 q 1185 367 1203 367 q 1149 381 1164 367 q 1135 413 1135 394 q 1149 447 1135 433 q 1185 461 1164 461 q 1217 447 1203 461 q 1231 413 1231 433 m 878 592 q 865 557 878 571 q 831 543 851 543 q 796 557 810 543 q 782 592 782 571 q 796 626 782 613 q 831 639 810 639 q 865 626 851 639 q 878 592 878 613 m 700 768 q 687 733 700 746 q 651 719 674 719 q 619 733 632 719 q 606 768 606 747 q 619 802 606 789 q 651 815 632 815 q 687 802 674 815 q 700 768 700 789 m 1231 238 q 1217 203 1231 218 q 1185 189 1203 189 q 1149 203 1164 189 q 1135 238 1135 218 q 1149 271 1135 257 q 1185 285 1164 285 q 1217 271 1203 285 q 1231 238 1231 257 m 522 944 q 509 911 522 924 q 474 899 496 899 q 440 911 453 899 q 426 944 426 924 q 440 978 426 965 q 474 992 453 992 q 509 978 496 992 q 522 944 522 965 m 1053 413 q 1040 381 1053 394 q 1006 367 1026 367 q 971 381 985 367 q 957 413 957 394 q 971 447 957 433 q 1006 461 985 461 q 1040 447 1026 461 q 1053 413 1053 433 m 700 590 q 687 556 700 569 q 651 543 674 543 q 619 556 632 543 q 606 590 606 569 q 619 625 606 611 q 651 639 632 639 q 687 625 674 639 q 700 590 700 611 m 876 413 q 864 381 876 394 q 831 367 851 367 q 796 381 810 367 q 782 413 782 394 q 796 447 782 433 q 831 461 810 461 q 864 447 851 461 q 876 413 876 433 m 1232 60 q 1218 26 1232 40 q 1186 11 1204 11 q 1149 26 1163 11 q 1135 60 1135 40 q 1149 96 1135 82 q 1186 110 1163 110 q 1218 95 1204 110 q 1232 60 1232 81 m 347 944 q 333 911 347 924 q 297 899 318 899 q 263 911 276 899 q 249 944 249 924 q 263 979 249 965 q 297 993 276 993 q 333 979 318 993 q 347 944 347 965 m 522 768 q 509 733 522 746 q 474 719 496 719 q 440 733 453 719 q 426 768 426 747 q 440 802 426 789 q 474 815 453 815 q 509 802 496 815 q 522 768 522 789 m 1053 238 q 1040 203 1053 218 q 1006 189 1026 189 q 971 203 985 189 q 957 238 957 218 q 971 271 957 257 q 1006 285 985 285 q 1040 271 1026 285 q 1053 238 1053 257 m 700 413 q 687 381 700 394 q 651 367 674 367 q 619 381 632 367 q 606 413 606 394 q 619 447 606 433 q 651 461 632 461 q 687 447 674 461 q 700 413 700 433 m 876 238 q 864 203 876 218 q 831 189 851 189 q 796 203 810 189 q 782 238 782 218 q 796 271 782 257 q 831 285 810 285 q 864 271 851 285 q 876 238 876 257 m 1232 -117 q 1218 -151 1232 -137 q 1186 -165 1204 -165 q 1149 -151 1163 -165 q 1135 -117 1135 -137 q 1149 -83 1135 -97 q 1186 -69 1163 -69 q 1218 -83 1204 -69 q 1232 -117 1232 -97 m 347 769 q 333 733 347 747 q 297 719 318 719 q 263 733 276 719 q 249 769 249 747 q 263 803 249 790 q 297 817 276 817 q 333 803 318 817 q 347 769 347 790 m 522 590 q 509 556 522 569 q 474 543 496 543 q 440 556 453 543 q 426 590 426 569 q 440 625 426 611 q 474 639 453 639 q 509 625 496 639 q 522 590 522 611 m 1054 60 q 1040 26 1054 40 q 1006 11 1026 11 q 972 26 986 11 q 957 60 957 40 q 971 95 957 81 q 1006 110 985 110 q 1040 95 1026 110 q 1054 60 1054 81 m 168 944 q 153 911 168 924 q 118 899 139 899 q 86 911 100 899 q 72 944 72 924 q 86 978 72 965 q 118 992 100 992 q 153 978 139 992 q 168 944 168 965 m 700 238 q 687 203 700 218 q 651 189 674 189 q 619 203 632 189 q 606 238 606 218 q 619 271 606 257 q 651 285 632 285 q 687 271 674 285 q 700 238 700 257 m 878 60 q 865 26 878 40 q 831 11 851 11 q 796 26 810 11 q 782 60 782 40 q 796 95 782 81 q 831 110 810 110 q 865 95 851 110 q 878 60 878 81 m 347 592 q 333 557 347 571 q 297 543 318 543 q 263 556 276 543 q 249 592 249 569 q 263 626 249 613 q 297 639 276 639 q 333 626 318 639 q 347 592 347 613 m 522 413 q 509 381 522 394 q 474 367 496 367 q 440 381 453 367 q 426 413 426 394 q 440 447 426 433 q 474 461 453 461 q 509 447 496 461 q 522 413 522 433 m 1054 -117 q 1040 -151 1054 -137 q 1006 -165 1026 -165 q 972 -151 986 -165 q 957 -117 957 -136 q 971 -83 957 -97 q 1006 -69 985 -69 q 1040 -83 1026 -69 q 1054 -117 1054 -97 m 168 768 q 153 733 168 747 q 118 719 139 719 q 86 733 100 719 q 72 768 72 747 q 86 802 72 789 q 118 815 100 815 q 153 802 139 815 q 168 768 168 789 m 701 60 q 688 26 701 40 q 651 11 675 11 q 619 26 632 11 q 606 60 606 40 q 619 95 606 81 q 651 110 632 110 q 688 96 675 110 q 701 60 701 82 m 878 -117 q 865 -151 878 -136 q 831 -165 851 -165 q 796 -151 810 -165 q 782 -117 782 -136 q 796 -83 782 -97 q 831 -69 810 -69 q 865 -83 851 -69 q 878 -117 878 -97 m 522 238 q 509 203 522 218 q 474 189 496 189 q 440 203 453 189 q 426 238 426 218 q 440 271 426 257 q 474 285 453 285 q 509 271 496 285 q 522 238 522 257 m 168 589 q 153 556 168 569 q 118 543 139 543 q 86 556 100 543 q 72 589 72 569 q 86 626 72 613 q 118 639 100 639 q 153 626 139 639 q 168 589 168 613 m 346 413 q 331 381 346 394 q 297 367 317 367 q 263 381 276 367 q 249 413 249 394 q 263 447 249 433 q 297 461 276 461 q 332 447 318 461 q 346 413 346 433 m 701 -117 q 688 -151 701 -137 q 651 -165 675 -165 q 619 -151 632 -165 q 606 -117 606 -137 q 619 -83 606 -97 q 651 -69 632 -69 q 688 -83 675 -69 q 701 -117 701 -97 m 524 60 q 510 26 524 40 q 475 11 497 11 q 440 26 454 11 q 426 60 426 40 q 440 95 426 81 q 475 110 454 110 q 510 95 497 110 q 524 60 524 81 m 346 238 q 331 203 346 218 q 297 189 317 189 q 263 203 276 189 q 249 238 249 218 q 263 271 249 257 q 297 285 276 285 q 332 271 318 285 q 346 238 346 257 m 168 411 q 153 378 168 392 q 118 365 139 365 q 86 378 100 365 q 72 411 72 392 q 86 445 72 432 q 118 458 100 458 q 153 445 139 458 q 168 411 168 432 m 524 -117 q 510 -151 524 -137 q 475 -165 497 -165 q 440 -151 454 -165 q 426 -117 426 -137 q 440 -83 426 -97 q 475 -69 454 -69 q 510 -83 497 -69 q 524 -117 524 -97 m 347 60 q 333 26 347 40 q 297 11 318 11 q 263 26 276 11 q 249 60 249 40 q 263 95 249 81 q 297 110 276 110 q 333 95 318 110 q 347 60 347 81 m 168 238 q 153 203 168 218 q 118 189 139 189 q 86 203 100 189 q 72 238 72 218 q 86 270 72 257 q 118 283 100 283 q 168 238 168 283 m 347 -117 q 333 -151 347 -136 q 297 -165 318 -165 q 263 -151 276 -165 q 249 -117 249 -137 q 263 -83 249 -97 q 297 -69 276 -69 q 333 -83 318 -69 q 347 -117 347 -97 m 168 60 q 153 26 168 40 q 118 11 139 11 q 86 26 100 11 q 72 60 72 40 q 86 93 72 79 q 118 107 100 107 q 153 93 139 107 q 168 60 168 79 m 168 -117 q 153 -151 168 -137 q 118 -165 139 -165 q 86 -151 100 -165 q 72 -117 72 -137 q 86 -83 72 -97 q 118 -69 100 -69 q 153 -83 139 -69 q 168 -117 168 -97 z "},"▤":{"ha":1306,"x_min":72,"x_max":1232,"o":"m 72 -164 l 72 988 l 1232 988 l 1232 -164 l 72 -164 m 1182 939 l 121 939 l 121 831 l 1182 831 l 1182 939 m 1182 781 l 121 781 l 121 665 l 1182 665 l 1182 781 m 1182 618 l 121 618 l 121 515 l 1182 515 l 1182 618 m 1182 464 l 121 464 l 121 354 l 1182 354 l 1182 464 m 1182 304 l 121 304 l 121 192 l 1182 192 l 1182 304 m 1182 143 l 121 143 l 121 39 l 1182 39 l 1182 143 m 1182 -11 l 121 -11 l 121 -114 l 1182 -114 l 1182 -11 z "},"▥":{"ha":1306,"x_min":72,"x_max":1232,"o":"m 72 -164 l 72 986 l 1232 986 l 1232 -164 l 72 -164 m 1183 936 l 1076 936 l 1076 -114 l 1183 -114 l 1183 936 m 1028 936 l 925 936 l 925 -114 l 1028 -114 l 1028 936 m 874 936 l 763 936 l 763 -114 l 874 -114 l 874 936 m 713 936 l 601 936 l 601 -114 l 713 -114 l 713 936 m 550 936 l 444 936 l 444 -114 l 550 -114 l 550 936 m 396 936 l 281 936 l 281 -114 l 396 -114 l 396 936 m 231 936 l 121 936 l 121 -114 l 231 -114 l 231 936 z "},"▨":{"ha":1306,"x_min":72,"x_max":1232,"o":"m 72 986 l 1232 986 l 1232 -164 l 72 -164 l 72 986 m 664 -114 l 861 -114 l 1178 201 l 1178 397 l 664 -114 m 401 -114 l 594 -114 l 1178 463 l 1178 660 l 401 -114 m 922 -114 l 1178 -114 l 1178 138 l 922 -114 m 156 -114 l 331 -114 l 1178 725 l 1178 901 l 156 -114 m 119 89 l 119 -82 l 1142 936 l 969 936 l 119 89 m 119 353 l 119 153 l 903 936 l 704 936 l 119 353 m 119 622 l 119 419 l 633 936 l 438 936 l 119 622 m 119 682 l 367 936 l 119 936 l 119 682 z "},"▧":{"ha":1306,"x_min":72,"x_max":1232,"o":"m 72 -165 l 72 988 l 1232 988 l 1232 -165 l 72 -165 m 922 938 q 1051 810 989 871 q 1178 683 1113 749 l 1178 938 l 922 938 m 664 938 q 921 680 794 807 q 1178 422 1047 553 l 1178 619 q 1019 778 1099 699 q 861 938 940 858 l 664 938 m 401 938 q 789 551 597 743 q 1178 163 981 358 l 1178 360 q 887 648 1031 504 q 594 938 743 792 l 401 938 m 156 938 q 667 428 414 679 q 1178 -79 919 178 l 1178 94 q 755 516 964 307 q 331 938 546 725 l 156 938 m 1142 -114 q 631 395 883 143 q 119 906 378 647 l 119 732 q 544 308 335 518 q 969 -114 754 99 l 1142 -114 m 903 -114 q 512 278 707 83 q 119 668 317 472 l 119 469 q 413 177 268 321 q 704 -114 557 33 l 903 -114 m 633 -114 q 376 144 503 17 q 119 401 250 271 l 119 199 q 280 42 201 119 q 438 -114 358 -36 l 633 -114 m 367 -114 q 243 12 304 -50 q 119 139 182 74 l 119 -114 l 367 -114 z "},"▦":{"ha":1306,"x_min":72,"x_max":1232,"o":"m 72 -164 l 72 988 l 1232 988 l 1232 -164 l 72 -164 m 1182 939 l 1069 939 l 1069 829 l 1182 829 l 1182 939 m 1024 939 l 915 939 l 915 829 l 1024 829 l 1024 939 m 1182 783 l 1069 783 l 1069 664 l 1182 664 l 1182 783 m 869 939 l 754 939 l 754 829 l 869 829 l 869 939 m 1024 783 l 915 783 l 915 664 l 1024 664 l 1024 783 m 1182 619 l 1069 619 l 1069 511 l 1182 511 l 1182 619 m 869 783 l 754 783 l 754 664 l 869 664 l 869 783 m 710 939 l 590 939 l 590 829 l 710 829 l 710 939 m 1024 619 l 915 619 l 915 511 l 1024 511 l 1024 619 m 1182 465 l 1069 465 l 1069 353 l 1182 353 l 1182 465 m 1024 465 l 915 465 l 915 353 l 1024 353 l 1024 465 m 546 939 l 440 939 l 440 829 l 546 829 l 546 939 m 869 619 l 754 619 l 754 511 l 869 511 l 869 619 m 710 783 l 590 783 l 590 664 l 710 664 l 710 783 m 1182 307 l 1069 307 l 1069 190 l 1182 190 l 1182 307 m 396 939 l 278 939 l 278 829 l 396 829 l 396 939 m 869 465 l 754 465 l 754 353 l 869 353 l 869 465 m 1024 307 l 915 307 l 915 190 l 1024 190 l 1024 307 m 1182 146 l 1069 146 l 1069 38 l 1182 38 l 1182 146 m 546 783 l 440 783 l 440 664 l 546 664 l 546 783 m 710 619 l 590 619 l 590 511 l 710 511 l 710 619 m 1182 -7 l 1069 -7 l 1069 -114 l 1182 -114 l 1182 -7 m 1024 146 l 915 146 l 915 38 l 1024 38 l 1024 146 m 232 939 l 121 939 l 121 829 l 232 829 l 232 939 m 869 307 l 754 307 l 754 190 l 869 190 l 869 307 m 396 783 l 278 783 l 278 664 l 396 664 l 396 783 m 710 465 l 590 465 l 590 353 l 710 353 l 710 465 m 546 619 l 440 619 l 440 511 l 546 511 l 546 619 m 1024 -7 l 915 -7 l 915 -114 l 1024 -114 l 1024 -7 m 869 146 l 754 146 l 754 38 l 869 38 l 869 146 m 546 465 l 440 465 l 440 353 l 546 353 l 546 465 m 396 619 l 278 619 l 278 511 l 396 511 l 396 619 m 232 783 l 121 783 l 121 664 l 232 664 l 232 783 m 710 307 l 590 307 l 590 190 l 710 190 l 710 307 m 869 -7 l 754 -7 l 754 -114 l 869 -114 l 869 -7 m 396 465 l 278 465 l 278 353 l 396 353 l 396 465 m 710 146 l 590 146 l 590 38 l 710 38 l 710 146 m 546 307 l 440 307 l 440 190 l 546 190 l 546 307 m 232 619 l 121 619 l 121 511 l 232 511 l 232 619 m 710 -7 l 590 -7 l 590 -114 l 710 -114 l 710 -7 m 232 465 l 121 465 l 121 353 l 232 353 l 232 465 m 396 307 l 278 307 l 278 190 l 396 190 l 396 307 m 546 146 l 440 146 l 440 38 l 546 38 l 546 146 m 546 -7 l 440 -7 l 440 -114 l 546 -114 l 546 -7 m 396 146 l 278 146 l 278 38 l 396 38 l 396 146 m 232 307 l 121 307 l 121 190 l 232 190 l 232 307 m 396 -7 l 278 -7 l 278 -114 l 396 -114 l 396 -7 m 232 146 l 121 146 l 121 38 l 232 38 l 232 146 m 232 -7 l 121 -7 l 121 -114 l 232 -114 l 232 -7 z "},"▩":{"ha":1306,"x_min":74,"x_max":1232,"o":"m 74 -165 l 74 986 l 1232 986 l 1232 -165 l 74 -165 m 500 289 q 449 341 475 315 q 399 392 424 367 q 349 341 374 367 q 297 290 324 315 q 349 240 324 265 q 400 189 375 214 l 500 289 m 769 567 q 819 615 794 592 q 869 664 844 639 l 769 764 l 669 664 q 719 615 694 639 q 769 567 744 592 m 903 699 q 951 749 928 724 q 1000 799 975 774 l 903 897 q 853 848 878 872 q 803 799 828 824 l 903 699 m 263 58 q 312 108 288 83 q 361 160 336 133 l 265 256 l 167 156 l 263 58 m 531 58 q 580 108 556 83 q 631 157 604 132 l 533 254 l 435 156 q 483 107 460 131 q 531 58 506 83 m 1133 664 l 1038 761 q 988 712 1013 736 q 938 663 963 688 l 1036 567 l 1133 664 m 397 -72 q 447 -24 422 -47 q 497 24 472 0 l 400 121 l 300 21 q 349 -26 325 -4 q 397 -72 372 -47 m 633 701 q 683 751 658 726 q 732 801 707 776 q 687 849 708 826 q 642 894 665 871 q 592 844 617 869 q 540 794 567 819 q 588 747 565 769 q 633 701 610 725 m 906 436 q 953 484 931 461 q 1000 531 975 507 q 953 579 975 556 q 906 628 931 603 q 858 580 881 603 q 811 533 836 557 l 906 436 m 657 -69 q 708 -20 683 -44 q 758 29 733 4 l 667 119 l 569 21 q 613 -24 590 -1 q 657 -69 635 -46 m 358 428 q 313 472 335 450 q 268 518 292 494 q 219 469 243 493 q 169 421 194 446 q 214 376 192 399 q 260 329 236 353 l 358 428 m 1033 304 q 1082 353 1057 329 q 1132 401 1107 376 q 1086 447 1108 425 q 1039 492 1064 469 l 943 396 q 989 350 967 372 q 1033 304 1011 328 m 374 897 q 328 853 350 875 q 285 810 307 832 q 335 760 310 785 q 385 711 360 736 l 471 799 l 374 897 m 263 590 q 307 634 285 613 q 351 678 329 656 q 301 726 326 701 q 250 775 275 750 l 164 689 l 263 590 m 783 311 q 869 397 825 356 q 821 447 844 422 q 772 497 797 472 q 729 452 751 474 q 685 407 707 431 l 783 311 m 650 447 q 692 491 672 469 q 735 535 713 513 l 639 631 q 595 588 617 608 q 553 544 574 567 l 650 447 m 528 325 q 570 368 549 347 q 613 411 592 389 q 564 460 588 436 q 515 510 540 485 l 432 422 q 480 374 457 399 q 528 325 503 350 m 746 276 q 699 325 722 301 q 653 374 676 349 q 608 331 629 351 q 565 288 586 310 q 613 240 589 263 q 663 192 638 217 l 746 276 m 1042 53 q 1086 97 1065 75 q 1129 142 1107 119 q 1084 188 1106 165 q 1038 233 1063 210 q 994 190 1015 211 q 950 146 972 169 q 996 100 974 122 q 1042 53 1018 78 m 601 668 q 556 714 578 692 q 510 758 533 736 q 422 671 464 714 q 467 627 444 649 q 514 582 489 606 l 601 668 m 390 458 q 433 503 413 482 q 476 547 454 525 q 432 593 454 571 q 388 638 410 615 q 344 594 365 617 q 300 550 322 572 q 345 504 324 526 q 390 458 367 482 m 913 183 q 956 228 935 207 q 999 271 976 249 l 908 363 q 865 318 886 340 q 822 274 843 296 l 913 183 m 1007 18 l 915 110 l 829 24 q 876 -22 854 0 q 921 -68 899 -43 l 1007 18 m 792 65 q 834 106 814 85 q 875 149 854 128 q 831 194 853 172 q 788 240 810 217 q 744 198 765 219 q 701 153 722 176 q 747 108 725 131 q 792 65 768 86 m 1179 899 q 1123 844 1149 871 q 1069 790 1097 818 l 1179 682 l 1179 899 m 121 -83 q 175 -29 149 -56 q 231 25 201 -3 q 175 81 201 53 q 121 136 149 108 l 121 -83 m 121 447 q 175 501 149 475 q 231 556 201 528 l 121 664 l 121 447 m 906 -114 q 851 -61 876 -87 q 796 -8 825 -35 q 742 -61 768 -35 q 688 -114 715 -87 l 906 -114 m 1179 374 q 1125 321 1151 347 q 1072 268 1099 294 l 1179 161 l 1179 374 m 121 189 q 174 243 147 217 q 228 297 200 269 q 174 349 200 324 q 121 400 147 374 l 121 189 m 1028 832 q 1082 885 1056 858 q 1135 936 1108 911 l 921 936 q 975 885 949 911 q 1028 832 1001 858 m 1075 528 q 1126 474 1100 500 q 1179 422 1153 449 l 1179 631 q 1126 579 1153 604 q 1075 528 1100 554 m 506 833 q 558 885 532 860 q 610 936 583 911 l 401 936 l 506 833 m 267 -14 q 215 -64 240 -39 q 164 -114 190 -89 l 371 -114 l 267 -14 m 636 -114 q 584 -65 610 -89 q 533 -15 558 -40 l 433 -114 l 636 -114 m 765 836 q 815 886 790 861 q 864 936 839 911 l 665 936 l 765 836 m 1179 111 l 1082 15 l 1179 -81 l 1179 111 m 1046 -21 q 998 -67 1021 -46 q 950 -114 975 -89 l 1139 -114 l 1046 -21 m 213 813 l 121 904 l 121 721 l 213 813 m 244 846 q 291 891 269 869 q 336 936 313 913 l 154 936 l 244 846 z "},"♨":{"ha":1306,"x_min":94,"x_max":1211,"o":"m 924 344 q 874 186 924 282 q 829 93 846 132 q 810 31 813 54 l 792 31 q 781 107 781 75 q 785 163 781 131 q 799 233 789 194 q 813 308 808 276 q 818 361 818 339 q 788 513 818 421 q 757 660 757 604 q 803 786 757 690 q 841 874 826 839 q 860 925 856 908 l 875 925 q 885 860 885 906 q 882 818 885 843 q 874 760 879 793 q 865 703 868 728 q 863 660 863 678 q 893 500 863 593 q 924 344 924 407 m 747 361 q 694 188 747 290 q 640 80 660 121 q 614 19 619 39 l 593 19 q 588 49 590 33 q 586 85 586 65 q 613 217 586 138 q 639 351 639 297 q 606 508 639 406 q 572 663 572 610 q 618 828 572 729 q 672 989 668 929 l 690 989 q 715 885 715 936 q 694 775 715 847 q 674 669 674 704 q 710 518 674 629 q 747 361 747 415 m 551 344 q 501 188 551 283 q 457 95 474 135 q 438 32 440 56 l 421 32 q 408 110 408 58 q 426 235 408 164 q 440 306 436 274 q 444 363 444 338 q 415 514 444 415 q 388 663 388 622 q 432 788 388 692 q 470 871 456 836 q 488 926 485 906 l 503 926 q 511 861 511 899 q 508 817 511 843 q 500 757 506 792 q 492 697 494 722 q 489 654 489 672 q 519 497 489 590 q 551 344 551 386 m 1211 125 q 1183 24 1211 67 q 1107 -51 1154 -19 q 1000 -103 1060 -83 q 876 -136 940 -124 q 751 -153 813 -149 q 639 -158 689 -158 q 535 -153 593 -158 q 417 -137 478 -149 q 299 -106 357 -125 q 195 -56 240 -86 q 122 14 150 -26 q 94 108 94 54 q 125 195 94 156 q 200 265 156 235 q 297 316 244 296 q 393 344 349 336 l 399 326 q 337 299 372 318 q 269 253 301 279 q 214 199 236 228 q 192 142 192 169 q 216 77 192 104 q 278 31 240 50 q 366 1 317 13 q 465 -15 415 -10 q 560 -23 514 -21 q 639 -25 606 -25 q 723 -23 674 -25 q 826 -15 772 -21 q 932 3 879 -8 q 1027 35 985 15 q 1096 85 1069 56 q 1122 156 1122 114 q 1082 237 1122 194 q 954 315 1042 279 l 964 332 q 1043 306 1000 325 q 1124 260 1086 288 q 1186 199 1161 233 q 1211 125 1211 164 z "},"☏":{"ha":1306,"x_min":33,"x_max":1272,"o":"m 1272 543 q 1253 472 1272 494 q 1199 450 1235 450 q 1132 458 1169 450 q 1056 476 1094 465 q 949 557 949 511 q 951 578 949 565 q 961 610 954 592 q 971 635 968 625 q 974 657 974 644 q 955 678 974 669 q 917 689 936 686 q 905 685 907 690 q 903 674 903 679 l 903 633 q 910 547 903 588 q 938 472 918 507 q 969 428 947 456 q 1025 365 992 401 q 1076 301 1056 333 q 1108 239 1097 268 q 1119 208 1115 225 q 1126 174 1124 192 q 1134 131 1132 147 q 1139 110 1136 115 q 1154 78 1139 104 q 1167 39 1167 57 q 1136 -18 1167 3 q 1063 -39 1106 -39 l 192 -39 q 143 -24 160 -39 q 126 28 126 -8 q 140 76 126 54 q 151 96 147 88 q 157 111 156 104 q 164 149 160 131 q 172 186 168 167 q 206 272 188 239 q 237 310 215 288 q 292 369 258 333 q 342 426 321 399 q 374 475 363 453 q 401 547 393 508 q 410 631 410 586 l 410 682 q 402 692 410 690 q 392 693 394 694 q 356 674 374 689 q 338 643 338 660 q 348 603 338 624 q 358 560 358 583 q 331 510 358 531 q 250 469 304 489 q 174 449 214 458 q 103 440 135 440 q 49 465 65 440 q 33 529 33 489 q 93 691 33 624 q 265 799 153 758 q 447 840 343 826 q 653 853 550 853 q 1032 800 867 853 q 1215 697 1157 760 q 1272 543 1272 633 m 1214 536 q 1162 667 1214 613 q 1001 757 1110 721 q 654 808 853 808 q 300 756 458 808 q 138 665 190 719 q 86 532 86 610 q 91 495 86 506 q 111 485 96 485 q 158 491 131 485 q 224 510 185 497 q 304 560 304 536 q 293 590 304 564 q 279 644 279 619 q 293 681 279 664 q 329 713 307 697 q 417 742 371 742 q 451 727 439 742 q 464 668 464 713 q 448 522 464 590 q 392 403 432 454 q 356 358 374 379 q 318 317 338 338 q 288 285 303 301 q 258 253 274 269 q 240 222 247 242 q 226 179 233 203 q 218 140 222 160 q 210 99 214 119 q 204 83 208 93 q 192 57 200 72 q 183 25 183 40 q 188 11 183 14 q 204 8 193 8 l 1046 8 q 1107 40 1107 8 q 1097 78 1107 58 q 1081 109 1086 100 q 1076 121 1076 118 q 1069 176 1074 147 q 1053 236 1064 204 q 1019 294 1042 264 q 967 356 997 324 q 911 419 933 392 q 879 465 889 447 q 852 550 860 503 q 844 656 844 597 q 894 735 844 735 q 974 718 933 735 q 1028 654 1028 694 q 1026 632 1028 643 q 1015 600 1024 621 q 1004 558 1004 572 q 1079 517 1004 539 q 1186 496 1151 496 q 1208 505 1203 496 q 1214 536 1214 514 m 819 615 q 796 567 819 583 q 715 550 772 550 l 574 550 q 505 565 525 550 q 485 613 485 581 l 485 735 q 577 723 538 726 q 654 719 617 719 q 727 722 688 719 q 819 732 767 725 l 819 615 m 883 282 q 865 190 883 232 q 815 117 847 147 q 740 69 783 86 q 649 51 697 51 q 557 69 600 51 q 482 117 514 86 q 432 190 450 147 q 414 282 414 232 q 432 375 414 332 q 481 449 450 418 q 556 498 513 481 q 649 515 599 515 q 742 498 699 515 q 816 449 785 481 q 865 375 847 418 q 883 282 883 332 m 763 683 q 713 678 739 681 q 653 676 688 676 q 540 686 588 676 l 540 618 q 547 601 540 607 q 574 596 553 596 l 721 596 q 763 619 763 596 l 763 683 m 826 283 q 813 354 826 321 q 776 413 800 388 q 721 452 753 438 q 650 467 689 467 q 577 453 610 467 q 520 415 544 439 q 483 357 496 390 q 469 283 469 324 q 517 152 469 203 q 646 101 565 101 q 717 115 685 101 q 774 153 750 129 q 813 210 799 176 q 826 283 826 243 z "},"☎":{"ha":1306,"x_min":38,"x_max":1268,"o":"m 1268 543 q 1199 454 1268 454 q 1056 481 1136 454 q 953 557 953 513 q 965 607 953 575 q 979 653 979 636 q 956 681 979 668 q 910 693 933 693 q 892 674 892 693 l 892 633 q 933 468 892 539 q 965 424 943 451 q 1022 360 988 397 q 1073 297 1053 328 q 1104 236 1093 265 q 1121 172 1115 213 q 1128 132 1125 149 q 1135 108 1132 115 q 1151 74 1136 99 q 1163 39 1163 54 q 1134 -14 1163 7 q 1063 -35 1106 -35 l 185 -35 q 131 28 131 -35 q 143 72 131 51 q 155 93 150 83 q 161 110 160 103 q 168 147 164 129 q 176 185 172 165 q 191 232 183 211 q 208 268 199 253 q 292 365 225 294 q 343 422 322 396 q 375 471 364 449 q 414 631 414 539 l 414 689 q 403 701 414 701 q 357 683 381 701 q 333 643 333 665 q 344 606 333 632 q 354 560 354 581 q 250 474 354 508 q 103 444 167 444 q 38 529 38 444 q 269 794 38 715 q 653 849 425 849 q 1029 796 864 849 q 1268 543 1268 717 m 815 726 q 728 718 768 721 q 654 715 689 715 q 577 719 618 715 q 489 729 536 722 l 489 608 q 569 554 489 554 l 722 554 q 815 611 815 554 l 815 726 m 879 282 q 862 373 879 331 q 813 446 844 415 q 740 494 782 476 q 649 511 699 511 q 558 494 600 511 q 484 446 515 476 q 435 373 453 415 q 418 282 418 331 q 436 192 418 233 q 485 120 454 150 q 558 73 517 90 q 649 56 600 56 q 739 72 697 56 q 812 119 781 89 q 861 192 843 150 q 879 282 879 233 z "},"☜":{"ha":1306,"x_min":115,"x_max":1188,"o":"m 1083 260 l 1083 289 l 1047 289 q 1012 272 1029 281 q 976 257 994 264 q 901 231 940 242 q 817 213 861 219 q 661 208 774 207 q 554 213 558 211 q 504 225 526 213 q 478 265 478 239 q 500 301 478 293 q 456 324 469 301 q 447 349 447 336 q 463 388 447 368 q 430 401 446 388 q 413 432 414 415 q 525 486 413 482 l 521 497 q 431 501 489 499 q 288 508 372 504 q 183 514 185 513 q 119 569 115 524 q 189 614 122 607 q 235 617 213 617 q 279 618 257 617 q 440 623 343 621 q 671 625 536 625 q 832 621 794 625 q 1004 544 936 606 q 1086 538 1007 540 l 1086 581 l 1188 581 l 1188 260 l 1083 260 m 1086 514 q 1077 515 1085 514 q 1054 517 1069 515 q 1039 518 1046 518 q 1025 518 1032 518 q 1031 496 1031 506 q 1028 492 1031 492 q 1000 518 1025 492 q 939 567 969 547 q 718 606 879 606 q 689 604 693 606 q 599 571 631 592 q 569 536 583 563 q 542 500 554 508 q 545 494 540 499 q 560 490 550 490 q 585 494 569 490 q 619 519 597 500 q 646 540 642 540 q 650 539 649 540 q 644 518 654 531 q 668 513 644 515 q 701 513 690 510 q 717 518 708 515 q 736 526 726 521 q 756 536 754 536 q 758 535 758 536 q 739 503 761 521 q 753 489 746 496 q 769 475 761 482 q 846 432 803 446 q 936 415 881 422 q 972 403 972 408 q 929 396 972 394 q 853 408 888 399 q 753 463 796 425 l 717 499 q 686 494 693 494 q 628 504 653 494 l 608 486 q 630 481 619 483 q 650 476 640 479 q 696 453 693 464 q 700 435 700 442 q 681 396 700 415 q 709 380 693 396 q 725 351 725 364 q 703 315 725 332 q 725 306 718 311 q 747 275 746 293 q 729 231 749 250 q 735 231 731 231 q 746 229 739 231 q 763 229 756 229 q 776 231 769 229 q 876 247 826 233 q 978 282 926 260 q 1058 319 1054 313 l 1058 304 q 1086 304 1060 303 l 1086 514 m 618 604 q 449 603 533 604 q 281 599 365 601 q 216 596 242 597 q 179 592 190 594 q 142 565 143 585 q 174 536 142 544 q 281 528 197 532 q 398 523 335 525 q 536 518 461 521 q 547 534 540 524 q 564 560 554 544 q 618 604 578 585 m 1165 557 l 1106 557 l 1106 282 l 1165 282 l 1165 557 m 667 407 q 679 431 679 417 q 640 463 679 457 q 519 467 590 472 q 446 450 472 468 q 438 433 438 443 q 469 406 438 406 q 547 403 472 403 q 667 407 656 403 m 703 351 q 642 383 703 383 l 508 383 q 483 373 494 383 q 471 351 471 363 q 490 324 471 335 q 512 321 493 322 q 563 318 531 319 q 629 318 622 315 q 671 324 653 318 q 703 346 701 332 l 703 351 m 725 274 q 682 297 721 297 l 615 297 q 578 297 600 297 q 529 296 557 297 q 503 268 503 294 q 521 240 503 246 q 608 232 543 233 q 674 235 671 232 q 706 243 689 235 q 725 274 729 256 z "},"☞":{"ha":1306,"x_min":118,"x_max":1190,"o":"m 219 581 l 219 538 q 301 544 296 539 q 474 621 369 606 q 635 625 511 625 q 866 623 769 625 q 1026 618 963 621 q 1071 617 1049 617 q 1117 614 1093 617 q 1186 569 1183 607 q 1122 514 1190 524 q 1018 508 1121 513 q 875 501 933 504 q 785 497 817 499 l 781 486 q 893 432 893 482 q 876 401 892 415 q 843 388 860 388 q 858 349 858 368 q 850 324 858 336 q 806 301 836 301 q 828 265 828 293 q 801 225 828 239 q 751 213 778 213 q 644 208 747 211 q 489 213 532 207 q 329 257 407 225 q 294 272 311 264 q 258 289 276 281 l 222 289 l 222 260 l 118 260 l 118 581 l 219 581 m 219 304 q 247 304 246 303 l 247 319 q 328 282 250 313 q 429 247 379 260 q 529 231 479 233 q 543 229 536 229 q 560 229 550 229 q 571 231 567 231 q 576 231 575 231 q 558 275 557 250 q 581 306 560 293 q 603 315 588 311 q 581 351 581 332 q 597 380 581 364 q 625 396 613 396 q 606 435 606 415 q 610 453 606 442 q 656 476 613 464 q 676 481 665 479 q 697 486 686 483 l 678 504 q 619 494 653 494 q 589 499 611 494 l 553 463 q 453 408 508 425 q 376 396 418 399 q 333 403 333 394 q 369 415 333 408 q 460 432 425 422 q 536 475 503 446 q 552 489 544 482 q 567 503 560 496 q 547 535 544 521 q 550 536 547 536 q 569 526 551 536 q 588 518 579 521 q 604 513 597 515 q 638 513 614 510 q 661 518 661 515 q 656 539 651 531 q 660 540 657 540 q 686 519 663 540 q 721 494 708 500 q 746 490 735 490 q 760 494 756 490 q 764 500 765 499 q 736 536 751 508 q 707 571 722 563 q 617 604 675 592 q 588 606 613 606 q 367 567 426 606 q 306 518 335 547 q 278 492 281 492 q 275 496 275 492 q 281 518 275 506 q 267 518 274 518 q 251 517 260 518 q 228 515 236 515 q 219 514 221 514 l 219 304 m 688 604 q 742 560 728 585 q 758 534 751 544 q 769 518 765 524 q 908 523 844 521 q 1025 528 971 525 q 1132 536 1108 532 q 1164 565 1164 544 q 1126 592 1163 585 q 1090 596 1115 594 q 1025 599 1064 597 q 856 603 940 601 q 688 604 772 604 m 200 557 l 140 557 l 140 282 l 200 282 l 200 557 m 639 407 q 758 403 649 403 q 836 406 833 403 q 868 433 868 406 q 860 450 868 443 q 786 467 833 468 q 665 463 715 472 q 626 431 626 457 q 639 407 626 417 m 603 346 q 635 324 604 332 q 676 318 653 318 q 743 318 682 315 q 794 321 775 319 q 815 324 813 322 q 835 351 835 335 q 823 373 835 363 q 797 383 811 383 l 664 383 q 603 351 603 383 l 603 346 m 581 274 q 600 243 576 256 q 632 235 617 235 q 697 232 635 232 q 785 240 761 233 q 803 268 803 246 q 776 296 803 294 q 727 297 749 297 q 690 297 706 297 l 624 297 q 581 274 585 297 z "},"¶":{"ha":778,"x_min":85,"x_max":647,"o":"m 357 351 l 347 351 q 258 370 304 351 q 173 426 211 389 q 110 517 135 463 q 85 643 85 572 q 102 760 85 701 q 164 867 119 819 q 284 943 208 914 q 478 972 360 972 q 578 969 538 972 q 647 958 618 965 l 647 -100 l 538 -100 l 538 865 l 469 865 l 469 -100 l 357 -100 l 357 351 z "},"†":{"ha":889,"x_min":111,"x_max":776,"o":"m 507 500 l 507 -104 l 381 -104 l 381 500 l 111 500 l 111 615 l 381 615 l 381 926 l 507 926 l 507 615 l 776 615 l 776 500 l 507 500 z "},"‡":{"ha":889,"x_min":111,"x_max":776,"o":"m 381 474 l 381 631 l 111 631 l 111 746 l 381 746 l 381 926 l 507 926 l 507 746 l 776 746 l 776 631 l 507 631 l 507 474 l 776 474 l 776 358 l 507 358 l 507 -104 l 381 -104 l 381 358 l 111 358 l 111 474 l 381 474 z "},"↕":{"ha":972,"x_min":244,"x_max":725,"o":"m 725 86 l 485 -240 l 244 86 l 421 86 l 421 749 l 244 749 l 485 1075 l 725 749 l 547 749 l 547 86 l 725 86 z "},"↗":{"ha":1306,"x_min":46,"x_max":1251,"o":"m 851 1042 l 1251 1061 l 1228 661 l 1086 818 l 126 -244 l 46 -176 l 1011 893 l 851 1042 z "},"↙":{"ha":1306,"x_min":53,"x_max":1257,"o":"m 453 -221 l 53 -240 l 76 160 l 218 3 l 1176 1067 l 1257 999 l 293 -72 l 453 -221 z "},"↖":{"ha":1306,"x_min":50,"x_max":1256,"o":"m 290 893 l 1256 -176 l 1175 -244 l 215 818 l 74 661 l 50 1061 l 450 1042 l 290 893 z "},"↘":{"ha":1306,"x_min":51,"x_max":1256,"o":"m 1015 -75 l 51 996 l 132 1064 l 1090 0 l 1232 157 l 1256 -243 l 856 -224 l 1015 -75 z "},"♭":{"ha":806,"x_min":138,"x_max":667,"o":"m 667 419 q 622 228 667 314 q 503 82 576 143 q 334 -13 429 21 q 138 -49 239 -47 l 138 957 l 283 957 l 283 533 q 369 596 318 575 q 468 617 421 617 q 614 567 561 617 q 667 419 667 517 m 522 376 q 519 423 522 401 q 508 460 517 444 q 481 484 499 475 q 435 493 464 493 q 385 480 408 493 q 341 446 361 467 q 306 399 321 425 q 283 349 292 374 l 283 89 q 381 131 336 103 q 456 196 425 158 q 505 279 488 233 q 522 376 522 325 z "},"♩":{"ha":556,"x_min":88,"x_max":411,"o":"m 411 101 q 392 21 411 61 q 341 -52 372 -19 q 270 -105 310 -85 q 189 -125 231 -125 q 88 -36 88 -125 q 103 19 88 -8 q 145 67 119 46 q 205 101 171 88 q 275 114 239 114 q 297 113 290 114 q 307 113 303 113 q 327 118 318 113 q 336 143 336 124 l 336 992 l 411 992 l 411 101 l 411 101 z "},"♪":{"ha":833,"x_min":72,"x_max":754,"o":"m 357 989 q 453 866 399 921 q 582 754 507 811 q 656 692 624 722 q 710 627 688 661 q 743 552 732 593 q 754 460 754 511 q 738 363 754 410 q 692 273 721 315 q 626 193 664 231 q 546 125 589 156 l 522 149 q 628 303 597 233 q 660 426 660 372 q 652 483 660 457 q 621 535 644 510 q 569 583 597 561 q 513 624 542 604 q 453 664 483 643 q 396 711 422 685 l 396 101 q 376 21 396 61 q 326 -52 357 -19 q 255 -105 294 -85 q 174 -125 215 -125 q 72 -36 72 -125 q 88 19 72 -8 q 130 67 104 46 q 190 101 156 88 q 260 114 224 114 q 281 113 275 114 q 292 113 288 113 q 312 118 303 113 q 321 143 321 124 l 321 989 l 357 989 z "},"♬":{"ha":1167,"x_min":81,"x_max":1017,"o":"m 411 492 l 411 101 q 391 21 411 61 q 338 -52 371 -19 q 265 -105 306 -85 q 182 -125 224 -125 q 81 -36 81 -125 q 97 19 81 -8 q 138 67 113 46 q 198 101 164 88 q 268 114 232 114 q 290 113 283 114 q 300 113 296 113 q 324 118 311 113 q 336 143 336 124 l 336 869 l 1017 1019 l 1017 251 q 999 171 1017 211 q 951 98 981 131 q 882 45 921 65 q 801 25 843 25 q 700 114 700 25 q 716 169 700 142 q 758 217 732 196 q 817 251 783 238 q 888 264 851 264 q 909 263 903 264 q 919 263 915 263 q 936 268 931 263 q 942 293 942 274 l 942 607 l 411 492 m 942 843 l 411 721 l 411 647 l 942 772 l 942 843 z "},"㉿":{"ha":1306,"x_min":69,"x_max":1236,"o":"m 1090 617 q 1019 738 1064 685 q 915 829 974 792 q 790 888 857 867 q 650 910 722 908 q 481 882 563 911 q 335 799 400 853 q 229 667 271 744 q 179 493 188 589 l 339 493 l 339 396 l 69 396 l 69 424 q 115 660 69 553 q 240 845 161 768 q 425 965 319 922 q 650 1007 531 1007 q 828 978 742 1007 q 987 899 914 950 q 1115 776 1060 849 q 1200 617 1171 704 l 1090 617 m 794 125 l 567 388 l 561 381 l 561 125 l 447 125 l 447 749 l 561 749 l 561 514 l 760 743 l 903 743 l 644 454 l 946 125 l 794 125 m 1236 424 q 1190 197 1236 303 q 1063 11 1143 90 q 877 -114 983 -68 q 650 -160 771 -160 q 458 -126 551 -160 q 287 -31 364 -92 q 156 113 210 29 q 82 294 101 196 l 189 296 q 253 152 208 218 q 358 38 297 86 q 494 -37 419 -10 q 650 -64 569 -64 q 831 -28 744 -64 q 985 69 918 7 q 1094 216 1053 132 q 1138 396 1135 300 l 869 396 l 869 493 l 1232 493 q 1236 424 1236 457 z "},"㈜":{"ha":1306,"x_min":36,"x_max":1274,"o":"m 321 733 l 576 733 q 538 663 565 694 q 472 605 511 631 q 385 561 433 579 q 283 531 336 543 l 332 419 q 511 486 428 439 q 651 608 594 533 q 793 486 710 533 q 972 419 876 439 l 1021 531 q 918 561 967 543 q 831 605 869 579 q 765 663 792 631 q 728 733 738 694 l 983 733 l 983 847 l 321 847 l 321 733 m 719 -42 l 719 257 l 1083 257 l 1083 376 l 218 376 l 218 257 l 581 257 l 581 -42 l 719 -42 m 965 1001 l 1064 1001 q 1224 728 1175 881 q 1274 417 1274 575 q 1262 257 1274 339 q 1225 97 1250 175 q 1160 -52 1200 19 q 1065 -181 1121 -124 l 964 -181 q 1053 -49 1015 -121 q 1117 99 1092 22 q 1154 258 1142 176 q 1167 417 1167 339 q 1154 575 1167 496 q 1117 730 1142 654 q 1054 875 1092 806 q 965 1001 1017 944 m 344 1001 l 246 1001 q 85 728 135 881 q 36 417 36 575 q 48 257 36 339 q 85 97 60 175 q 149 -52 110 19 q 244 -181 189 -124 l 346 -181 q 256 -49 294 -121 q 193 99 218 22 q 156 258 168 176 q 143 417 143 339 q 156 575 143 496 q 193 730 168 654 q 256 875 218 806 q 344 1001 293 944 z "},"№":{"ha":1306,"x_min":54,"x_max":1258,"o":"m 550 -60 l 390 -60 l 192 635 l 192 -60 l 54 -60 l 54 932 l 221 932 l 413 243 l 413 932 l 550 932 l 550 -60 m 847 -75 q 735 -44 781 -75 q 660 37 689 -14 q 619 154 632 88 q 607 293 607 221 q 619 438 607 369 q 660 557 632 506 q 734 639 688 608 q 847 669 781 669 q 961 639 915 669 q 1035 557 1007 608 q 1075 438 1063 506 q 1088 293 1088 369 q 1075 154 1088 221 q 1034 37 1063 88 q 960 -44 1006 -14 q 847 -75 914 -75 m 847 561 q 796 539 815 561 q 765 479 776 517 q 749 393 753 442 q 744 293 744 344 q 751 188 744 235 q 772 106 758 140 q 803 52 785 71 q 847 33 822 33 q 892 52 872 33 q 924 106 911 71 q 943 188 936 140 q 950 293 950 235 q 946 393 950 344 q 931 479 942 442 q 899 539 919 517 q 847 561 879 561 m 1258 -62 l 1104 -62 l 1104 92 l 1258 92 l 1258 -62 z "},"㏇":{"ha":1306,"x_min":56,"x_max":1258,"o":"m 56 431 q 78 640 56 546 q 142 799 100 733 q 247 901 185 865 q 390 938 310 938 q 585 857 504 938 l 529 749 q 467 797 500 778 q 389 815 433 815 q 295 778 332 815 q 236 683 258 740 q 206 558 214 626 q 197 431 197 490 q 206 306 197 374 q 236 181 214 239 q 295 85 258 124 q 389 47 332 47 q 471 65 435 47 q 543 124 507 83 l 601 26 q 506 -51 560 -26 q 390 -75 453 -75 q 247 -38 310 -75 q 142 65 185 -1 q 78 225 100 132 q 56 431 56 318 m 847 -75 q 735 -44 781 -75 q 660 37 689 -14 q 619 154 632 88 q 607 293 607 221 q 619 438 607 369 q 660 557 632 506 q 734 639 688 608 q 847 669 781 669 q 961 639 915 669 q 1035 557 1007 608 q 1075 438 1063 506 q 1088 293 1088 369 q 1075 154 1088 221 q 1034 37 1063 88 q 960 -44 1006 -14 q 847 -75 914 -75 m 847 561 q 796 539 815 561 q 765 479 776 517 q 749 393 753 442 q 744 293 744 344 q 751 188 744 235 q 772 106 758 140 q 803 52 785 71 q 847 33 822 33 q 892 52 872 33 q 924 106 911 71 q 943 188 936 140 q 950 293 950 235 q 946 393 950 344 q 931 479 942 442 q 899 539 919 517 q 847 561 879 561 m 1258 -62 l 1104 -62 l 1104 92 l 1258 92 l 1258 -62 z "},"™":{"ha":1111,"x_min":57,"x_max":1039,"o":"m 921 504 l 921 735 l 831 504 l 756 504 l 661 739 l 661 504 l 543 504 l 543 999 l 654 999 l 792 679 l 925 999 l 1039 999 l 1039 504 l 921 504 m 335 886 l 335 504 l 206 504 l 206 886 l 57 886 l 57 999 l 486 999 l 486 886 l 335 886 z "},"㏂":{"ha":1306,"x_min":56,"x_max":1244,"o":"m 988 451 q 983 533 988 511 q 963 556 979 556 q 930 536 946 556 q 901 489 914 517 l 901 -60 l 774 -60 l 774 442 q 764 530 774 507 q 736 553 754 553 q 708 532 718 553 q 688 472 697 511 l 688 -60 l 558 -60 l 558 653 l 681 653 l 681 629 q 718 660 697 653 q 756 668 739 668 q 814 643 786 668 q 860 569 842 618 q 916 645 882 622 q 981 668 950 668 q 1085 615 1054 668 q 1117 457 1117 563 l 1117 -60 l 988 -60 l 988 451 m 56 131 q 68 230 56 183 q 107 311 81 276 q 175 366 133 346 q 275 386 217 386 l 275 408 q 273 453 275 428 q 264 501 271 479 q 243 539 257 524 q 206 554 229 554 q 113 488 167 554 l 65 572 q 139 643 97 617 q 232 669 181 669 q 316 644 283 669 q 367 578 349 619 q 392 484 386 536 q 399 378 399 432 l 399 -60 l 276 -60 l 276 -39 q 238 -67 260 -58 q 197 -76 215 -76 q 133 -59 160 -76 q 89 -12 106 -42 q 64 53 72 17 q 56 131 56 90 m 275 285 q 199 244 222 282 q 175 146 175 207 q 189 61 175 86 q 222 36 203 36 q 248 49 238 36 q 265 83 258 63 q 273 125 271 103 q 275 167 275 147 l 275 285 m 1244 -60 l 1151 -60 l 1151 89 l 1244 89 l 1244 -60 m 526 -60 l 433 -60 l 433 89 l 526 89 l 526 -60 z "},"㏘":{"ha":1306,"x_min":56,"x_max":1244,"o":"m 988 451 q 983 533 988 511 q 963 556 979 556 q 930 536 946 556 q 901 489 914 517 l 901 -60 l 774 -60 l 774 442 q 764 530 774 507 q 736 553 754 553 q 708 532 718 553 q 688 472 697 511 l 688 -60 l 558 -60 l 558 653 l 681 653 l 681 629 q 718 660 697 653 q 756 668 739 668 q 814 643 786 668 q 860 569 842 618 q 916 645 882 622 q 981 668 950 668 q 1085 615 1054 668 q 1117 457 1117 563 l 1117 -60 l 988 -60 l 988 451 m 171 654 l 171 626 q 211 658 189 647 q 254 669 233 669 q 436 288 436 669 q 427 138 436 206 q 398 23 418 71 q 345 -51 378 -25 q 265 -76 313 -76 q 223 -67 244 -76 q 185 -39 201 -58 l 185 -306 l 56 -306 l 56 654 l 171 654 m 181 213 q 195 85 181 135 q 242 36 210 36 q 279 57 265 36 q 300 113 293 78 q 309 194 307 149 q 311 292 311 240 q 309 399 311 350 q 299 483 307 449 q 278 538 292 518 q 240 557 264 557 q 197 506 213 557 q 181 379 181 454 l 181 213 m 1244 -60 l 1151 -60 l 1151 89 l 1244 89 l 1244 -60 m 526 -60 l 433 -60 l 433 89 l 526 89 l 526 -60 z "},"℡":{"ha":1306,"x_min":11,"x_max":1229,"o":"m 11 807 l 11 932 l 592 932 l 592 807 l 371 807 l 371 -60 l 222 -60 l 222 807 l 11 807 m 744 551 q 688 534 711 551 q 651 491 665 517 q 628 435 636 465 q 618 378 621 404 l 857 378 q 848 435 854 404 q 829 491 842 465 q 796 534 817 517 q 744 551 775 551 m 986 11 q 760 -74 881 -74 q 651 -50 703 -74 q 562 20 600 -26 q 501 137 524 67 q 479 299 479 207 q 497 448 479 379 q 549 565 515 517 q 633 642 583 614 q 744 669 682 669 q 877 631 826 669 q 956 533 928 593 q 992 401 983 474 q 999 257 1000 328 l 618 257 q 660 100 622 151 q 768 49 699 49 q 852 64 810 49 q 947 115 894 79 l 986 11 m 1229 974 l 1229 -60 l 1085 -60 l 1085 974 l 1229 974 z "},"！":{"ha":1250,"x_min":556,"x_max":694,"o":"m 556 118 l 556 989 l 694 989 l 694 118 l 556 118 m 556 -28 l 694 -28 l 694 -175 l 556 -175 l 556 -28 z "},"＂":{"ha":1250,"x_min":429,"x_max":821,"o":"m 582 617 l 429 617 l 429 958 l 582 958 l 582 617 m 821 686 l 668 686 l 668 1028 l 821 1028 l 821 686 z "},"＃":{"ha":1250,"x_min":119,"x_max":1129,"o":"m 175 669 l 431 669 l 496 933 l 625 933 l 560 669 l 840 669 l 904 933 l 1035 933 l 969 669 l 1129 669 l 1129 556 l 942 556 l 864 239 l 1074 239 l 1074 125 l 836 125 l 769 -146 l 642 -146 l 707 125 l 426 125 l 360 -146 l 231 -146 l 297 125 l 119 125 l 119 239 l 325 239 l 403 556 l 175 556 l 175 669 m 454 239 l 735 239 l 813 556 l 532 556 l 454 239 z "},"＄":{"ha":1250,"x_min":239,"x_max":1011,"o":"m 694 1003 l 694 915 q 835 870 765 903 q 971 793 906 838 l 911 696 q 808 760 864 733 q 694 799 753 786 l 694 454 q 855 390 793 422 q 951 324 917 358 q 999 249 986 289 q 1011 163 1011 210 q 987 56 1011 103 q 920 -25 963 8 q 820 -78 878 -58 q 694 -104 763 -99 l 694 -201 l 569 -201 l 569 -103 q 388 -54 468 -92 q 239 35 307 -17 l 301 138 q 416 56 350 90 q 569 11 482 22 l 569 369 q 333 484 410 418 q 256 658 256 550 q 281 769 256 722 q 348 849 306 817 q 447 899 390 881 q 569 921 504 917 l 569 1003 l 694 1003 m 872 160 q 865 215 872 190 q 838 260 858 239 q 783 298 818 281 q 694 333 749 315 l 694 8 q 831 60 789 17 q 872 160 872 103 m 394 663 q 402 610 394 633 q 429 567 410 588 q 483 529 449 547 q 569 493 517 511 l 569 807 q 434 760 474 800 q 394 663 394 721 z "},"％":{"ha":1250,"x_min":79,"x_max":1169,"o":"m 129 -146 l 951 933 l 1107 933 l 285 -146 l 129 -146 m 79 722 q 101 824 79 779 q 158 899 122 868 q 242 945 194 929 q 340 961 289 961 q 439 945 392 961 q 522 899 486 929 q 579 824 558 868 q 600 722 600 779 q 579 622 600 667 q 522 547 558 578 q 439 501 486 517 q 340 485 392 485 q 242 501 289 485 q 158 547 194 517 q 101 622 122 578 q 79 722 79 665 m 340 582 q 398 593 372 582 q 442 624 424 604 q 471 669 461 643 q 481 722 481 694 q 442 824 481 785 q 340 863 404 863 q 279 851 306 863 q 235 821 253 840 q 208 776 217 801 q 199 722 199 750 q 235 624 199 665 q 340 582 271 582 m 649 65 q 670 167 649 122 q 728 242 692 211 q 811 288 764 272 q 910 304 858 304 q 1008 288 961 304 q 1092 242 1056 272 q 1149 167 1128 211 q 1169 65 1169 122 q 1149 -35 1169 10 q 1092 -110 1128 -79 q 1008 -156 1056 -140 q 910 -172 961 -172 q 811 -156 858 -172 q 728 -110 764 -140 q 670 -35 692 -79 q 649 65 649 8 m 910 -75 q 967 -64 942 -75 q 1012 -33 993 -53 q 1040 12 1031 -14 q 1050 65 1050 38 q 1012 167 1050 128 q 910 206 974 206 q 849 194 875 206 q 804 164 822 183 q 777 119 786 144 q 768 65 768 93 q 804 -33 768 8 q 910 -75 840 -75 z "},"＆":{"ha":1250,"x_min":131,"x_max":1119,"o":"m 871 -56 q 718 -142 806 -110 q 513 -174 631 -174 q 354 -151 425 -174 q 234 -91 283 -129 q 158 -3 185 -53 q 131 103 131 47 q 141 192 131 150 q 181 274 151 235 q 261 351 210 314 q 393 422 313 388 q 346 480 369 449 q 303 546 322 511 q 273 617 285 581 q 261 692 261 654 q 285 798 261 749 q 350 883 308 847 q 450 940 392 919 q 578 961 508 961 q 706 940 650 961 q 802 884 763 919 q 863 801 842 849 q 883 701 883 754 q 869 608 883 650 q 822 527 856 565 q 733 453 789 489 q 594 381 678 418 l 858 115 q 915 239 894 172 q 946 376 936 306 l 1076 376 q 1032 190 1063 281 q 947 25 1001 100 l 1119 -147 l 963 -147 l 871 -56 m 529 -60 q 674 -35 611 -60 q 785 29 736 -11 l 481 333 q 379 281 419 306 q 315 229 339 256 q 280 175 290 203 q 269 115 269 147 q 339 -18 269 24 q 529 -60 408 -60 m 400 692 q 424 589 400 642 q 510 468 449 536 q 615 518 571 493 q 688 570 660 543 q 731 628 717 597 q 744 699 744 660 q 733 755 744 728 q 701 802 722 782 q 649 835 681 822 q 578 847 618 847 q 451 805 501 847 q 400 692 400 763 z "},"＇":{"ha":1250,"x_min":549,"x_max":701,"o":"m 701 686 l 549 686 l 549 1028 l 701 1028 l 701 686 z "},"（":{"ha":1250,"x_min":633,"x_max":1060,"o":"m 633 401 q 703 732 633 586 q 901 1003 774 878 l 1060 1003 q 944 873 997 940 q 853 731 892 806 q 794 575 815 657 q 772 401 772 493 q 794 228 772 310 q 853 71 815 146 q 944 -72 892 -4 q 1060 -201 997 -139 l 901 -201 q 704 72 775 -75 q 633 401 633 218 z "},"）":{"ha":1250,"x_min":189,"x_max":615,"o":"m 615 401 q 544 72 615 218 q 347 -201 474 -75 l 189 -201 q 304 -72 251 -139 q 395 71 357 -4 q 455 228 433 146 q 476 401 476 310 q 455 575 476 493 q 395 731 433 657 q 304 873 357 806 q 189 1003 251 940 l 347 1003 q 545 732 475 878 q 615 401 615 586 z "},"＊":{"ha":1250,"x_min":358,"x_max":892,"o":"m 892 725 l 713 664 l 838 506 l 751 442 l 628 611 l 506 443 l 421 504 l 540 664 l 358 719 l 397 833 l 572 754 l 572 968 l 681 968 l 681 754 l 854 829 l 892 725 z "},"＋":{"ha":1250,"x_min":278,"x_max":972,"o":"m 278 476 l 556 476 l 556 739 l 694 739 l 694 476 l 972 476 l 972 363 l 694 363 l 694 76 l 556 76 l 556 363 l 278 363 l 278 476 z "},"，":{"ha":1250,"x_min":269,"x_max":425,"o":"m 425 -153 q 392 -292 425 -247 q 269 -349 358 -337 l 269 -269 q 329 -242 313 -264 q 346 -156 346 -219 l 272 -156 l 272 -7 l 425 -7 l 425 -153 z "},"－":{"ha":1250,"x_min":278,"x_max":972,"o":"m 278 476 l 972 476 l 972 363 l 278 363 l 278 476 z "},"．":{"ha":1250,"x_min":271,"x_max":424,"o":"m 424 -156 l 271 -156 l 271 -7 l 424 -7 l 424 -156 z "},"／":{"ha":1250,"x_min":278,"x_max":971,"o":"m 278 -146 l 819 933 l 971 933 l 431 -146 l 278 -146 z "},"０":{"ha":1250,"x_min":189,"x_max":1061,"o":"m 189 394 q 220 630 189 525 q 308 808 251 735 q 446 921 365 882 q 625 960 526 960 q 801 921 721 960 q 940 808 882 882 q 1029 630 997 735 q 1061 394 1061 525 q 1031 158 1061 263 q 944 -21 1000 53 q 806 -134 888 -94 q 625 -174 725 -174 q 446 -134 526 -174 q 308 -21 365 -94 q 220 158 251 53 q 189 394 189 263 m 328 394 q 356 194 328 279 q 426 52 383 108 q 522 -32 469 -4 q 625 -60 575 -60 q 731 -32 678 -60 q 826 52 783 -4 q 896 194 869 108 q 922 394 922 279 q 896 593 922 508 q 826 734 869 678 q 731 818 783 790 q 625 846 678 846 q 522 818 575 846 q 426 734 469 790 q 356 593 383 678 q 328 394 328 508 z "},"１":{"ha":1250,"x_min":458,"x_max":792,"o":"m 458 933 l 792 933 l 792 -146 l 653 -146 l 653 819 l 458 819 l 458 933 z "},"２":{"ha":1250,"x_min":224,"x_max":1025,"o":"m 246 -146 l 246 -50 l 608 282 q 690 358 649 318 q 766 442 732 399 q 822 532 800 486 q 843 626 843 578 q 782 791 843 738 q 610 844 721 844 q 518 826 560 844 q 442 775 476 807 q 383 701 408 743 q 342 613 357 658 l 224 674 q 372 884 269 808 q 629 960 474 960 q 888 873 793 960 q 982 622 983 786 q 958 513 982 568 q 898 406 935 458 q 815 304 861 353 q 724 214 769 256 l 457 -31 l 1025 -31 l 1025 -146 l 246 -146 z "},"３":{"ha":1250,"x_min":219,"x_max":1029,"o":"m 247 718 q 304 819 268 774 q 388 895 340 864 q 493 943 436 926 q 613 960 550 960 q 776 937 704 960 q 898 874 849 914 q 973 778 947 833 q 999 661 999 724 q 987 577 999 618 q 953 502 975 536 q 900 443 932 468 q 829 406 868 418 q 904 374 868 396 q 968 318 940 351 q 1013 241 996 285 q 1029 146 1029 197 q 994 -1 1029 60 q 902 -101 960 -62 q 769 -156 844 -139 q 611 -174 693 -174 q 490 -160 549 -174 q 381 -117 432 -146 q 288 -43 329 -87 q 219 61 247 1 l 344 119 q 447 -12 374 35 q 610 -60 519 -60 q 713 -49 663 -60 q 802 -13 763 -37 q 866 49 842 11 q 890 140 890 86 q 867 235 890 196 q 804 297 843 274 q 715 332 765 321 q 613 343 665 343 l 513 343 l 513 457 l 613 457 q 709 469 664 457 q 788 505 754 481 q 840 565 821 529 q 860 649 860 600 q 839 738 860 700 q 783 799 818 775 q 702 834 749 822 q 606 846 656 846 q 532 832 568 846 q 465 793 496 818 q 409 735 433 768 q 369 663 385 701 l 247 718 z "},"４":{"ha":1250,"x_min":210,"x_max":1039,"o":"m 210 89 l 210 203 l 726 933 l 883 933 l 883 203 l 1039 203 l 1039 89 l 883 89 l 883 -146 l 744 -146 l 744 89 l 210 89 m 744 746 l 361 203 l 744 203 l 744 746 z "},"５":{"ha":1250,"x_min":221,"x_max":1029,"o":"m 351 143 q 453 -7 388 47 q 622 -61 519 -61 q 731 -40 682 -61 q 816 17 781 -18 q 871 99 851 53 q 890 196 890 146 q 871 301 890 254 q 815 383 851 349 q 728 437 779 418 q 611 456 676 456 q 494 419 544 456 q 404 325 444 383 l 261 325 l 261 933 l 971 933 l 971 818 l 400 818 l 400 478 q 651 571 504 571 q 801 544 732 571 q 922 468 871 517 q 1001 351 972 419 q 1029 199 1029 282 q 1003 57 1029 125 q 925 -63 976 -11 q 797 -146 874 -115 q 621 -176 721 -176 q 363 -104 463 -176 q 221 92 264 -32 l 351 143 z "},"６":{"ha":1250,"x_min":224,"x_max":1026,"o":"m 728 933 l 507 543 q 575 560 539 556 q 650 565 611 565 q 797 535 728 565 q 916 456 865 506 q 997 340 967 406 q 1026 204 1026 275 q 994 45 1026 115 q 905 -74 961 -25 q 773 -148 849 -122 q 611 -174 697 -174 q 463 -148 533 -174 q 340 -75 393 -122 q 256 40 288 -28 q 224 194 224 108 q 254 338 224 258 q 338 515 285 417 l 568 933 l 728 933 m 619 -58 q 728 -37 679 -58 q 813 20 778 -15 q 868 102 849 56 q 888 199 888 149 q 869 297 888 251 q 815 377 850 343 q 731 431 781 411 q 619 450 682 450 q 510 428 557 450 q 431 372 463 407 q 382 291 399 336 q 365 199 365 246 q 383 102 365 149 q 433 20 400 56 q 513 -37 465 -15 q 619 -58 560 -58 z "},"７":{"ha":1250,"x_min":249,"x_max":1001,"o":"m 493 -146 l 347 -146 l 825 819 l 249 819 l 249 933 l 1001 933 l 1001 881 l 493 -146 z "},"８":{"ha":1250,"x_min":228,"x_max":1022,"o":"m 625 -174 q 471 -151 543 -174 q 344 -89 399 -129 q 259 8 290 -49 q 228 132 228 64 q 248 242 228 194 q 299 323 268 289 q 369 378 331 357 q 443 411 407 400 q 376 440 410 419 q 317 493 343 461 q 276 569 292 525 q 260 668 260 613 q 287 781 260 728 q 363 874 314 835 q 479 938 413 914 q 625 961 546 961 q 771 938 704 961 q 887 874 838 914 q 963 781 936 835 q 990 668 990 728 q 974 569 990 613 q 933 493 958 525 q 874 440 907 461 q 807 411 840 419 q 881 378 843 400 q 951 323 919 357 q 1002 242 982 289 q 1022 132 1022 194 q 991 8 1022 64 q 906 -89 960 -49 q 779 -151 851 -129 q 625 -174 707 -174 m 625 -60 q 723 -47 676 -60 q 805 -8 769 -33 q 862 56 840 18 q 883 142 883 93 q 863 228 883 190 q 808 292 843 267 q 726 331 772 318 q 625 344 679 344 q 524 331 571 344 q 442 292 478 318 q 387 228 407 267 q 367 142 367 190 q 388 56 367 93 q 445 -8 410 18 q 527 -47 481 -33 q 625 -60 574 -60 m 625 467 q 714 481 672 467 q 786 519 756 494 q 834 578 817 544 q 851 653 851 613 q 835 727 851 692 q 788 790 818 763 q 717 832 758 817 q 625 847 675 847 q 533 832 575 847 q 462 790 492 817 q 415 727 432 763 q 399 653 399 692 q 416 578 399 613 q 464 519 433 544 q 535 481 494 494 q 625 467 576 467 z "},"９":{"ha":1250,"x_min":224,"x_max":1026,"o":"m 522 -146 l 743 244 q 675 227 711 232 q 600 222 639 222 q 453 252 522 222 q 334 332 385 282 q 253 447 283 382 q 224 583 224 513 q 256 742 224 672 q 345 861 289 813 q 477 935 401 910 q 639 961 553 961 q 786 935 715 961 q 910 863 857 910 q 994 747 963 815 q 1026 593 1026 678 q 996 450 1026 529 q 913 272 965 371 l 682 -146 l 522 -146 m 631 846 q 522 824 571 846 q 437 767 472 803 q 382 685 401 732 q 363 589 363 639 q 381 490 363 536 q 435 410 400 444 q 519 357 469 376 q 631 338 568 338 q 740 359 693 338 q 819 416 788 381 q 868 497 851 451 q 885 589 885 542 q 867 685 885 639 q 817 767 850 732 q 738 824 785 803 q 631 846 690 846 z "},"：":{"ha":1250,"x_min":549,"x_max":701,"o":"m 701 -7 l 549 -7 l 549 142 l 701 142 l 701 -7 m 701 681 l 549 681 l 549 829 l 701 829 l 701 681 z "},"；":{"ha":1250,"x_min":546,"x_max":701,"o":"m 701 681 l 549 681 l 549 829 l 701 829 l 701 681 m 701 -18 q 663 -140 701 -92 q 546 -200 625 -189 l 546 -121 q 606 -85 590 -115 q 622 -7 622 -56 l 549 -7 l 549 142 l 701 142 l 701 -18 z "},"＜":{"ha":1250,"x_min":486,"x_max":1086,"o":"m 607 396 l 1086 -128 l 997 -217 l 486 339 l 486 453 l 997 1008 l 1086 919 l 607 396 z "},"＝":{"ha":1250,"x_min":285,"x_max":965,"o":"m 285 643 l 965 643 l 965 529 l 285 529 l 285 643 m 285 310 l 965 310 l 965 196 l 285 196 l 285 310 z "},"＞":{"ha":1250,"x_min":164,"x_max":764,"o":"m 164 919 l 253 1008 l 764 453 l 764 339 l 253 -217 l 164 -128 l 643 396 l 164 919 z "},"？":{"ha":1250,"x_min":254,"x_max":994,"o":"m 547 118 l 547 453 q 661 472 606 456 q 760 519 717 489 q 829 593 803 549 q 856 697 856 638 q 835 791 856 751 q 781 856 815 831 q 703 892 747 881 q 613 903 660 903 q 525 885 564 903 q 456 840 486 868 q 406 775 426 813 q 372 696 385 738 l 254 746 q 313 870 276 818 q 399 955 350 922 q 506 1003 447 988 q 629 1018 564 1018 q 791 994 722 1018 q 905 930 860 971 q 972 833 950 889 q 994 714 994 778 q 914 486 994 571 q 686 365 833 401 l 686 118 l 547 118 m 547 -28 l 686 -28 l 686 -175 l 547 -175 l 547 -28 z "},"＠":{"ha":1250,"x_min":31,"x_max":1218,"o":"m 976 -126 q 804 -175 889 -162 q 621 -187 719 -187 q 388 -143 496 -187 q 200 -21 279 -99 q 76 164 121 57 q 31 396 31 271 q 76 623 31 517 q 201 808 121 729 q 390 931 281 886 q 625 976 499 976 q 863 935 754 976 q 1051 822 972 893 q 1174 652 1131 750 q 1218 440 1218 554 q 1199 303 1218 365 q 1142 196 1179 240 q 1053 127 1106 151 q 933 103 1000 103 q 844 131 885 103 q 790 204 804 160 q 706 136 760 163 q 581 110 651 110 q 469 131 521 110 q 381 188 418 151 q 322 276 343 225 q 300 389 300 328 q 323 503 300 451 q 385 594 346 556 q 474 653 424 632 q 581 674 525 674 q 688 653 633 674 q 781 593 743 633 l 781 665 l 894 665 l 894 274 q 958 217 894 217 q 1005 230 982 217 q 1046 270 1028 243 q 1075 340 1064 297 q 1086 443 1086 383 q 1053 610 1086 535 q 958 741 1019 686 q 812 826 897 796 q 624 856 726 856 q 439 820 524 856 q 292 723 354 785 q 197 577 231 661 q 163 396 163 493 q 197 213 163 297 q 292 66 231 128 q 437 -31 353 4 q 621 -67 521 -67 q 783 -56 703 -67 q 943 -15 864 -44 l 976 -126 m 772 389 q 724 511 772 465 q 596 557 675 557 q 472 511 521 557 q 424 389 424 465 q 473 269 424 314 q 596 225 522 225 q 722 269 672 225 q 772 389 772 314 z "},"Ａ":{"ha":1250,"x_min":132,"x_max":1118,"o":"m 554 933 l 696 933 l 1118 -146 l 974 -146 l 819 249 l 382 126 l 276 -146 l 132 -146 l 554 933 m 429 249 l 782 347 l 625 753 l 429 249 z "},"Ｂ":{"ha":1250,"x_min":169,"x_max":1079,"o":"m 1019 693 q 980 549 1019 607 q 849 456 940 492 q 942 419 900 444 q 1015 358 985 394 q 1063 273 1046 321 q 1079 168 1079 225 q 1055 44 1079 101 q 988 -56 1031 -14 q 885 -122 944 -97 q 757 -146 826 -146 l 169 -146 l 169 933 l 725 933 q 831 922 778 933 q 925 884 883 911 q 993 810 967 857 q 1019 693 1019 764 m 940 181 q 869 326 940 265 q 663 399 799 388 l 307 293 l 307 -40 l 683 -40 q 782 -28 735 -40 q 864 10 829 -17 q 919 78 899 36 q 940 181 940 121 m 707 522 q 778 547 746 533 q 833 578 811 560 q 868 621 856 596 q 881 682 881 646 q 840 793 881 760 q 717 826 800 826 l 307 826 l 307 411 l 707 522 z "},"Ｃ":{"ha":1250,"x_min":113,"x_max":1136,"o":"m 113 394 q 155 622 113 518 q 271 802 197 726 q 446 920 344 878 q 664 963 547 963 q 928 895 807 963 q 1131 707 1050 828 l 1031 635 q 877 790 972 729 q 660 850 782 850 q 497 814 572 850 q 368 716 422 778 q 283 572 314 654 q 251 394 251 489 q 284 215 251 299 q 375 71 317 132 q 515 -25 433 10 q 693 -60 596 -60 q 892 0 806 -60 q 1039 158 979 60 l 1136 82 q 938 -105 1058 -36 q 664 -174 817 -174 q 454 -134 554 -174 q 278 -20 354 -94 q 158 159 203 54 q 113 394 113 264 z "},"Ｄ":{"ha":1250,"x_min":163,"x_max":1086,"o":"m 163 933 l 603 933 q 816 892 725 933 q 967 780 907 851 q 1057 610 1028 708 q 1086 396 1086 511 q 1049 177 1086 276 q 941 6 1011 78 q 770 -106 871 -65 q 543 -146 669 -146 l 163 -146 l 163 933 m 301 -32 l 540 -32 q 711 2 636 -32 q 839 95 786 36 q 919 233 892 154 q 947 400 947 311 q 925 565 947 488 q 857 698 903 642 q 741 787 811 754 q 574 819 671 819 l 301 819 l 301 -32 z "},"Ｅ":{"ha":1250,"x_min":235,"x_max":1015,"o":"m 975 463 l 975 349 l 374 349 l 374 -33 l 1015 -33 l 1015 -146 l 235 -146 l 235 933 l 1001 933 l 1001 819 l 374 819 l 374 463 l 975 463 z "},"Ｆ":{"ha":1250,"x_min":242,"x_max":1008,"o":"m 982 463 l 982 349 l 381 349 l 381 -146 l 242 -146 l 242 933 l 1008 933 l 1008 819 l 381 819 l 381 463 l 982 463 z "},"Ｇ":{"ha":1250,"x_min":94,"x_max":1154,"o":"m 646 -174 q 436 -134 536 -174 q 260 -20 336 -94 q 140 159 185 54 q 94 394 94 264 q 137 622 94 518 q 253 802 179 726 q 428 920 326 878 q 646 963 529 963 q 910 895 789 963 q 1113 707 1032 828 l 1013 635 q 859 790 954 729 q 642 850 764 850 q 479 814 554 850 q 350 716 404 778 q 265 572 296 654 q 233 394 233 489 q 267 215 233 299 q 357 71 300 132 q 488 -25 414 10 q 644 -60 563 -60 q 801 -33 732 -60 q 917 43 869 -6 q 991 160 965 92 q 1017 311 1017 228 l 624 311 l 624 425 l 1154 425 l 1154 361 q 1120 148 1154 246 q 1022 -22 1086 50 q 862 -133 957 -93 q 646 -174 767 -174 z "},"Ｈ":{"ha":1250,"x_min":175,"x_max":1074,"o":"m 935 -146 l 935 450 l 314 281 l 314 -146 l 175 -146 l 175 933 l 314 933 l 314 390 l 935 560 l 935 933 l 1074 933 l 1074 -146 l 935 -146 z "},"Ｉ":{"ha":1250,"x_min":556,"x_max":694,"o":"m 694 933 l 694 -146 l 556 -146 l 556 933 l 694 933 z "},"Ｊ":{"ha":1250,"x_min":286,"x_max":963,"o":"m 361 54 q 452 -22 396 13 q 568 -56 508 -56 q 763 15 701 -56 q 824 222 824 85 l 824 933 l 963 933 l 963 231 q 940 60 963 136 q 868 -69 917 -17 q 745 -149 819 -122 q 567 -174 671 -176 q 417 -136 489 -171 q 286 -50 346 -101 l 361 54 z "},"Ｋ":{"ha":1250,"x_min":225,"x_max":1025,"o":"m 843 -146 l 364 354 l 364 -146 l 225 -146 l 225 933 l 364 933 l 364 488 l 836 933 l 1017 933 l 479 425 l 1025 -146 l 843 -146 z "},"Ｌ":{"ha":1250,"x_min":249,"x_max":1000,"o":"m 249 933 l 388 933 l 388 -32 l 1000 -32 l 1000 -146 l 249 -146 l 249 933 z "},"Ｍ":{"ha":1250,"x_min":53,"x_max":1196,"o":"m 192 933 l 624 17 l 1057 933 l 1196 933 l 1196 -146 l 1057 -146 l 1057 656 l 681 -146 l 568 -146 l 192 656 l 192 -146 l 53 -146 l 53 933 l 192 933 z "},"Ｎ":{"ha":1250,"x_min":175,"x_max":1074,"o":"m 175 933 l 314 933 l 935 58 l 935 933 l 1074 933 l 1074 -146 l 935 -146 l 314 736 l 314 -146 l 175 -146 l 175 933 z "},"Ｏ":{"ha":1250,"x_min":78,"x_max":1171,"o":"m 78 396 q 122 632 78 526 q 240 810 165 738 q 414 923 315 883 q 624 963 513 963 q 835 923 736 963 q 1009 810 935 883 q 1127 632 1083 738 q 1171 396 1171 526 q 1127 158 1171 264 q 1009 -21 1083 53 q 835 -134 935 -94 q 624 -174 736 -174 q 414 -134 513 -174 q 240 -21 315 -94 q 122 158 165 53 q 78 396 78 264 m 217 396 q 251 200 217 285 q 342 57 285 115 q 472 -31 399 -1 q 624 -61 544 -61 q 776 -31 703 -61 q 908 57 850 -1 q 999 200 965 115 q 1033 396 1033 285 q 997 589 1033 504 q 903 731 961 674 q 771 819 844 789 q 624 849 697 849 q 477 819 550 849 q 347 731 404 789 q 253 589 289 674 q 217 396 217 504 z "},"Ｐ":{"ha":1250,"x_min":190,"x_max":1060,"o":"m 190 933 l 729 933 q 853 915 793 933 q 958 861 913 897 q 1032 770 1004 825 q 1060 640 1060 715 q 1035 517 1060 567 q 969 433 1011 467 q 867 380 926 400 q 740 344 808 360 l 329 246 l 329 -146 l 190 -146 l 190 933 m 922 640 q 906 717 922 683 q 860 773 889 750 q 791 808 831 796 q 704 819 751 819 l 329 819 l 329 372 l 686 447 q 865 517 807 474 q 922 640 922 561 z "},"Ｑ":{"ha":1250,"x_min":78,"x_max":1171,"o":"m 78 396 q 122 632 78 526 q 240 810 165 738 q 414 923 315 883 q 624 963 513 963 q 835 923 736 963 q 1009 810 935 883 q 1127 632 1083 738 q 1171 396 1171 526 q 1134 176 1171 274 q 1032 4 1097 78 l 1140 -114 l 1058 -193 l 947 -72 q 797 -147 879 -121 q 624 -174 715 -174 q 414 -134 513 -174 q 240 -21 315 -94 q 122 158 165 53 q 78 396 78 264 m 769 292 l 944 100 q 1009 230 985 156 q 1033 396 1033 304 q 997 589 1033 504 q 903 731 961 674 q 771 819 844 789 q 624 849 697 849 q 477 819 550 849 q 347 731 404 789 q 253 589 289 674 q 217 396 217 504 q 251 200 217 285 q 342 57 285 115 q 472 -31 399 -1 q 624 -61 544 -61 q 750 -41 689 -61 q 864 18 811 -21 l 688 213 l 769 292 z "},"Ｒ":{"ha":1250,"x_min":167,"x_max":1083,"o":"m 167 933 l 706 933 q 829 915 769 933 q 935 861 889 897 q 1008 770 981 825 q 1036 640 1036 715 q 1019 535 1036 579 q 973 458 1003 490 q 901 405 943 426 q 808 368 858 383 l 1083 -146 l 938 -146 l 676 335 l 306 246 l 306 -146 l 167 -146 l 167 933 m 899 640 q 882 717 899 683 q 836 773 865 750 q 767 808 807 796 q 681 819 728 819 l 306 819 l 306 372 l 663 447 q 841 517 783 474 q 899 640 899 561 z "},"Ｓ":{"ha":1250,"x_min":213,"x_max":1036,"o":"m 272 85 q 354 25 308 51 q 451 -21 400 -1 q 553 -50 501 -40 q 653 -60 606 -60 q 830 -13 763 -58 q 897 128 897 32 q 880 199 897 168 q 830 255 863 231 q 750 298 797 279 q 643 333 703 317 q 460 395 538 363 q 333 468 383 428 q 258 558 282 508 q 233 675 233 608 q 263 800 233 746 q 345 890 293 854 q 467 943 397 925 q 617 961 538 961 q 813 927 715 961 q 994 828 910 893 l 939 728 q 871 772 908 751 q 792 810 833 793 q 709 836 751 826 q 626 847 667 846 q 534 840 579 849 q 453 812 489 832 q 394 759 417 792 q 372 679 372 726 q 386 603 372 635 q 431 548 400 572 q 513 503 463 524 q 636 463 563 483 q 802 405 728 435 q 928 337 876 375 q 1008 250 981 299 q 1036 138 1036 201 q 1006 -5 1036 54 q 924 -101 976 -64 q 797 -156 871 -139 q 636 -174 724 -174 q 413 -135 525 -174 q 213 -26 301 -97 l 272 85 z "},"Ｔ":{"ha":1250,"x_min":176,"x_max":1074,"o":"m 694 819 l 694 -146 l 556 -146 l 556 819 l 176 819 l 176 933 l 1074 933 l 1074 819 l 694 819 z "},"Ｕ":{"ha":1250,"x_min":175,"x_max":1074,"o":"m 625 -174 q 444 -141 526 -174 q 301 -51 361 -108 q 208 85 242 7 q 175 254 175 164 l 175 933 l 314 933 l 314 268 q 334 148 314 206 q 394 46 354 90 q 491 -25 433 1 q 625 -51 549 -51 q 759 -25 701 -51 q 856 46 817 1 q 915 148 894 90 q 935 268 935 206 l 935 933 l 1074 933 l 1074 254 q 1040 85 1074 164 q 948 -51 1007 7 q 806 -141 889 -108 q 625 -174 724 -174 z "},"Ｖ":{"ha":1250,"x_min":132,"x_max":1118,"o":"m 132 933 l 276 933 l 625 33 l 974 933 l 1118 933 l 696 -146 l 554 -146 l 132 933 z "},"Ｗ":{"ha":1250,"x_min":15,"x_max":1236,"o":"m 625 696 l 436 -146 l 300 -146 l 15 933 l 150 933 l 367 85 l 556 933 l 696 933 l 883 85 l 1101 933 l 1236 933 l 951 -146 l 815 -146 l 625 696 z "},"Ｘ":{"ha":1250,"x_min":169,"x_max":1081,"o":"m 175 -146 l 547 389 l 169 933 l 322 933 l 625 499 l 928 933 l 1081 933 l 701 389 l 1075 -146 l 919 -146 l 625 278 l 331 -146 l 175 -146 z "},"Ｙ":{"ha":1250,"x_min":154,"x_max":1096,"o":"m 307 933 l 625 421 l 943 933 l 1096 933 l 694 285 l 694 -146 l 556 -146 l 556 285 l 154 933 l 307 933 z "},"Ｚ":{"ha":1250,"x_min":239,"x_max":1011,"o":"m 239 -146 l 239 -47 l 819 819 l 265 819 l 265 933 l 989 933 l 989 851 l 397 -32 l 1011 -32 l 1011 -146 l 239 -146 z "},"［":{"ha":1250,"x_min":681,"x_max":1071,"o":"m 1071 1003 l 1071 889 l 819 889 l 819 -87 l 1071 -87 l 1071 -201 l 681 -201 l 681 1003 l 1071 1003 z "},"￦":{"ha":1250,"x_min":278,"x_max":971,"o":"m 818 -146 l 278 933 l 429 933 l 971 -146 l 818 -146 z "},"］":{"ha":1250,"x_min":178,"x_max":568,"o":"m 568 1003 l 568 -201 l 178 -201 l 178 -87 l 429 -87 l 429 889 l 178 889 l 178 1003 l 568 1003 z "},"＾":{"ha":1250,"x_min":319,"x_max":931,"o":"m 715 981 l 931 626 l 789 626 l 626 896 l 464 626 l 319 626 l 533 981 l 715 981 z "},"＿":{"ha":1250,"x_min":354,"x_max":896,"o":"m 354 -60 l 896 -60 l 896 -174 l 354 -174 l 354 -60 z "},"｀":{"ha":1250,"x_min":429,"x_max":819,"o":"m 674 640 l 429 981 l 599 981 l 819 640 l 674 640 z "},"ａ":{"ha":1250,"x_min":183,"x_max":1065,"o":"m 581 678 q 783 638 694 678 q 928 522 872 597 l 940 650 l 1065 650 l 1065 -146 l 940 -146 l 928 -18 q 780 -135 872 -93 q 582 -174 688 -176 q 426 -140 499 -172 q 300 -51 354 -107 q 215 82 246 6 q 183 250 183 158 q 216 422 183 343 q 303 558 249 501 q 429 646 357 614 q 581 678 501 678 m 614 -60 q 736 -37 682 -60 q 828 26 790 -15 q 885 124 865 67 q 906 250 906 181 q 885 379 906 321 q 828 478 865 438 q 736 542 790 519 q 614 564 682 564 q 498 542 551 564 q 406 478 444 519 q 344 379 367 438 q 322 250 322 321 q 344 124 322 181 q 406 26 367 67 q 498 -37 444 -14 q 614 -60 551 -60 z "},"ｂ":{"ha":1250,"x_min":183,"x_max":1065,"o":"m 668 678 q 819 646 747 678 q 946 558 892 614 q 1033 422 1000 501 q 1065 250 1065 343 q 1034 82 1065 158 q 949 -51 1003 6 q 822 -140 894 -107 q 667 -174 750 -172 q 469 -135 561 -176 q 321 -18 376 -93 l 308 -146 l 183 -146 l 183 933 l 322 933 l 322 524 q 465 638 376 599 q 668 678 554 678 m 635 -60 q 751 -37 697 -60 q 843 26 804 -14 q 904 124 882 67 q 926 250 926 181 q 904 379 926 321 q 843 478 882 438 q 751 542 804 519 q 635 564 697 564 q 513 542 567 564 q 421 478 458 519 q 363 379 383 438 q 343 250 343 321 q 363 124 343 181 q 421 26 383 67 q 513 -37 458 -15 q 635 -60 567 -60 z "},"ｃ":{"ha":1250,"x_min":215,"x_max":1033,"o":"m 685 578 q 560 554 619 578 q 454 488 500 531 q 381 384 408 444 q 353 251 353 324 q 379 123 353 182 q 451 20 406 64 q 556 -49 496 -24 q 685 -74 617 -74 q 827 -32 764 -74 q 936 79 890 10 l 1032 -3 q 873 -138 968 -89 q 665 -187 778 -187 q 489 -153 571 -187 q 346 -60 407 -119 q 250 78 285 -1 q 215 251 215 158 q 251 424 215 344 q 349 564 288 504 q 492 658 410 624 q 665 692 574 692 q 868 646 768 692 q 1033 508 968 600 l 936 425 q 889 481 917 454 q 828 530 861 508 q 759 565 796 551 q 685 578 722 578 z "},"ｄ":{"ha":1250,"x_min":183,"x_max":1065,"o":"m 581 678 q 783 638 694 678 q 926 524 871 599 l 926 933 l 1065 933 l 1065 -146 l 940 -146 l 928 -18 q 780 -135 872 -93 q 582 -174 688 -176 q 426 -140 499 -172 q 300 -51 354 -107 q 215 82 246 6 q 183 250 183 158 q 216 422 183 343 q 303 558 249 501 q 429 646 357 614 q 581 678 501 678 m 614 -60 q 736 -37 682 -60 q 828 26 790 -15 q 885 124 865 67 q 906 250 906 181 q 885 379 906 321 q 828 478 865 438 q 736 542 790 519 q 614 564 682 564 q 498 542 551 564 q 406 478 444 519 q 344 379 367 438 q 322 250 322 321 q 344 124 322 181 q 406 26 367 67 q 498 -37 444 -14 q 614 -60 551 -60 z "},"ｅ":{"ha":1250,"x_min":183,"x_max":1065,"o":"m 335 135 q 385 49 353 88 q 456 -17 417 10 q 540 -60 496 -44 q 631 -75 585 -75 q 790 -35 715 -75 q 928 64 865 4 l 1028 -11 q 861 -139 957 -90 q 653 -187 765 -187 q 472 -157 557 -187 q 322 -69 386 -126 q 221 69 258 -12 q 183 251 183 150 q 219 431 183 350 q 315 571 254 513 q 458 661 376 629 q 632 693 539 693 q 794 664 719 693 q 927 583 869 635 q 1021 457 985 531 q 1065 296 1057 383 l 335 135 m 314 242 l 911 376 q 796 531 867 483 q 642 579 725 579 q 513 555 572 579 q 408 488 453 531 q 339 384 364 444 q 314 251 314 324 l 314 242 z "},"ｆ":{"ha":1250,"x_min":358,"x_max":892,"o":"m 675 -146 l 536 -146 l 536 522 l 358 522 l 358 636 l 536 636 l 536 736 q 551 814 536 778 q 592 876 567 850 q 652 918 618 903 q 724 933 686 933 l 892 933 l 892 819 l 789 819 q 703 792 732 819 q 675 718 675 764 l 675 636 l 878 636 l 878 522 l 675 522 l 675 -146 z "},"ｇ":{"ha":1250,"x_min":183,"x_max":1065,"o":"m 581 678 q 783 637 696 678 q 928 521 869 596 l 940 650 l 1065 650 l 1065 -119 q 1033 -295 1064 -218 q 949 -426 1003 -372 q 820 -507 894 -479 q 658 -535 746 -535 q 503 -517 576 -535 q 371 -460 429 -499 q 274 -362 313 -422 q 226 -218 236 -303 l 367 -218 q 390 -301 369 -264 q 445 -366 411 -339 q 526 -408 479 -393 q 628 -422 572 -422 q 746 -404 692 -422 q 840 -349 800 -386 q 903 -254 881 -311 q 926 -119 926 -197 l 926 18 q 784 -103 875 -58 q 582 -146 693 -149 q 426 -112 499 -144 q 300 -24 354 -79 q 215 104 246 31 q 183 264 183 178 q 216 428 183 353 q 303 560 249 504 q 429 647 357 615 q 581 678 501 678 m 614 -32 q 736 -10 682 -32 q 828 52 790 13 q 885 146 865 92 q 906 264 906 200 q 885 385 906 331 q 828 480 865 440 q 736 542 790 519 q 614 564 682 564 q 498 542 551 564 q 406 480 444 519 q 344 385 367 440 q 322 264 322 331 q 344 146 322 200 q 406 52 367 92 q 498 -10 444 13 q 614 -32 551 -32 z "},"ｈ":{"ha":1250,"x_min":232,"x_max":1017,"o":"m 371 549 q 501 647 425 617 q 663 678 576 678 q 808 653 743 678 q 920 583 874 628 q 992 474 967 538 q 1017 335 1017 411 l 1017 -146 l 878 -146 l 878 297 q 626 564 878 564 q 540 549 583 564 q 459 503 496 533 q 399 426 422 472 q 371 319 375 381 l 371 -146 l 232 -146 l 232 933 l 371 933 l 371 549 z "},"ｉ":{"ha":1250,"x_min":556,"x_max":694,"o":"m 694 678 l 694 -146 l 556 -146 l 556 678 l 694 678 m 694 972 l 694 817 l 556 817 l 556 972 l 694 972 z "},"ｊ":{"ha":1250,"x_min":460,"x_max":789,"o":"m 649 678 l 788 678 l 788 -8 q 770 -106 788 -64 q 725 -176 753 -149 q 661 -219 697 -204 q 586 -233 625 -233 l 460 -233 l 460 -119 l 522 -119 q 615 -90 581 -119 q 649 18 649 -60 l 649 678 m 789 972 l 789 817 l 650 817 l 650 972 l 789 972 z "},"ｋ":{"ha":1250,"x_min":251,"x_max":997,"o":"m 813 -146 l 390 228 l 390 -146 l 251 -146 l 251 933 l 390 933 l 390 314 l 792 650 l 976 650 l 525 272 l 997 -146 l 813 -146 z "},"ｌ":{"ha":1250,"x_min":556,"x_max":694,"o":"m 694 933 l 694 -146 l 556 -146 l 556 933 l 694 933 z "},"ｍ":{"ha":1250,"x_min":56,"x_max":1194,"o":"m 694 -146 l 556 -146 l 556 360 q 546 435 556 399 q 517 501 536 472 q 466 546 497 529 q 393 563 435 563 q 317 543 351 563 q 258 494 283 524 q 215 431 232 465 q 194 369 199 397 l 194 -146 l 56 -146 l 56 650 l 182 650 l 188 568 q 297 650 236 625 q 444 678 358 675 q 565 644 510 678 q 654 549 621 611 q 924 678 747 679 q 1027 655 978 678 q 1113 592 1076 632 q 1172 494 1150 551 q 1194 365 1194 436 l 1194 -146 l 1056 -146 l 1056 360 q 1044 431 1056 394 q 1010 496 1033 467 q 953 544 988 525 q 874 563 919 563 q 809 547 840 563 q 753 507 778 532 q 714 449 729 482 q 694 378 699 415 l 694 -146 z "},"ｎ":{"ha":1250,"x_min":232,"x_max":1017,"o":"m 367 544 q 498 647 421 615 q 663 678 575 678 q 808 653 743 678 q 920 583 874 628 q 992 474 967 538 q 1017 335 1017 411 l 1017 -146 l 878 -146 l 878 297 q 626 564 878 564 q 540 549 583 564 q 459 503 496 533 q 399 426 422 472 q 371 319 375 381 l 371 -146 l 232 -146 l 232 650 l 357 650 l 367 544 z "},"ｏ":{"ha":1250,"x_min":178,"x_max":1072,"o":"m 625 -75 q 742 -51 686 -75 q 841 15 799 -28 q 909 118 883 58 q 935 250 935 178 q 907 385 935 325 q 835 488 879 446 q 736 554 792 531 q 625 578 681 578 q 513 554 568 578 q 414 487 458 531 q 342 383 369 443 q 315 250 315 322 q 340 118 315 178 q 408 15 365 58 q 508 -51 451 -28 q 625 -75 564 -75 m 178 250 q 215 433 178 351 q 314 573 251 515 q 457 661 376 631 q 625 692 538 692 q 793 661 713 692 q 935 573 874 631 q 1035 433 997 515 q 1072 250 1072 351 q 1035 68 1072 149 q 935 -69 997 -12 q 793 -157 874 -126 q 625 -187 713 -187 q 457 -157 538 -187 q 314 -69 376 -126 q 215 68 251 -12 q 178 250 178 149 z "},"ｐ":{"ha":1250,"x_min":183,"x_max":1065,"o":"m 668 678 q 819 646 747 678 q 946 558 892 614 q 1033 422 1000 501 q 1065 250 1065 343 q 1034 82 1065 158 q 949 -51 1003 6 q 822 -140 894 -107 q 667 -174 750 -172 q 469 -135 561 -176 q 322 -19 378 -94 l 322 -507 l 183 -507 l 183 650 l 308 650 l 321 522 q 464 638 375 597 q 668 678 553 678 m 635 -60 q 751 -37 697 -60 q 843 26 804 -14 q 904 124 882 67 q 926 250 926 181 q 904 379 926 321 q 843 478 882 438 q 751 542 804 519 q 635 564 697 564 q 513 542 567 564 q 421 478 458 519 q 363 379 383 438 q 343 250 343 321 q 363 124 343 181 q 421 26 383 67 q 513 -37 458 -15 q 635 -60 567 -60 z "},"ｑ":{"ha":1250,"x_min":183,"x_max":1065,"o":"m 581 678 q 783 638 694 678 q 928 522 872 597 l 940 650 l 1065 650 l 1065 -507 l 926 -507 l 926 -19 q 778 -135 869 -94 q 582 -174 686 -176 q 426 -140 499 -172 q 300 -51 354 -107 q 215 82 246 6 q 183 250 183 158 q 216 422 183 343 q 303 558 249 501 q 429 646 357 614 q 581 678 501 678 m 614 -60 q 736 -37 682 -60 q 828 26 790 -15 q 885 124 865 67 q 906 250 906 181 q 885 379 906 321 q 828 478 865 438 q 736 542 790 519 q 614 564 682 564 q 498 542 551 564 q 406 478 444 519 q 344 379 367 438 q 322 250 322 321 q 344 124 322 181 q 406 26 367 67 q 498 -37 444 -14 q 614 -60 551 -60 z "},"ｒ":{"ha":1250,"x_min":363,"x_max":888,"o":"m 496 543 q 590 623 528 596 q 728 650 653 650 l 888 650 l 864 536 l 692 536 q 618 519 653 536 q 558 474 583 503 q 517 406 532 444 q 501 322 501 367 l 501 -146 l 363 -146 l 363 650 l 488 650 l 496 543 z "},"ｓ":{"ha":1250,"x_min":296,"x_max":953,"o":"m 872 499 q 762 555 824 532 q 644 578 700 578 q 570 571 604 578 q 510 550 536 564 q 470 514 485 536 q 456 463 456 492 q 496 388 456 417 q 628 336 536 360 q 873 229 793 293 q 953 56 953 165 q 867 -122 953 -57 q 628 -187 782 -187 q 453 -159 536 -187 q 296 -79 371 -131 l 351 29 q 404 -8 375 10 q 467 -41 433 -26 q 535 -64 500 -56 q 607 -72 571 -72 q 685 -67 647 -72 q 751 -47 722 -61 q 797 -9 779 -33 q 814 51 814 15 q 799 111 814 86 q 759 154 785 136 q 698 185 733 172 q 621 211 663 199 q 495 253 551 231 q 399 304 439 275 q 338 373 360 333 q 317 468 317 413 q 339 565 317 524 q 401 635 361 607 q 498 677 442 663 q 621 692 554 692 q 792 665 721 692 q 917 603 864 639 l 872 499 z "},"ｔ":{"ha":1250,"x_min":358,"x_max":892,"o":"m 675 650 l 878 650 l 878 536 l 675 536 l 675 69 q 703 -4 675 24 q 789 -32 732 -32 l 892 -32 l 892 -146 l 724 -146 q 652 -131 686 -146 q 592 -89 618 -115 q 551 -26 567 -62 q 536 51 536 10 l 536 536 l 358 536 l 358 650 l 536 650 l 536 933 l 675 933 l 675 650 z "},"ｕ":{"ha":1250,"x_min":232,"x_max":1017,"o":"m 882 -40 q 750 -142 826 -111 q 586 -174 674 -174 q 440 -149 506 -174 q 328 -78 375 -124 q 257 30 282 -33 q 232 169 232 93 l 232 650 l 371 650 l 371 207 q 622 -60 371 -60 q 709 -44 665 -60 q 790 1 753 -29 q 850 78 826 32 q 878 185 874 124 l 878 650 l 1017 650 l 1017 -146 l 892 -146 l 882 -40 z "},"ｖ":{"ha":1250,"x_min":201,"x_max":1049,"o":"m 692 -146 l 558 -146 l 201 650 l 347 650 l 625 17 l 903 650 l 1049 650 l 692 -146 z "},"ｗ":{"ha":1250,"x_min":47,"x_max":1201,"o":"m 682 650 l 883 54 l 1069 650 l 1201 650 l 946 -146 l 828 -146 l 624 453 l 421 -146 l 303 -146 l 47 650 l 179 650 l 365 54 l 567 650 l 682 650 z "},"ｘ":{"ha":1250,"x_min":217,"x_max":1033,"o":"m 394 650 l 625 363 l 856 650 l 1019 650 l 707 260 l 1033 -146 l 869 -146 l 625 158 l 381 -146 l 217 -146 l 543 260 l 231 650 l 394 650 z "},"ｙ":{"ha":1250,"x_min":232,"x_max":1017,"o":"m 621 -422 q 733 -400 685 -422 q 813 -338 781 -378 q 861 -242 844 -299 q 878 -119 878 -186 l 878 -8 q 753 -110 829 -75 q 586 -146 678 -146 q 440 -122 506 -146 q 328 -53 375 -97 q 257 54 282 -8 q 232 193 232 117 l 232 650 l 371 650 l 371 249 q 433 35 371 103 q 622 -32 494 -32 q 715 -10 671 -32 q 794 47 760 11 q 851 126 829 82 q 878 218 874 171 l 878 650 l 1017 650 l 1017 -119 q 988 -292 1015 -215 q 911 -423 960 -369 q 797 -506 863 -476 q 651 -535 731 -535 q 506 -517 575 -535 q 382 -460 436 -499 q 292 -362 328 -422 q 247 -218 257 -303 l 388 -218 q 407 -299 389 -261 q 456 -363 425 -336 q 528 -406 486 -390 q 621 -422 571 -422 z "},"ｚ":{"ha":1250,"x_min":260,"x_max":989,"o":"m 260 -146 l 260 -58 l 772 536 l 290 536 l 290 651 l 960 651 l 960 565 l 436 -32 l 989 -32 l 989 -146 l 260 -146 z "},"｛":{"ha":1250,"x_min":632,"x_max":1147,"o":"m 792 394 q 905 319 872 375 q 938 178 938 263 l 938 61 q 953 -9 938 19 q 995 -56 968 -37 q 1061 -84 1022 -75 q 1147 -96 1100 -93 l 1147 -214 q 888 -144 978 -212 q 799 31 799 -76 l 799 158 q 758 288 799 250 q 632 332 718 326 l 632 457 q 758 501 718 463 q 799 631 799 539 l 799 758 q 888 933 799 865 q 1147 1003 978 1001 l 1147 885 q 1061 873 1100 882 q 995 845 1022 864 q 953 798 968 826 q 938 728 938 769 l 938 611 q 905 470 938 526 q 792 394 872 414 z "},"｜":{"ha":1250,"x_min":556,"x_max":694,"o":"m 694 975 l 694 -187 l 556 -187 l 556 975 l 694 975 z "},"｝":{"ha":1250,"x_min":101,"x_max":617,"o":"m 457 394 q 344 470 376 414 q 311 611 311 526 l 311 728 q 296 798 311 769 q 253 845 281 826 q 188 873 226 864 q 101 885 149 882 l 101 1003 q 360 933 271 1001 q 450 758 450 865 l 450 631 q 490 501 450 539 q 617 457 531 463 l 617 332 q 490 288 531 326 q 450 158 450 250 l 450 31 q 360 -144 450 -76 q 101 -214 271 -212 l 101 -96 q 188 -84 149 -93 q 253 -56 226 -75 q 296 -9 281 -37 q 311 61 311 19 l 311 178 q 344 319 311 263 q 457 394 376 375 z "},"￣":{"ha":1306,"x_min":28,"x_max":1278,"o":"m 28 981 l 28 1071 l 1278 1071 l 1278 981 l 28 981 z "},"ㄱ":{"ha":1250,"x_min":201,"x_max":1047,"o":"m 908 54 l 908 692 l 201 692 l 201 806 l 1047 806 l 1047 54 l 908 54 z "},"ㄲ":{"ha":1250,"x_min":161,"x_max":1089,"o":"m 476 54 l 476 622 l 161 622 l 161 736 l 574 736 l 574 806 l 1089 806 l 1089 54 l 950 54 l 950 692 l 615 692 l 615 54 l 476 54 z "},"ㄳ":{"ha":1250,"x_min":47,"x_max":1186,"o":"m 936 467 q 931 388 936 425 q 917 318 926 351 l 1186 140 l 1125 38 l 863 208 q 754 110 819 150 q 601 46 689 69 l 557 157 q 667 207 621 179 q 742 271 713 235 q 784 355 771 307 q 797 467 797 403 l 797 788 l 936 788 l 936 467 m 390 54 l 390 664 l 47 664 l 47 778 l 529 778 l 529 54 l 390 54 z "},"ㄴ":{"ha":1250,"x_min":201,"x_max":1047,"o":"m 340 806 l 340 168 l 1047 168 l 1047 54 l 201 54 l 201 806 l 340 806 z "},"ㄵ":{"ha":1250,"x_min":54,"x_max":1179,"o":"m 929 699 l 929 467 q 924 388 929 425 q 910 318 919 351 l 1179 140 l 1118 38 l 856 208 q 747 110 813 150 q 594 46 682 69 l 550 157 q 660 207 614 179 q 735 271 706 235 q 777 355 764 307 q 790 467 790 403 l 790 699 l 556 699 l 556 813 l 1144 813 l 1144 699 l 929 699 m 193 806 l 193 168 l 511 168 l 511 54 l 54 54 l 54 806 l 193 806 z "},"ㄶ":{"ha":1250,"x_min":75,"x_max":1175,"o":"m 214 806 l 214 168 l 490 168 l 490 54 l 75 54 l 75 806 l 214 806 m 1143 293 q 1122 185 1143 232 q 1063 106 1100 138 q 973 57 1025 74 q 860 40 921 40 q 747 57 799 40 q 657 106 694 74 q 598 185 619 138 q 576 293 576 232 q 598 401 576 354 q 657 481 619 449 q 747 529 694 513 q 860 546 799 546 q 973 529 921 546 q 1063 481 1025 513 q 1122 401 1100 449 q 1143 293 1143 354 m 1004 293 q 967 395 1004 358 q 860 432 931 432 q 752 395 789 432 q 715 293 715 358 q 752 191 715 228 q 860 154 789 154 q 967 191 931 154 q 1004 293 1004 228 m 1175 756 l 1175 642 l 542 642 l 542 756 l 792 756 l 792 843 l 931 843 l 931 756 l 1175 756 z "},"ㄷ":{"ha":1250,"x_min":194,"x_max":1054,"o":"m 1040 806 l 1040 692 l 333 692 l 333 168 l 1054 168 l 1054 54 l 194 54 l 194 806 l 1040 806 z "},"ㄸ":{"ha":1250,"x_min":139,"x_max":1110,"o":"m 1110 54 l 646 54 l 646 806 l 1096 806 l 1096 692 l 785 692 l 785 168 l 1110 168 l 1110 54 m 582 54 l 139 54 l 139 764 l 582 764 l 582 650 l 278 650 l 278 168 l 582 168 l 582 54 z "},"ㄹ":{"ha":1250,"x_min":188,"x_max":1061,"o":"m 188 692 l 188 806 l 1033 806 l 1033 372 l 326 372 l 326 168 l 1061 168 l 1061 54 l 188 54 l 188 486 l 894 486 l 894 692 l 188 692 z "},"ㄺ":{"ha":1250,"x_min":111,"x_max":1139,"o":"m 1000 54 l 1000 692 l 679 692 l 679 806 l 1139 806 l 1139 54 l 1000 54 m 458 486 l 458 692 l 111 692 l 111 806 l 597 806 l 597 372 l 250 372 l 250 168 l 625 168 l 625 54 l 111 54 l 111 486 l 458 486 z "},"ㄻ":{"ha":1250,"x_min":104,"x_max":1146,"o":"m 424 486 l 424 692 l 104 692 l 104 806 l 563 806 l 563 372 l 243 372 l 243 168 l 569 168 l 569 54 l 104 54 l 104 486 l 424 486 m 1146 806 l 1146 54 l 646 54 l 646 806 l 1146 806 m 785 692 l 785 168 l 1007 168 l 1007 692 l 785 692 z "},"ㄼ":{"ha":1250,"x_min":104,"x_max":1146,"o":"m 785 550 l 1007 550 l 1007 808 l 1146 808 l 1146 54 l 646 54 l 646 808 l 785 808 l 785 550 m 424 486 l 424 692 l 104 692 l 104 806 l 563 806 l 563 372 l 243 372 l 243 168 l 569 168 l 569 54 l 104 54 l 104 486 l 424 486 m 1007 436 l 785 436 l 785 168 l 1007 168 l 1007 436 z "},"ㄽ":{"ha":1250,"x_min":56,"x_max":1172,"o":"m 375 486 l 375 692 l 56 692 l 56 806 l 514 806 l 514 372 l 194 372 l 194 168 l 521 168 l 521 54 l 56 54 l 56 486 l 375 486 m 571 163 q 744 297 692 208 q 797 508 797 385 l 797 788 l 936 788 l 936 508 q 913 344 936 422 l 1172 140 l 1111 38 l 861 232 q 628 54 781 104 l 571 163 z "},"ㄾ":{"ha":1250,"x_min":97,"x_max":1151,"o":"m 1151 168 l 1151 54 l 639 54 l 639 806 l 1138 806 l 1138 692 l 778 692 l 778 486 l 1138 486 l 1138 372 l 778 372 l 778 168 l 1151 168 m 417 486 l 417 692 l 97 692 l 97 806 l 556 806 l 556 372 l 236 372 l 236 168 l 563 168 l 563 54 l 97 54 l 97 486 l 417 486 z "},"ㄿ":{"ha":1250,"x_min":83,"x_max":1168,"o":"m 1168 54 l 618 54 l 618 168 l 697 168 l 697 692 l 618 692 l 618 806 l 1168 806 l 1168 692 l 1090 692 l 1090 168 l 1168 168 l 1168 54 m 403 486 l 403 692 l 83 692 l 83 806 l 542 806 l 542 372 l 222 372 l 222 168 l 549 168 l 549 54 l 83 54 l 83 486 l 403 486 m 832 168 l 956 168 l 956 692 l 832 692 l 832 168 z "},"ㅀ":{"ha":1250,"x_min":83,"x_max":1169,"o":"m 403 486 l 403 692 l 83 692 l 83 806 l 542 806 l 542 372 l 222 372 l 222 168 l 549 168 l 549 54 l 83 54 l 83 486 l 403 486 m 1150 293 q 1130 185 1150 232 q 1074 106 1110 138 q 991 57 1039 74 q 888 40 943 40 q 784 57 832 40 q 701 106 736 74 q 645 185 665 138 q 625 293 625 232 q 645 401 625 354 q 701 481 665 449 q 784 529 736 513 q 888 546 832 546 q 991 529 943 546 q 1074 481 1039 513 q 1130 401 1110 449 q 1150 293 1150 354 m 1011 293 q 980 395 1011 358 q 888 432 949 432 q 795 395 826 432 q 764 293 764 358 q 795 191 764 228 q 888 154 826 154 q 980 191 949 154 q 1011 293 1011 228 m 1169 756 l 1169 642 l 604 642 l 604 756 l 819 756 l 819 843 l 958 843 l 958 756 l 1169 756 z "},"ㅁ":{"ha":1250,"x_min":201,"x_max":1047,"o":"m 1047 806 l 1047 54 l 201 54 l 201 806 l 1047 806 m 908 168 l 908 692 l 340 692 l 340 168 l 908 168 z "},"ㅂ":{"ha":1250,"x_min":201,"x_max":1047,"o":"m 340 544 l 908 544 l 908 806 l 1047 806 l 1047 54 l 201 54 l 201 806 l 340 806 l 340 544 m 908 431 l 340 431 l 340 168 l 908 168 l 908 431 z "},"ㅃ":{"ha":1250,"x_min":138,"x_max":1113,"o":"m 803 558 l 974 558 l 974 806 l 1113 806 l 1113 54 l 664 54 l 664 806 l 803 806 l 803 558 m 276 532 l 447 532 l 447 764 l 586 764 l 586 54 l 138 54 l 138 764 l 276 764 l 276 532 m 974 444 l 803 444 l 803 168 l 974 168 l 974 444 m 447 418 l 276 418 l 276 168 l 447 168 l 447 418 z "},"ㅄ":{"ha":1250,"x_min":57,"x_max":1183,"o":"m 196 550 l 390 550 l 390 808 l 529 808 l 529 54 l 57 54 l 57 808 l 196 808 l 196 550 m 933 467 q 928 388 933 425 q 914 318 924 351 l 1183 140 l 1122 38 l 860 208 q 751 110 817 150 q 599 46 686 69 l 554 157 q 664 207 618 179 q 739 271 710 235 q 781 355 768 307 q 794 467 794 403 l 794 815 l 933 815 l 933 467 m 390 436 l 196 436 l 196 168 l 390 168 l 390 436 z "},"ㅅ":{"ha":1250,"x_min":168,"x_max":1072,"o":"m 693 563 q 667 408 693 479 l 1072 133 l 999 38 l 611 303 q 462 160 556 225 q 229 42 368 94 l 168 143 q 342 226 269 182 q 462 320 415 269 q 531 431 508 371 q 553 564 553 490 l 553 822 l 693 822 l 693 563 z "},"ㅆ":{"ha":1250,"x_min":100,"x_max":1149,"o":"m 100 164 q 290 319 235 224 q 346 558 346 414 l 346 822 l 485 822 l 485 558 q 481 486 485 519 l 751 321 q 797 558 797 417 l 797 822 l 936 822 l 936 558 q 896 313 936 415 l 1149 139 l 1072 51 l 840 211 q 737 103 799 153 q 590 8 675 53 l 510 103 q 688 228 624 160 l 458 368 q 361 199 428 272 q 181 69 294 126 l 100 164 z "},"ㅇ":{"ha":1250,"x_min":160,"x_max":1090,"o":"m 160 429 q 191 582 160 511 q 282 706 222 653 q 428 789 342 758 q 625 819 515 819 q 822 789 735 819 q 968 706 908 758 q 1059 582 1028 653 q 1090 429 1090 511 q 1059 278 1090 349 q 968 154 1028 207 q 822 71 908 101 q 625 40 735 40 q 428 71 515 40 q 282 154 342 101 q 191 278 222 207 q 160 429 160 349 m 625 154 q 760 176 700 154 q 863 235 821 197 q 928 322 906 272 q 951 429 951 372 q 928 538 951 488 q 863 625 906 588 q 760 684 821 663 q 625 706 700 706 q 490 684 550 706 q 387 625 429 663 q 322 538 344 588 q 299 429 299 488 q 322 322 299 372 q 387 235 344 272 q 490 176 429 197 q 625 154 550 154 z "},"ㅈ":{"ha":1250,"x_min":168,"x_max":1072,"o":"m 188 806 l 1056 806 l 1056 692 l 693 692 l 693 535 q 665 382 693 454 l 1072 133 l 999 38 l 607 281 q 459 153 551 211 q 229 42 367 94 l 168 143 q 342 222 269 182 q 462 306 415 261 q 531 407 508 351 q 553 536 553 463 l 553 692 l 188 692 l 188 806 z "},"ㅉ":{"ha":1250,"x_min":100,"x_max":1153,"o":"m 118 806 l 1153 806 l 1153 692 l 936 692 l 936 531 q 901 308 936 400 l 1149 139 l 1072 51 l 847 207 q 742 103 806 150 q 590 8 678 56 l 510 103 q 601 153 561 128 q 674 207 642 179 l 457 340 q 360 189 426 253 q 181 69 293 125 l 100 164 q 214 228 167 194 q 290 306 261 263 q 333 403 319 349 q 346 531 346 458 l 346 692 l 118 692 l 118 806 m 747 294 q 785 398 774 340 q 797 531 797 456 l 797 692 l 485 692 l 485 531 q 481 458 485 493 l 747 294 z "},"ㅊ":{"ha":1250,"x_min":168,"x_max":1072,"o":"m 693 764 l 1056 764 l 1056 650 l 693 650 l 693 535 q 665 382 693 454 l 1072 133 l 999 38 l 607 281 q 459 153 551 211 q 229 42 367 94 l 168 143 q 342 222 269 182 q 462 306 415 261 q 531 407 508 351 q 553 536 553 463 l 553 650 l 188 650 l 188 764 l 553 764 l 553 879 l 693 879 l 693 764 z "},"ㅋ":{"ha":1250,"x_min":201,"x_max":1047,"o":"m 908 54 l 908 317 l 201 317 l 201 431 l 908 431 l 908 692 l 201 692 l 201 806 l 1047 806 l 1047 54 l 908 54 z "},"ㅌ":{"ha":1250,"x_min":194,"x_max":1054,"o":"m 1040 806 l 1040 692 l 333 692 l 333 486 l 1040 486 l 1040 372 l 333 372 l 333 168 l 1054 168 l 1054 54 l 194 54 l 194 806 l 1040 806 z "},"ㅍ":{"ha":1250,"x_min":160,"x_max":1089,"o":"m 160 806 l 1089 806 l 1089 692 l 913 692 l 913 168 l 1089 168 l 1089 54 l 160 54 l 160 168 l 336 168 l 336 692 l 160 692 l 160 806 m 475 168 l 774 168 l 774 692 l 475 692 l 475 168 z "},"ㅎ":{"ha":1250,"x_min":183,"x_max":1065,"o":"m 624 546 q 795 528 719 546 q 924 476 871 510 q 1004 397 976 443 q 1032 292 1032 350 q 1004 186 1032 233 q 924 106 976 139 q 795 56 871 74 q 624 39 719 39 q 454 56 529 39 q 326 106 379 74 q 246 186 274 139 q 218 292 218 233 q 246 397 218 350 q 326 476 274 443 q 454 528 379 510 q 624 546 529 546 m 624 432 q 517 422 567 432 q 433 392 468 411 q 377 348 397 374 q 357 292 357 322 q 377 236 357 261 q 433 192 397 211 q 517 163 468 174 q 624 153 567 153 q 730 163 681 153 q 815 192 779 174 q 872 236 851 211 q 893 292 893 261 q 872 348 893 322 q 813 392 850 374 q 728 422 776 411 q 624 432 679 432 m 183 764 l 554 764 l 554 872 l 693 872 l 693 764 l 1065 764 l 1065 650 l 183 650 l 183 764 z "},"ㅏ":{"ha":1250,"x_min":514,"x_max":815,"o":"m 653 544 l 815 544 l 815 431 l 653 431 l 653 -147 l 514 -147 l 514 1000 l 653 1000 l 653 544 z "},"ㅐ":{"ha":1250,"x_min":483,"x_max":918,"o":"m 483 -147 l 483 1000 l 622 1000 l 622 478 l 779 532 l 779 1000 l 918 1000 l 918 -147 l 779 -147 l 779 417 l 622 363 l 622 -147 l 483 -147 z "},"ㅑ":{"ha":1250,"x_min":515,"x_max":817,"o":"m 654 725 l 817 725 l 817 611 l 654 611 l 654 267 l 817 267 l 817 153 l 654 153 l 654 -147 l 515 -147 l 515 1000 l 654 1000 l 654 725 z "},"ㅒ":{"ha":1250,"x_min":483,"x_max":918,"o":"m 483 -147 l 483 1000 l 622 1000 l 622 663 l 779 718 l 779 1000 l 918 1000 l 918 -147 l 779 -147 l 779 197 l 622 143 l 622 -147 l 483 -147 m 622 257 l 779 313 l 779 603 l 622 549 l 622 257 z "},"ㅓ":{"ha":1250,"x_min":386,"x_max":863,"o":"m 863 -147 l 724 -147 l 724 446 l 386 331 l 386 439 l 724 556 l 724 1000 l 863 1000 l 863 -147 z "},"ㅔ":{"ha":1250,"x_min":324,"x_max":1022,"o":"m 601 -147 l 601 421 l 324 325 l 324 433 l 601 531 l 601 1000 l 740 1000 l 740 -147 l 601 -147 m 1022 -147 l 883 -147 l 883 1000 l 1022 1000 l 1022 -147 z "},"ㅕ":{"ha":1250,"x_min":388,"x_max":863,"o":"m 863 -147 l 724 -147 l 724 250 l 388 129 l 388 238 l 724 360 l 724 636 l 388 515 l 388 624 l 724 746 l 724 1000 l 863 1000 l 863 -147 z "},"ㅖ":{"ha":1250,"x_min":365,"x_max":1022,"o":"m 601 -147 l 601 199 l 365 118 l 365 232 l 601 314 l 601 632 l 365 551 l 365 665 l 601 747 l 601 1000 l 740 1000 l 740 -147 l 601 -147 m 1022 -147 l 883 -147 l 883 1000 l 1022 1000 l 1022 -147 z "},"ㅗ":{"ha":1250,"x_min":81,"x_max":1169,"o":"m 81 258 l 556 258 l 556 778 l 694 778 l 694 258 l 1169 258 l 1169 144 l 81 144 l 81 258 z "},"ㅘ":{"ha":1250,"x_min":44,"x_max":1207,"o":"m 1044 544 l 1207 544 l 1207 431 l 1044 431 l 1044 -147 l 906 -147 l 906 1000 l 1044 1000 l 1044 544 m 346 -4 l 346 292 l 485 292 l 485 -4 l 814 -4 l 814 -118 l 44 -118 l 44 -4 l 346 -4 z "},"ㅙ":{"ha":1250,"x_min":44,"x_max":1200,"o":"m 765 -147 l 765 1000 l 904 1000 l 904 468 l 1061 522 l 1061 1000 l 1200 1000 l 1200 -147 l 1061 -147 l 1061 408 l 904 354 l 904 -147 l 765 -147 m 283 -4 l 283 290 l 422 290 l 422 -4 l 700 -4 l 700 -118 l 44 -118 l 44 -4 l 283 -4 z "},"ㅚ":{"ha":1250,"x_min":90,"x_max":1118,"o":"m 1118 -147 l 979 -147 l 979 1000 l 1118 1000 l 1118 -147 m 406 -4 l 406 292 l 544 292 l 544 -4 l 888 -4 l 888 -118 l 90 -118 l 90 -4 l 406 -4 z "},"ㅛ":{"ha":1250,"x_min":81,"x_max":1169,"o":"m 81 258 l 333 258 l 333 778 l 472 778 l 472 258 l 778 258 l 778 778 l 917 778 l 917 258 l 1169 258 l 1169 144 l 81 144 l 81 258 z "},"ㅜ":{"ha":1250,"x_min":79,"x_max":1169,"o":"m 556 101 l 556 558 l 79 558 l 79 672 l 1169 672 l 1169 558 l 694 558 l 694 101 l 556 101 z "},"ㅝ":{"ha":1250,"x_min":90,"x_max":1118,"o":"m 671 89 l 979 89 l 979 1000 l 1118 1000 l 1118 -147 l 979 -147 l 979 -25 l 671 -25 l 671 89 m 388 -147 l 388 215 l 90 215 l 90 329 l 888 329 l 888 215 l 526 215 l 526 -147 l 388 -147 z "},"ㅞ":{"ha":1250,"x_min":44,"x_max":1203,"o":"m 539 89 l 796 89 l 796 1000 l 935 1000 l 935 -147 l 796 -147 l 796 -25 l 539 -25 l 539 89 m 1203 -147 l 1064 -147 l 1064 1000 l 1203 1000 l 1203 -147 m 304 -147 l 304 215 l 44 215 l 44 329 l 731 329 l 731 215 l 443 215 l 443 -147 l 304 -147 z "},"ㅟ":{"ha":1250,"x_min":90,"x_max":1118,"o":"m 1118 -147 l 979 -147 l 979 1000 l 1118 1000 l 1118 -147 m 388 -147 l 388 194 l 90 194 l 90 308 l 888 308 l 888 194 l 526 194 l 526 -147 l 388 -147 z "},"ㅠ":{"ha":1250,"x_min":79,"x_max":1169,"o":"m 319 101 l 319 558 l 79 558 l 79 672 l 1169 672 l 1169 558 l 931 558 l 931 101 l 792 101 l 792 558 l 458 558 l 458 101 l 319 101 z "},"ㅡ":{"ha":1250,"x_min":79,"x_max":1169,"o":"m 79 -33 l 1169 -33 l 1169 -147 l 79 -147 l 79 -33 z "},"ㅢ":{"ha":1250,"x_min":90,"x_max":1118,"o":"m 888 -4 l 888 -118 l 90 -118 l 90 -4 l 888 -4 m 1118 -147 l 979 -147 l 979 1000 l 1118 1000 l 1118 -147 z "},"ㅣ":{"ha":1250,"x_min":546,"x_max":685,"o":"m 685 -147 l 546 -147 l 546 1000 l 685 1000 l 685 -147 z "},"ㅤ":{"ha":1306,"x_min":0,"x_max":0,"o":""},"ㅥ":{"ha":1306,"x_min":213,"x_max":1093,"o":"m 360 793 l 360 224 l 622 224 l 622 103 l 213 103 l 213 793 l 360 793 m 831 793 l 831 224 l 1093 224 l 1093 103 l 683 103 l 683 793 l 831 793 z "},"ㅦ":{"ha":1306,"x_min":213,"x_max":1114,"o":"m 1107 793 l 1107 671 l 832 671 l 832 225 l 1114 225 l 1114 103 l 683 103 l 683 793 l 1107 793 m 360 793 l 360 224 l 622 224 l 622 103 l 213 103 l 213 793 l 360 793 z "},"ㅧ":{"ha":1306,"x_min":213,"x_max":1221,"o":"m 701 92 l 633 188 q 800 322 744 240 q 856 511 856 404 l 856 800 l 999 800 l 999 511 q 1054 322 999 404 q 1221 188 1110 240 l 1153 92 q 1014 181 1069 126 q 926 301 958 235 q 839 181 894 235 q 701 92 783 126 m 213 793 l 213 103 l 611 103 l 611 225 l 361 225 l 361 793 l 213 793 z "},"ㅨ":{"ha":1306,"x_min":132,"x_max":1174,"o":"m 557 103 l 864 814 l 1174 103 l 557 103 m 867 528 l 736 206 l 993 206 l 867 528 m 281 793 l 281 225 l 538 225 l 538 103 l 132 103 l 132 793 l 281 793 z "},"ㅩ":{"ha":1306,"x_min":60,"x_max":1308,"o":"m 660 103 l 660 671 l 456 671 l 456 793 l 808 793 l 808 193 q 891 260 858 222 q 942 342 924 297 q 969 436 961 386 q 976 539 976 486 l 976 800 l 1119 800 l 1119 539 q 1128 431 1119 483 q 1157 333 1136 379 q 1215 249 1178 288 q 1308 182 1251 211 l 1240 88 q 1115 178 1158 128 q 1047 288 1072 229 q 980 178 1022 229 q 856 88 938 128 l 808 153 l 808 103 l 660 103 m 269 669 l 60 669 l 60 793 l 421 793 l 421 386 l 211 386 l 211 226 l 461 226 l 461 103 l 60 103 l 60 513 l 269 513 l 269 669 z "},"ㅪ":{"ha":1306,"x_min":171,"x_max":1142,"o":"m 464 669 l 171 669 l 171 793 l 615 793 l 615 386 l 322 386 l 322 226 l 629 226 l 629 103 l 171 103 l 171 513 l 464 513 l 464 669 m 1142 103 l 683 103 l 683 793 l 1128 793 l 1128 672 l 829 672 l 829 224 l 1142 224 l 1142 103 z "},"ㅫ":{"ha":1306,"x_min":60,"x_max":1308,"o":"m 815 793 l 815 197 q 894 264 863 226 q 944 345 925 301 q 969 438 963 389 q 976 539 976 486 l 976 800 l 1119 800 l 1119 539 q 1128 431 1119 483 q 1157 333 1136 379 q 1215 249 1178 288 q 1308 182 1251 211 l 1240 88 q 1115 178 1158 128 q 1047 288 1072 229 q 980 178 1022 229 q 856 88 938 128 l 815 143 l 815 103 l 461 103 l 461 793 l 603 793 l 603 563 l 674 563 l 674 793 l 815 793 m 269 669 l 60 669 l 60 793 l 421 793 l 421 386 l 211 386 l 211 226 l 428 226 l 428 103 l 60 103 l 60 513 l 269 513 l 269 669 m 674 219 l 674 444 l 603 444 l 603 219 l 674 219 z "},"ㅬ":{"ha":1306,"x_min":144,"x_max":1218,"o":"m 433 669 l 144 669 l 144 793 l 585 793 l 585 386 l 296 386 l 296 226 l 585 226 l 585 103 l 144 103 l 144 513 l 433 513 l 433 669 m 601 103 l 908 814 l 1218 103 l 601 103 m 911 528 l 781 206 l 1038 206 l 911 528 z "},"ㅭ":{"ha":1306,"x_min":149,"x_max":1156,"o":"m 442 669 l 149 669 l 149 793 l 593 793 l 593 386 l 300 386 l 300 226 l 593 226 l 593 103 l 149 103 l 149 513 l 442 513 l 442 669 m 899 89 q 798 108 842 89 q 724 160 754 126 q 679 239 694 193 q 664 338 664 285 q 679 435 664 389 q 724 515 694 481 q 798 568 754 549 q 899 588 842 588 q 999 568 956 588 q 1073 515 1043 549 q 1118 435 1103 481 q 1133 338 1133 389 q 1118 240 1133 285 q 1073 161 1103 194 q 999 108 1043 128 q 899 89 956 89 m 899 468 q 826 429 849 468 q 804 338 804 390 q 826 245 804 283 q 899 207 849 207 q 971 245 949 207 q 993 338 993 283 q 971 429 993 390 q 899 468 949 468 m 639 671 l 639 793 l 1156 793 l 1156 671 l 639 671 z "},"ㅮ":{"ha":1306,"x_min":167,"x_max":1138,"o":"m 167 103 l 167 793 l 618 793 l 618 103 l 167 103 m 1138 793 l 1138 103 l 686 103 l 686 793 l 832 793 l 832 564 l 992 564 l 992 793 l 1138 793 m 313 224 l 472 224 l 472 672 l 313 672 l 313 224 m 992 224 l 992 443 l 832 443 l 832 224 l 992 224 z "},"ㅯ":{"ha":1306,"x_min":153,"x_max":1221,"o":"m 600 103 l 600 793 l 153 793 l 153 103 l 600 103 m 701 92 l 633 188 q 800 322 744 240 q 856 511 856 404 l 856 800 l 999 800 l 999 511 q 1054 322 999 404 q 1221 188 1110 240 l 1153 92 q 1014 181 1069 126 q 926 301 958 235 q 839 181 894 235 q 701 92 783 126 m 299 672 l 454 672 l 454 224 l 299 224 l 299 672 z "},"ㅰ":{"ha":1306,"x_min":139,"x_max":1232,"o":"m 139 103 l 139 793 l 586 793 l 586 103 l 139 103 m 285 224 l 440 224 l 440 672 l 285 672 l 285 224 m 615 103 l 922 814 l 1232 103 l 615 103 m 925 528 l 794 206 l 1051 206 l 925 528 z "},"ㅱ":{"ha":1306,"x_min":315,"x_max":989,"o":"m 315 450 l 315 932 l 989 932 l 989 450 l 315 450 m 840 811 l 464 811 l 464 571 l 840 571 l 840 811 m 653 -37 q 480 19 542 -37 q 418 163 418 75 q 434 242 418 206 q 480 306 450 279 q 553 349 510 333 q 653 364 597 364 q 751 349 708 364 q 825 306 794 333 q 872 242 856 279 q 888 163 888 206 q 872 83 888 119 q 825 19 856 46 q 751 -22 794 -7 q 653 -37 708 -37 m 653 244 q 580 221 603 244 q 557 163 557 197 q 580 103 557 126 q 653 81 603 81 q 726 103 703 81 q 749 163 749 126 q 726 221 749 197 q 653 244 703 244 z "},"ㅲ":{"ha":1306,"x_min":167,"x_max":1135,"o":"m 313 793 l 313 564 l 472 564 l 472 793 l 618 793 l 618 103 l 167 103 l 167 793 l 313 793 m 986 103 l 986 671 l 685 671 l 685 793 l 1135 793 l 1135 103 l 986 103 m 472 224 l 472 443 l 313 443 l 313 224 l 472 224 z "},"ㅳ":{"ha":1306,"x_min":167,"x_max":1135,"o":"m 313 793 l 313 564 l 472 564 l 472 793 l 618 793 l 618 103 l 167 103 l 167 793 l 313 793 m 1128 793 l 1128 671 l 833 671 l 833 225 l 1135 225 l 1135 103 l 685 103 l 685 793 l 1128 793 m 472 224 l 472 443 l 313 443 l 313 224 l 472 224 z "},"ㅴ":{"ha":1306,"x_min":61,"x_max":1244,"o":"m 279 793 l 279 563 l 203 563 l 203 793 l 61 793 l 61 103 l 421 103 l 421 793 l 279 793 m 514 93 l 446 188 q 530 250 496 213 q 585 333 564 288 q 615 431 606 379 q 624 539 624 483 l 624 800 l 767 800 l 767 539 q 776 431 767 483 q 806 333 785 379 q 860 250 826 288 q 944 188 894 213 l 876 93 q 765 178 810 126 q 694 288 721 229 q 625 178 669 229 q 514 93 581 126 m 1244 103 l 1244 793 l 871 793 l 871 671 l 1096 671 l 1096 103 l 1244 103 m 203 219 l 203 444 l 279 444 l 279 219 l 203 219 z "},"ㅵ":{"ha":1306,"x_min":61,"x_max":1272,"o":"m 421 793 l 421 197 q 499 264 468 226 q 549 345 531 301 q 575 438 568 389 q 582 539 582 486 l 582 800 l 725 800 l 725 539 q 732 438 725 486 q 757 346 739 389 q 806 265 775 303 q 885 199 836 228 l 885 793 l 1258 793 l 1258 672 l 1031 672 l 1031 224 l 1272 224 l 1272 103 l 885 103 l 885 142 l 846 88 q 721 178 764 128 q 653 288 678 229 q 585 178 628 229 q 461 88 543 128 l 421 143 l 421 103 l 61 103 l 61 793 l 203 793 l 203 563 l 279 563 l 279 793 l 421 793 m 279 219 l 279 444 l 203 444 l 203 219 l 279 219 z "},"ㅶ":{"ha":1306,"x_min":147,"x_max":1211,"o":"m 293 793 l 293 564 l 456 564 l 456 793 l 601 793 l 601 103 l 147 103 l 147 793 l 293 793 m 1171 671 l 989 671 l 989 511 q 1044 322 989 404 q 1211 188 1100 240 l 1143 92 q 1004 181 1060 126 q 917 301 949 235 q 829 181 885 235 q 692 92 774 126 l 624 188 q 790 322 735 240 q 846 511 846 404 l 846 671 l 663 671 l 663 793 l 1171 793 l 1171 671 m 456 224 l 456 443 l 293 443 l 293 224 l 456 224 z "},"ㅷ":{"ha":1306,"x_min":167,"x_max":1135,"o":"m 313 793 l 313 564 l 472 564 l 472 793 l 618 793 l 618 103 l 167 103 l 167 793 l 313 793 m 1128 793 l 1128 671 l 833 671 l 833 513 l 1114 513 l 1114 390 l 833 390 l 833 225 l 1135 225 l 1135 103 l 685 103 l 685 793 l 1128 793 m 472 224 l 472 443 l 313 443 l 313 224 l 472 224 z "},"ㅸ":{"ha":1306,"x_min":315,"x_max":989,"o":"m 989 946 l 989 450 l 315 450 l 315 946 l 464 946 l 464 824 l 840 824 l 840 946 l 989 946 m 653 -37 q 480 19 542 -37 q 418 163 418 75 q 434 242 418 206 q 480 306 450 279 q 553 349 510 333 q 653 364 597 364 q 751 349 708 364 q 825 306 794 333 q 872 242 856 279 q 888 163 888 206 q 872 83 888 119 q 825 19 856 46 q 751 -22 794 -7 q 653 -37 708 -37 m 840 571 l 840 703 l 464 703 l 464 571 l 840 571 m 653 244 q 580 221 603 244 q 557 163 557 197 q 580 103 557 126 q 653 81 603 81 q 726 103 703 81 q 749 163 749 126 q 726 221 749 197 q 653 244 703 244 z "},"ㅹ":{"ha":1306,"x_min":211,"x_max":1093,"o":"m 621 946 l 621 450 l 211 450 l 211 946 l 356 946 l 356 824 l 476 824 l 476 946 l 621 946 m 1093 946 l 1093 450 l 683 450 l 683 946 l 828 946 l 828 824 l 949 824 l 949 946 l 1093 946 m 653 -37 q 480 19 542 -37 q 418 163 418 75 q 434 242 418 206 q 480 306 450 279 q 553 349 510 333 q 653 364 597 364 q 751 349 708 364 q 825 306 794 333 q 872 242 856 279 q 888 163 888 206 q 872 83 888 119 q 825 19 856 46 q 751 -22 794 -7 q 653 -37 708 -37 m 653 244 q 580 221 603 244 q 557 163 557 197 q 580 103 557 126 q 653 81 603 81 q 726 103 703 81 q 749 163 749 126 q 726 221 749 197 q 653 244 703 244 m 476 571 l 476 703 l 356 703 l 356 571 l 476 571 m 949 571 l 949 703 l 828 703 l 828 571 l 949 571 z "},"ㅺ":{"ha":1306,"x_min":132,"x_max":1113,"o":"m 669 88 q 530 174 586 119 q 435 300 474 228 q 340 174 396 228 q 201 88 283 119 l 132 186 q 303 319 243 233 q 364 518 364 406 l 364 800 l 507 800 l 507 518 q 567 319 507 406 q 739 186 628 233 l 669 88 m 964 103 l 964 671 l 649 671 l 649 793 l 1113 793 l 1113 103 l 964 103 z "},"ㅻ":{"ha":1306,"x_min":103,"x_max":1186,"o":"m 640 88 q 501 174 557 119 q 406 300 444 228 q 310 174 367 228 q 172 88 254 119 l 103 186 q 274 319 214 233 q 335 518 335 406 l 335 800 l 478 800 l 478 518 q 538 319 478 406 q 710 186 599 233 l 640 88 m 876 793 l 876 225 l 1186 225 l 1186 103 l 728 103 l 728 793 l 876 793 z "},"ㅼ":{"ha":1306,"x_min":114,"x_max":1178,"o":"m 732 793 l 732 103 l 1178 103 l 1178 225 l 881 225 l 881 671 l 1171 671 l 1171 793 l 732 793 m 182 92 l 114 188 q 281 322 225 240 q 336 511 336 404 l 336 800 l 479 800 l 479 511 q 535 322 479 404 q 701 188 590 240 l 633 92 q 494 181 550 126 q 407 301 439 235 q 319 181 375 235 q 182 92 264 126 z "},"ㅽ":{"ha":1306,"x_min":114,"x_max":1179,"o":"m 1033 793 l 1033 564 l 878 564 l 878 793 l 732 793 l 732 103 l 1179 103 l 1179 793 l 1033 793 m 182 92 l 114 188 q 281 322 225 240 q 336 511 336 404 l 336 800 l 479 800 l 479 511 q 535 322 479 404 q 701 188 590 240 l 633 92 q 494 181 550 126 q 407 301 439 235 q 319 181 375 235 q 182 92 264 126 m 878 224 l 878 443 l 1033 443 l 1033 224 l 878 224 z "},"ㅾ":{"ha":1306,"x_min":61,"x_max":1221,"o":"m 1171 671 l 989 671 l 989 518 q 1049 319 989 406 q 1221 186 1110 233 l 1151 88 q 1012 174 1068 119 q 917 300 956 228 q 822 174 878 228 q 683 88 765 119 l 640 147 l 599 88 q 459 174 515 119 q 364 300 403 228 q 269 174 325 228 q 131 88 213 119 l 61 186 q 233 319 172 233 q 293 518 293 406 l 293 800 l 436 800 l 436 518 q 489 330 436 413 q 640 199 542 247 q 792 330 739 247 q 846 518 846 413 l 846 671 l 663 671 l 663 793 l 1171 793 l 1171 671 z "},"ㅿ":{"ha":1306,"x_min":210,"x_max":1094,"o":"m 210 103 l 653 839 l 1094 103 l 210 103 m 653 576 l 439 219 l 858 219 l 653 576 z "},"ㆀ":{"ha":1306,"x_min":146,"x_max":1158,"o":"m 146 444 q 165 561 146 511 q 215 644 183 611 q 290 693 247 676 q 382 710 333 710 q 474 693 431 710 q 549 644 517 676 q 599 561 581 611 q 618 444 618 511 q 599 328 618 378 q 549 245 581 278 q 474 196 517 213 q 382 179 431 179 q 290 196 333 179 q 215 245 247 213 q 165 328 183 278 q 146 444 146 378 m 482 444 q 458 549 482 508 q 382 589 435 589 q 307 549 331 589 q 283 446 283 508 q 307 340 283 381 q 382 299 331 299 q 458 340 435 299 q 482 444 482 381 m 686 444 q 705 561 686 511 q 756 644 724 611 q 831 693 788 676 q 922 710 874 710 q 1014 693 971 710 q 1089 644 1057 676 q 1140 561 1121 611 q 1158 444 1158 511 q 1140 328 1158 378 q 1089 245 1121 278 q 1014 196 1057 213 q 922 179 971 179 q 831 196 874 179 q 756 245 788 213 q 705 328 724 278 q 686 444 686 378 m 1022 444 q 999 549 1022 508 q 922 589 975 589 q 847 549 871 589 q 824 446 824 508 q 847 340 824 381 q 922 299 871 299 q 999 340 975 299 q 1022 444 1022 381 z "},"ㆁ":{"ha":1306,"x_min":276,"x_max":1029,"o":"m 653 81 q 506 103 575 81 q 387 168 438 125 q 306 274 336 211 q 276 419 276 338 q 300 549 276 492 q 365 649 324 607 q 461 718 406 692 q 582 753 517 744 l 582 856 l 725 856 l 725 753 q 845 717 789 743 q 942 649 901 690 q 1006 549 982 607 q 1029 419 1029 492 q 999 274 1029 338 q 919 168 969 211 q 799 103 868 125 q 653 81 731 81 m 653 203 q 746 218 703 203 q 819 261 789 233 q 867 330 850 289 q 885 421 885 371 q 867 510 885 471 q 819 578 850 550 q 746 621 789 606 q 653 636 703 636 q 560 621 603 636 q 486 578 517 606 q 438 510 456 550 q 421 421 421 471 q 438 330 421 371 q 486 261 456 289 q 560 218 517 233 q 653 203 603 203 z "},"ㆂ":{"ha":1306,"x_min":97,"x_max":1258,"o":"m 376 81 q 169 170 240 81 q 97 419 97 260 q 150 642 97 557 q 306 751 203 728 l 306 856 l 449 856 l 449 750 q 603 641 550 726 q 656 419 656 556 q 584 170 656 260 q 376 81 513 81 m 1189 88 q 1049 174 1106 119 q 954 300 993 228 q 859 174 915 228 q 721 88 803 119 l 651 186 q 823 319 763 233 q 883 518 883 406 l 883 800 l 1026 800 l 1026 518 q 1087 319 1026 406 q 1258 186 1147 233 l 1189 88 m 376 203 q 482 263 450 203 q 514 421 514 322 q 482 576 514 517 q 376 636 450 636 q 271 576 303 636 q 239 421 239 517 q 271 263 239 322 q 376 203 303 203 z "},"ㆃ":{"ha":1306,"x_min":69,"x_max":1246,"o":"m 349 81 q 141 170 213 81 q 69 419 69 260 q 122 642 69 557 q 278 751 175 728 l 278 856 l 421 856 l 421 750 q 575 641 522 726 q 628 419 628 556 q 556 170 628 260 q 349 81 485 81 m 629 103 l 936 814 l 1246 103 l 629 103 m 349 203 q 454 263 422 203 q 486 421 486 322 q 454 576 486 517 q 349 636 422 636 q 243 576 275 636 q 211 421 211 517 q 243 263 211 322 q 349 203 275 203 m 939 528 l 808 206 l 1065 206 l 939 528 z "},"ㆄ":{"ha":1306,"x_min":267,"x_max":1038,"o":"m 267 450 l 267 575 l 432 575 l 400 764 l 546 781 l 579 575 l 736 575 l 771 781 l 917 764 l 885 575 l 1038 575 l 1038 450 l 267 450 m 653 -37 q 480 19 542 -37 q 418 163 418 75 q 434 242 418 206 q 480 306 450 279 q 553 349 510 333 q 653 364 597 364 q 751 349 708 364 q 825 306 794 333 q 872 242 856 279 q 888 163 888 206 q 872 83 888 119 q 825 19 856 46 q 751 -22 794 -7 q 653 -37 708 -37 m 294 821 l 294 946 l 1010 946 l 1010 821 l 294 821 m 653 244 q 580 221 603 244 q 557 163 557 197 q 580 103 557 126 q 653 81 603 81 q 726 103 703 81 q 749 163 749 126 q 726 221 749 197 q 653 244 703 244 z "},"ㆅ":{"ha":1306,"x_min":85,"x_max":1219,"o":"m 949 75 q 776 131 838 75 q 714 275 714 188 q 730 355 714 318 q 776 419 746 392 q 849 461 806 446 q 949 476 893 476 q 1047 461 1004 476 q 1121 419 1090 446 q 1167 355 1151 392 q 1183 275 1183 318 q 1167 195 1183 232 q 1121 132 1151 158 q 1047 90 1090 106 q 949 75 1004 75 m 949 357 q 877 333 899 357 q 856 275 856 310 q 877 216 856 239 q 949 193 899 193 q 1020 216 999 193 q 1042 275 1042 239 q 1020 333 1042 310 q 949 357 999 357 m 790 715 l 790 838 l 1106 838 l 1106 715 l 790 715 m 675 535 l 675 657 l 1219 657 l 1219 535 l 675 535 m 358 75 q 185 131 247 75 q 124 275 124 188 q 140 355 124 318 q 185 419 156 392 q 259 461 215 446 q 358 476 303 476 q 457 461 414 476 q 531 419 500 446 q 577 355 561 392 q 593 275 593 318 q 577 195 593 232 q 531 132 561 158 q 457 90 500 106 q 358 75 414 75 m 358 357 q 287 333 308 357 q 265 275 265 310 q 287 216 265 239 q 358 193 308 193 q 430 216 408 193 q 451 275 451 239 q 430 333 451 310 q 358 357 408 357 m 200 715 l 200 838 l 515 838 l 515 715 l 200 715 m 85 535 l 85 657 l 629 657 l 629 535 l 85 535 z "},"ㆆ":{"ha":1306,"x_min":256,"x_max":1050,"o":"m 256 671 l 256 793 l 1050 793 l 1050 671 l 256 671 m 318 336 q 407 523 318 454 q 653 592 496 592 q 900 523 811 592 q 989 336 989 454 q 900 149 989 218 q 653 81 811 81 q 407 149 496 81 q 318 336 318 218 m 847 336 q 804 432 847 394 q 653 469 761 469 q 505 432 550 469 q 460 338 460 394 q 504 240 460 278 q 653 203 549 203 q 804 240 761 203 q 847 336 847 278 z "},"ㆇ":{"ha":1306,"x_min":26,"x_max":1285,"o":"m 1079 768 l 1285 768 l 1285 643 l 1079 643 l 1079 367 l 1285 367 l 1285 242 l 1079 242 l 1079 -215 l 931 -215 l 931 1067 l 1079 1067 l 1079 768 m 881 85 q 465 41 669 56 q 46 24 261 26 l 26 146 q 128 147 78 146 q 229 151 179 149 l 229 576 l 379 576 l 379 158 q 446 163 413 161 q 514 167 479 164 l 514 576 l 664 576 l 664 181 q 761 192 713 186 q 860 204 810 197 l 881 85 z "},"ㆈ":{"ha":1306,"x_min":26,"x_max":1178,"o":"m 915 768 l 1032 768 l 1032 1067 l 1178 1067 l 1178 -219 l 1032 -219 l 1032 244 l 915 244 l 915 -169 l 771 -169 l 771 1039 l 915 1039 l 915 768 m 732 64 q 385 35 551 44 q 46 24 218 26 l 26 146 q 93 147 60 146 q 160 149 126 147 l 160 576 l 310 576 l 310 154 q 373 158 342 157 q 436 161 404 158 l 436 576 l 586 576 l 586 174 q 649 179 618 176 q 713 185 681 182 l 732 64 m 915 368 l 1032 368 l 1032 644 l 915 644 l 915 368 z "},"ㆉ":{"ha":1306,"x_min":54,"x_max":1149,"o":"m 950 85 q 514 41 739 56 q 74 24 289 26 l 54 146 q 158 147 106 146 q 263 151 210 149 l 263 576 l 413 576 l 413 157 q 500 163 457 160 q 588 168 543 165 l 588 576 l 738 576 l 738 182 q 834 192 786 186 q 929 204 882 197 l 950 85 m 1149 -215 l 1000 -215 l 1000 1067 l 1149 1067 l 1149 -215 z "},"ㆊ":{"ha":1306,"x_min":54,"x_max":1149,"o":"m 585 -194 l 585 401 q 508 396 546 399 q 431 390 469 393 l 431 -194 l 281 -194 l 281 383 q 74 379 174 379 l 54 501 q 493 518 268 504 q 929 560 718 532 l 950 440 q 843 426 897 433 q 735 414 789 419 l 735 -194 l 585 -194 m 1000 90 l 1000 197 l 817 197 l 817 322 l 1000 322 l 1000 1067 l 1149 1067 l 1149 -215 l 1000 -215 l 1000 -35 l 817 -35 l 817 90 l 1000 90 z "},"ㆋ":{"ha":1306,"x_min":26,"x_max":1178,"o":"m 188 -139 l 188 381 q 117 378 151 379 q 46 378 82 378 l 26 500 q 370 512 196 503 q 726 539 544 521 l 746 418 q 667 410 706 414 q 588 403 628 406 l 588 -139 l 438 -139 l 438 392 q 388 389 413 390 q 338 386 363 388 l 338 -139 l 188 -139 m 785 90 l 785 197 l 656 197 l 656 322 l 785 322 l 785 1039 l 929 1039 l 929 -156 l 785 -156 l 785 -35 l 656 -35 l 656 90 l 785 90 m 1032 -219 l 1032 1067 l 1178 1067 l 1178 -219 l 1032 -219 z "},"ㆌ":{"ha":1306,"x_min":54,"x_max":1149,"o":"m 585 -194 l 585 263 q 508 257 546 260 q 431 251 469 254 l 431 -194 l 281 -194 l 281 244 q 74 240 174 240 l 54 363 q 493 379 268 365 q 929 421 718 393 l 950 301 q 843 288 897 294 q 735 275 789 281 l 735 -194 l 585 -194 m 1149 -215 l 1000 -215 l 1000 1067 l 1149 1067 l 1149 -215 z "},"ㆍ":{"ha":1306,"x_min":514,"x_max":790,"o":"m 790 446 q 751 350 790 389 q 653 311 711 311 q 553 350 593 311 q 514 446 514 389 q 553 543 514 504 q 653 582 593 582 q 751 543 711 582 q 790 446 790 504 z "},"ㆎ":{"ha":1306,"x_min":356,"x_max":947,"o":"m 589 456 q 556 374 589 407 q 472 340 522 340 q 389 374 422 340 q 356 456 356 407 q 389 537 356 504 q 472 569 422 569 q 556 537 522 569 q 589 456 589 504 m 947 -215 l 799 -215 l 799 1067 l 947 1067 l 947 -215 z "},"ⅰ":{"ha":1306,"x_min":582,"x_max":724,"o":"m 582 654 l 724 654 l 724 -60 l 582 -60 l 582 654 m 724 769 l 582 769 l 582 932 l 724 932 l 724 769 z "},"ⅱ":{"ha":1306,"x_min":415,"x_max":890,"o":"m 415 654 l 557 654 l 557 -60 l 415 -60 l 415 654 m 557 769 l 415 769 l 415 932 l 557 932 l 557 769 m 749 654 l 890 654 l 890 -60 l 749 -60 l 749 654 m 890 769 l 749 769 l 749 932 l 890 932 l 890 769 z "},"ⅲ":{"ha":1306,"x_min":249,"x_max":1056,"o":"m 249 654 l 390 654 l 390 -60 l 249 -60 l 249 654 m 390 769 l 249 769 l 249 932 l 390 932 l 390 769 m 582 654 l 724 654 l 724 -60 l 582 -60 l 582 654 m 724 769 l 582 769 l 582 932 l 724 932 l 724 769 m 914 654 l 1056 654 l 1056 -60 l 914 -60 l 914 654 m 1056 769 l 914 769 l 914 932 l 1056 932 l 1056 769 z "},"ⅳ":{"ha":1306,"x_min":229,"x_max":1154,"o":"m 622 654 l 814 106 l 1011 654 l 1154 654 l 888 -60 l 738 -60 l 474 654 l 622 654 m 229 654 l 371 654 l 371 -60 l 229 -60 l 229 654 m 371 769 l 229 769 l 229 932 l 371 932 l 371 769 z "},"ⅴ":{"ha":1306,"x_min":313,"x_max":993,"o":"m 461 654 l 653 106 l 850 654 l 993 654 l 726 -60 l 576 -60 l 313 654 l 461 654 z "},"ⅵ":{"ha":1306,"x_min":151,"x_max":1076,"o":"m 300 654 l 492 106 l 689 654 l 832 654 l 565 -60 l 415 -60 l 151 654 l 300 654 m 935 654 l 1076 654 l 1076 -60 l 935 -60 l 935 654 m 1076 769 l 935 769 l 935 932 l 1076 932 l 1076 769 z "},"ⅶ":{"ha":1306,"x_min":89,"x_max":1167,"o":"m 400 122 l 565 654 l 714 654 l 476 -60 l 329 -60 l 89 654 l 233 654 l 400 122 m 1025 654 l 1167 654 l 1167 -60 l 1025 -60 l 1025 654 m 789 654 l 931 654 l 931 -60 l 789 -60 l 789 654 m 1167 769 l 1025 769 l 1025 932 l 1167 932 l 1167 769 m 931 769 l 789 769 l 789 932 l 931 932 l 931 769 z "},"ⅷ":{"ha":1306,"x_min":68,"x_max":1179,"o":"m 310 171 l 410 654 l 554 654 l 388 -60 l 238 -60 l 68 654 l 208 654 l 310 171 m 821 654 l 960 654 l 960 -60 l 821 -60 l 821 654 m 1040 654 l 1179 654 l 1179 -60 l 1040 -60 l 1040 654 m 601 654 l 740 654 l 740 -60 l 601 -60 l 601 654 m 740 769 l 601 769 l 601 932 l 740 932 l 740 769 m 1179 769 l 1040 769 l 1040 932 l 1179 932 l 1179 769 m 960 769 l 821 769 l 821 932 l 960 932 l 960 769 z "},"ⅸ":{"ha":1306,"x_min":232,"x_max":1131,"o":"m 619 -60 l 469 -60 l 725 296 l 469 654 l 618 654 l 800 400 l 982 654 l 1131 654 l 875 296 l 1131 -60 l 981 -60 l 800 192 l 619 -60 m 232 654 l 374 654 l 374 -60 l 232 -60 l 232 654 m 374 769 l 232 769 l 232 932 l 374 932 l 374 769 z "},"ⅹ":{"ha":1306,"x_min":319,"x_max":981,"o":"m 469 -60 l 319 -60 l 575 296 l 319 654 l 468 654 l 650 400 l 832 654 l 981 654 l 725 296 l 981 -60 l 831 -60 l 650 192 l 469 -60 z "},"Ⅰ":{"ha":1306,"x_min":579,"x_max":725,"o":"m 725 -60 l 579 -60 l 579 932 l 725 932 l 725 -60 z "},"Ⅱ":{"ha":1306,"x_min":413,"x_max":893,"o":"m 558 -60 l 413 -60 l 413 932 l 558 932 l 558 -60 m 893 -60 l 747 -60 l 747 932 l 893 932 l 893 -60 z "},"Ⅲ":{"ha":1306,"x_min":246,"x_max":1058,"o":"m 392 -60 l 246 -60 l 246 932 l 392 932 l 392 -60 m 726 -60 l 581 -60 l 581 932 l 726 932 l 726 -60 m 1058 -60 l 913 -60 l 913 932 l 1058 932 l 1058 -60 z "},"Ⅳ":{"ha":1306,"x_min":186,"x_max":1197,"o":"m 800 140 l 1050 932 l 1197 932 l 869 -60 l 729 -60 l 401 932 l 549 932 l 800 140 m 332 -60 l 186 -60 l 186 932 l 332 932 l 332 -60 z "},"Ⅴ":{"ha":1306,"x_min":254,"x_max":1050,"o":"m 653 140 l 903 932 l 1050 932 l 722 -60 l 582 -60 l 254 932 l 401 932 l 653 140 z "},"Ⅵ":{"ha":1306,"x_min":106,"x_max":1119,"o":"m 504 140 l 754 932 l 901 932 l 574 -60 l 433 -60 l 106 932 l 253 932 l 504 140 m 1119 -60 l 974 -60 l 974 932 l 1119 932 l 1119 -60 z "},"Ⅶ":{"ha":1306,"x_min":85,"x_max":1168,"o":"m 400 179 l 568 932 l 715 932 l 472 -60 l 329 -60 l 85 932 l 232 932 l 400 179 m 932 -60 l 786 -60 l 786 932 l 932 932 l 932 -60 m 1168 -60 l 1022 -60 l 1022 932 l 1168 932 l 1168 -60 z "},"Ⅷ":{"ha":1306,"x_min":56,"x_max":1172,"o":"m 300 232 l 404 932 l 546 932 l 372 -60 l 229 -60 l 56 932 l 197 932 l 300 232 m 1172 -60 l 1029 -60 l 1029 932 l 1172 932 l 1172 -60 m 956 -60 l 813 -60 l 813 932 l 956 932 l 956 -60 m 738 -60 l 594 -60 l 594 932 l 738 932 l 738 -60 z "},"Ⅸ":{"ha":1306,"x_min":200,"x_max":1196,"o":"m 799 310 l 563 -60 l 403 -60 l 718 435 l 401 932 l 563 932 l 799 561 l 1035 932 l 1196 932 l 878 435 l 1194 -60 l 1035 -60 l 799 310 m 346 -60 l 200 -60 l 200 932 l 346 932 l 346 -60 z "},"Ⅹ":{"ha":1306,"x_min":254,"x_max":1049,"o":"m 651 310 l 415 -60 l 256 -60 l 571 435 l 254 932 l 415 932 l 651 561 l 888 932 l 1049 932 l 731 435 l 1047 -60 l 888 -60 l 651 310 z "},"Α":{"ha":833,"x_min":18,"x_max":814,"o":"m 814 -60 l 671 -60 l 592 192 l 239 192 l 161 -60 l 18 -60 l 344 932 l 488 932 l 814 -60 m 274 304 l 557 304 l 415 758 l 274 304 z "},"Β":{"ha":792,"x_min":101,"x_max":735,"o":"m 382 932 q 610 872 531 932 q 689 681 689 811 q 658 552 689 607 q 557 461 628 497 q 690 378 646 443 q 735 229 735 314 q 658 10 735 79 q 431 -60 581 -60 l 101 -60 l 101 932 l 382 932 m 413 61 q 546 99 496 61 q 596 232 596 138 q 541 353 596 315 q 399 392 486 392 l 243 392 l 243 61 l 413 61 m 367 511 q 499 551 449 511 q 550 678 550 590 q 537 741 550 715 q 501 782 524 767 q 447 804 478 797 q 379 811 415 811 l 243 811 l 243 511 l 367 511 z "},"Γ":{"ha":736,"x_min":101,"x_max":692,"o":"m 101 -60 l 101 932 l 692 932 l 692 810 l 250 810 l 250 -60 l 101 -60 z "},"Δ":{"ha":889,"x_min":19,"x_max":869,"o":"m 19 -60 l 400 932 l 511 932 l 869 -60 l 19 -60 m 449 714 l 203 63 l 682 63 l 449 714 z "},"Ε":{"ha":778,"x_min":101,"x_max":714,"o":"m 247 390 l 247 64 l 714 64 l 714 -60 l 101 -60 l 101 932 l 692 932 l 692 808 l 247 808 l 247 513 l 669 513 l 669 390 l 247 390 z "},"Ζ":{"ha":792,"x_min":44,"x_max":743,"o":"m 556 808 l 63 808 l 63 932 l 736 932 l 736 844 l 226 64 l 743 64 l 743 -60 l 44 -60 l 44 25 l 556 808 z "},"Η":{"ha":917,"x_min":101,"x_max":814,"o":"m 247 513 l 668 513 l 668 932 l 814 932 l 814 -60 l 668 -60 l 668 390 l 247 390 l 247 -60 l 101 -60 l 101 932 l 247 932 l 247 513 z "},"Θ":{"ha":972,"x_min":61,"x_max":911,"o":"m 486 -76 q 314 -42 392 -76 q 180 56 236 -8 q 92 214 124 121 q 61 425 61 307 q 92 643 61 547 q 178 805 122 739 q 313 906 235 871 q 486 940 392 940 q 659 906 581 940 q 794 805 738 871 q 881 643 850 739 q 911 425 911 547 q 880 214 911 307 q 792 56 849 121 q 658 -42 736 -8 q 486 -76 579 -76 m 486 822 q 360 791 414 822 q 272 706 307 760 q 221 581 238 653 q 204 425 204 508 q 222 272 204 342 q 276 151 240 203 q 365 72 313 100 q 486 43 417 43 q 607 72 554 43 q 696 151 660 100 q 750 272 732 203 q 768 425 768 342 q 751 581 768 508 q 700 706 735 653 q 612 791 665 760 q 486 822 558 822 m 272 363 l 272 485 l 700 485 l 700 363 l 272 363 z "},"Ι":{"ha":335,"x_min":94,"x_max":240,"o":"m 240 -60 l 94 -60 l 94 932 l 240 932 l 240 -60 z "},"Κ":{"ha":824,"x_min":101,"x_max":832,"o":"m 417 506 l 832 -60 l 667 -60 l 325 406 l 247 321 l 247 -60 l 101 -60 l 101 932 l 247 932 l 247 510 l 644 932 l 813 932 l 417 506 z "},"Λ":{"ha":833,"x_min":17,"x_max":814,"o":"m 414 733 l 168 -60 l 17 -60 l 346 932 l 486 932 l 814 -60 l 663 -60 l 414 733 z "},"Μ":{"ha":1083,"x_min":101,"x_max":982,"o":"m 457 -60 l 240 672 l 240 -60 l 101 -60 l 101 932 l 290 932 l 542 100 l 793 932 l 982 932 l 982 -60 l 843 -60 l 843 672 l 626 -60 l 457 -60 z "},"Ν":{"ha":924,"x_min":101,"x_max":826,"o":"m 826 -64 l 650 -64 l 236 758 l 236 -60 l 101 -60 l 101 932 l 285 932 l 692 128 l 692 932 l 826 932 l 826 -64 z "},"Ξ":{"ha":917,"x_min":100,"x_max":814,"o":"m 100 808 l 100 932 l 814 932 l 814 808 l 100 808 m 203 390 l 203 513 l 713 513 l 713 390 l 203 390 m 100 -60 l 100 64 l 814 64 l 814 -60 l 100 -60 z "},"Ο":{"ha":972,"x_min":61,"x_max":911,"o":"m 486 -76 q 314 -42 392 -76 q 180 56 236 -8 q 92 214 124 121 q 61 425 61 307 q 92 643 61 547 q 178 805 122 739 q 313 906 235 871 q 486 940 392 940 q 659 906 581 940 q 794 805 738 871 q 881 643 850 739 q 911 425 911 547 q 880 214 911 307 q 792 56 849 121 q 658 -42 736 -8 q 486 -76 579 -76 m 486 822 q 360 791 414 822 q 272 706 307 760 q 221 581 238 653 q 204 425 204 508 q 222 272 204 342 q 276 151 240 203 q 365 72 313 100 q 486 43 417 43 q 607 72 554 43 q 696 151 660 100 q 750 272 732 203 q 768 425 768 342 q 751 581 768 508 q 700 706 735 653 q 612 791 665 760 q 486 822 558 822 z "},"Π":{"ha":917,"x_min":101,"x_max":814,"o":"m 814 -60 l 668 -60 l 668 810 l 247 810 l 247 -60 l 101 -60 l 101 932 l 814 932 l 814 -60 z "},"Ρ":{"ha":774,"x_min":101,"x_max":721,"o":"m 417 932 q 645 854 569 932 q 721 631 721 776 q 644 408 721 488 q 417 328 568 328 l 243 328 l 243 -60 l 101 -60 l 101 932 l 417 932 m 411 451 q 536 494 490 451 q 582 628 582 536 q 536 764 582 719 q 411 808 490 808 l 243 808 l 243 451 l 411 451 z "},"Σ":{"ha":792,"x_min":64,"x_max":738,"o":"m 64 -60 l 64 0 l 475 436 l 64 842 l 64 932 l 736 932 l 736 807 l 268 807 l 653 444 l 288 67 l 738 67 l 738 -60 l 64 -60 z "},"Τ":{"ha":736,"x_min":22,"x_max":714,"o":"m 22 810 l 22 932 l 714 932 l 714 810 l 436 810 l 436 -60 l 288 -60 l 288 810 l 22 810 z "},"Υ":{"ha":833,"x_min":13,"x_max":821,"o":"m 340 372 l 13 932 l 169 932 l 415 496 l 668 932 l 821 932 l 489 375 l 489 -64 l 340 -64 l 340 372 z "},"Φ":{"ha":889,"x_min":67,"x_max":821,"o":"m 517 786 q 638 745 582 775 q 734 669 693 715 q 798 561 775 622 q 821 425 821 500 q 798 288 821 350 q 734 181 775 226 q 638 105 693 135 q 517 64 582 75 l 517 -60 l 371 -60 l 371 64 q 250 105 306 75 q 153 181 194 135 q 90 289 113 228 q 67 425 67 350 q 90 560 67 499 q 153 669 113 622 q 250 745 194 715 q 371 786 306 775 l 371 932 l 517 932 l 517 786 m 678 425 q 635 577 678 515 q 517 660 593 639 l 517 189 q 635 272 593 210 q 678 425 678 333 m 210 426 q 253 273 210 335 q 371 190 296 211 l 371 660 q 253 577 296 639 q 210 426 210 515 z "},"Χ":{"ha":819,"x_min":13,"x_max":808,"o":"m 410 564 l 646 932 l 808 932 l 492 436 l 808 -60 l 647 -60 l 410 310 l 174 -60 l 13 -60 l 329 436 l 13 932 l 175 932 l 410 564 z "},"Ψ":{"ha":944,"x_min":78,"x_max":867,"o":"m 547 343 q 671 416 624 358 q 718 585 718 474 l 718 932 l 867 932 l 867 603 q 842 441 867 510 q 773 326 817 372 q 672 253 729 279 q 547 218 614 226 l 547 -60 l 399 -60 l 399 218 q 274 253 332 226 q 172 326 215 279 q 103 440 128 372 q 78 603 78 508 l 78 932 l 226 932 l 226 585 q 274 416 226 474 q 399 343 321 358 l 399 932 l 547 932 l 547 343 z "},"Ω":{"ha":1056,"x_min":65,"x_max":990,"o":"m 528 818 q 397 792 453 818 q 306 721 342 767 q 251 613 269 675 q 233 476 233 550 q 250 337 233 404 q 297 213 267 269 q 367 111 326 156 q 453 40 407 67 l 453 -60 l 65 -60 l 65 65 l 249 65 q 128 244 172 135 q 85 475 85 353 q 115 667 85 581 q 202 813 144 753 q 342 906 260 874 q 528 939 424 939 q 714 906 632 939 q 853 813 796 874 q 941 667 911 753 q 971 475 971 581 q 927 244 971 353 q 807 65 883 135 l 990 65 l 990 -60 l 603 -60 l 603 40 q 689 111 649 67 q 759 213 729 156 q 806 337 789 269 q 822 476 822 404 q 804 613 822 550 q 750 721 786 675 q 658 792 714 767 q 528 818 603 818 z "},"α":{"ha":865,"x_min":43,"x_max":857,"o":"m 857 74 q 793 -44 833 -8 q 685 -81 753 -81 q 597 -45 639 -81 q 540 65 554 -10 q 444 -46 500 -15 q 324 -76 388 -76 q 193 -47 247 -76 q 106 31 139 -18 q 58 145 72 81 q 46 281 43 210 q 67 428 49 357 q 124 552 86 499 q 218 638 161 606 q 353 669 275 669 q 422 660 388 669 q 487 628 457 650 q 540 572 517 607 q 574 486 563 538 l 622 647 l 751 611 l 619 213 q 643 81 622 131 q 692 31 664 31 q 727 53 714 31 q 751 114 740 75 l 857 74 m 494 314 q 490 408 497 364 q 464 486 482 453 q 418 539 446 519 q 353 558 390 558 q 274 528 306 558 q 223 456 242 499 q 195 363 204 413 q 185 276 186 314 q 214 98 179 163 q 322 33 249 33 q 397 61 365 33 q 450 131 429 89 q 481 222 471 172 q 494 314 492 271 z "},"β":{"ha":750,"x_min":101,"x_max":694,"o":"m 694 233 q 676 116 694 172 q 621 17 657 60 q 531 -51 585 -25 q 407 -76 478 -76 q 315 -61 363 -76 q 240 -26 268 -46 l 240 -242 l 101 -242 l 101 671 q 120 792 101 742 q 174 876 139 843 q 260 923 210 908 q 375 938 311 938 q 491 918 439 938 q 580 864 543 899 q 636 781 617 829 q 656 678 656 733 q 635 569 656 619 q 553 476 614 518 q 663 369 632 436 q 694 233 694 303 m 553 233 q 544 299 553 267 q 518 358 536 332 q 473 401 500 385 q 408 418 446 418 l 342 418 l 342 521 l 408 521 q 489 555 461 521 q 517 676 517 589 q 481 785 517 744 q 375 826 444 826 q 277 790 314 826 q 240 664 240 754 l 240 90 q 310 47 268 60 q 393 35 351 35 q 463 50 433 35 q 513 92 493 65 q 543 156 533 119 q 553 233 553 192 z "},"γ":{"ha":722,"x_min":22,"x_max":700,"o":"m 425 96 q 473 24 451 58 q 508 -39 494 -11 q 531 -129 532 -83 q 510 -212 531 -175 q 449 -272 489 -249 q 354 -294 410 -294 q 260 -273 301 -294 q 197 -216 219 -251 q 171 -135 174 -181 q 193 -40 168 -89 q 232 24 207 -12 q 290 106 257 61 l 22 611 l 139 661 l 356 221 l 581 660 l 700 611 l 425 96 m 414 -114 q 357 6 414 -81 q 309 -66 324 -36 q 294 -115 294 -96 q 354 -181 294 -181 q 414 -114 414 -181 z "},"δ":{"ha":778,"x_min":53,"x_max":725,"o":"m 53 261 q 117 453 53 365 q 293 594 182 540 q 224 672 253 629 q 194 781 194 715 q 205 838 194 810 q 240 888 215 867 q 306 924 265 910 q 408 938 347 938 q 547 916 488 938 q 640 868 607 894 l 576 769 q 510 808 553 789 q 413 828 467 828 q 347 810 363 828 q 331 769 331 792 q 342 731 331 750 q 370 696 353 713 q 409 663 388 679 q 451 633 431 647 q 575 540 524 583 q 660 454 626 497 q 709 366 693 411 q 725 267 725 321 q 699 124 725 188 q 628 15 674 60 q 522 -53 583 -29 q 389 -78 460 -78 q 260 -58 321 -78 q 153 4 199 -37 q 80 110 107 46 q 53 261 53 174 m 585 257 q 568 344 585 307 q 524 413 551 382 q 461 470 496 444 q 389 522 426 496 q 250 419 304 485 q 196 263 196 353 q 213 160 196 203 q 259 89 231 117 q 323 48 288 61 q 396 35 358 35 q 468 50 433 35 q 528 94 503 65 q 569 163 554 122 q 585 257 585 204 z "},"ε":{"ha":653,"x_min":49,"x_max":614,"o":"m 614 104 q 569 24 597 58 q 504 -32 542 -10 q 422 -65 467 -54 q 329 -76 378 -76 q 224 -65 275 -76 q 135 -29 174 -54 q 72 35 96 -4 q 49 132 49 75 q 60 194 49 163 q 94 252 71 225 q 153 298 117 279 q 240 322 190 317 q 163 349 194 331 q 111 391 131 368 q 83 438 92 414 q 74 485 74 463 q 97 576 74 539 q 158 635 121 613 q 242 668 196 658 q 335 678 289 678 q 486 643 417 678 q 597 536 556 608 l 489 476 q 424 542 461 517 q 335 568 386 568 q 239 545 267 568 q 211 488 211 522 q 231 437 211 458 q 283 403 251 415 q 354 385 315 390 q 429 381 393 379 l 429 265 q 333 256 376 264 q 258 233 290 249 q 209 194 226 218 q 192 135 192 169 q 231 60 192 83 q 329 36 269 36 q 500 153 453 36 l 614 104 z "}}}
